<svg width="79" height="77" viewBox="0 0 79 77" fill="none" xmlns="http://www.w3.org/2000/svg">
<path fill-rule="evenodd" clip-rule="evenodd" d="M6.58337 19.2501C6.58337 15.8465 7.97057 12.5823 10.4398 10.1755C12.909 7.76883 16.258 6.41675 19.75 6.41675H59.25C62.7421 6.41675 66.091 7.76883 68.5603 10.1755C71.0295 12.5823 72.4167 15.8465 72.4167 19.2501V57.7501C72.4167 61.1537 71.0295 64.4179 68.5603 66.8246C66.091 69.2313 62.7421 70.5834 59.25 70.5834H19.75C16.258 70.5834 12.909 69.2313 10.4398 66.8246C7.97057 64.4179 6.58337 61.1537 6.58337 57.7501V19.2501ZM19.75 12.8334C18.004 12.8334 16.3295 13.5095 15.0949 14.7128C13.8603 15.9162 13.1667 17.5483 13.1667 19.2501V57.7501C13.1667 59.4519 13.8603 61.084 15.0949 62.2874C16.3295 63.4907 18.004 64.1668 19.75 64.1668H39.5V41.7084H36.2084C35.3354 41.7084 34.4981 41.3704 33.8808 40.7687C33.2635 40.167 32.9167 39.351 32.9167 38.5001C32.9167 37.6492 33.2635 36.8331 33.8808 36.2314C34.4981 35.6298 35.3354 35.2917 36.2084 35.2917H39.5V30.4792C39.5 27.5011 40.7138 24.6449 42.8744 22.539C45.035 20.4332 47.9654 19.2501 51.0209 19.2501H52.9959C53.8689 19.2501 54.7061 19.5881 55.3234 20.1898C55.9407 20.7915 56.2875 21.6075 56.2875 22.4584C56.2875 23.3093 55.9407 24.1254 55.3234 24.727C54.7061 25.3287 53.8689 25.6667 52.9959 25.6667H51.0209C50.3725 25.6667 49.7304 25.7912 49.1314 26.0331C48.5323 26.2749 47.988 26.6294 47.5295 27.0763C47.071 27.5232 46.7073 28.0537 46.4592 28.6376C46.2111 29.2215 46.0834 29.8473 46.0834 30.4792V35.2917H52.9959C53.8689 35.2917 54.7061 35.6298 55.3234 36.2314C55.9407 36.8331 56.2875 37.6492 56.2875 38.5001C56.2875 39.351 55.9407 40.167 55.3234 40.7687C54.7061 41.3704 53.8689 41.7084 52.9959 41.7084H46.0834V64.1668H59.25C60.996 64.1668 62.6705 63.4907 63.9052 62.2874C65.1398 61.084 65.8334 59.4519 65.8334 57.7501V19.2501C65.8334 17.5483 65.1398 15.9162 63.9052 14.7128C62.6705 13.5095 60.996 12.8334 59.25 12.8334H19.75Z" fill="#F7F0E6"/>
</svg>
