<svg width="79" height="79" viewBox="0 0 79 79" fill="none" xmlns="http://www.w3.org/2000/svg">
<path fill-rule="evenodd" clip-rule="evenodd" d="M6.58337 19.7499C6.58337 16.2579 7.97057 12.9089 10.4398 10.4397C12.909 7.97045 16.258 6.58325 19.75 6.58325H59.25C62.7421 6.58325 66.091 7.97045 68.5603 10.4397C71.0295 12.9089 72.4167 16.2579 72.4167 19.7499V59.2499C72.4167 62.7419 71.0295 66.0909 68.5603 68.5602C66.091 71.0294 62.7421 72.4166 59.25 72.4166H19.75C16.258 72.4166 12.909 71.0294 10.4398 68.5602C7.97057 66.0909 6.58337 62.7419 6.58337 59.2499V19.7499ZM19.75 13.1666C18.004 13.1666 16.3295 13.8602 15.0949 15.0948C13.8603 16.3294 13.1667 18.0039 13.1667 19.7499V59.2499C13.1667 60.9959 13.8603 62.6704 15.0949 63.905C16.3295 65.1396 18.004 65.8332 19.75 65.8332H59.25C60.996 65.8332 62.6705 65.1396 63.9052 63.905C65.1398 62.6704 65.8334 60.9959 65.8334 59.2499V19.7499C65.8334 18.0039 65.1398 16.3294 63.9052 15.0948C62.6705 13.8602 60.996 13.1666 59.25 13.1666H19.75ZM39.5 29.6249C36.881 29.6249 34.3693 30.6653 32.5174 32.5172C30.6654 34.3692 29.625 36.8809 29.625 39.4999C29.625 42.1189 30.6654 44.6307 32.5174 46.4826C34.3693 48.3345 36.881 49.3749 39.5 49.3749C42.1191 49.3749 44.6308 48.3345 46.4827 46.4826C48.3346 44.6307 49.375 42.1189 49.375 39.4999C49.375 36.8809 48.3346 34.3692 46.4827 32.5172C44.6308 30.6653 42.1191 29.6249 39.5 29.6249ZM23.0417 39.4999C23.0417 35.1349 24.7757 30.9487 27.8622 27.8621C30.9488 24.7756 35.135 23.0416 39.5 23.0416C43.8651 23.0416 48.0513 24.7756 51.1378 27.8621C54.2244 30.9487 55.9584 35.1349 55.9584 39.4999C55.9584 43.8649 54.2244 48.0512 51.1378 51.1377C48.0513 54.2243 43.8651 55.9582 39.5 55.9582C35.135 55.9582 30.9488 54.2243 27.8622 51.1377C24.7757 48.0512 23.0417 43.8649 23.0417 39.4999V39.4999ZM57.6042 26.3333C58.9137 26.3333 60.1696 25.8131 61.0955 24.8871C62.0215 23.9611 62.5417 22.7053 62.5417 21.3958C62.5417 20.0862 62.0215 18.8304 61.0955 17.9044C60.1696 16.9785 58.9137 16.4583 57.6042 16.4583C56.2947 16.4583 55.0388 16.9785 54.1129 17.9044C53.1869 18.8304 52.6667 20.0862 52.6667 21.3958C52.6667 22.7053 53.1869 23.9611 54.1129 24.8871C55.0388 25.8131 56.2947 26.3333 57.6042 26.3333Z" fill="#F7F0E6"/>
</svg>
