<?xml version="1.0" encoding="UTF-8"?><svg id="Layer_1" xmlns="http://www.w3.org/2000/svg" width="265" height="170" viewBox="0 0 265 170"><defs><style>.cls-1{fill:#f79065;stroke-width:0px;}</style></defs><rect class="cls-1" x="122.62" y="2.72" width="25.67" height="79.47"/><polygon class="cls-1" points="189.91 3.49 156.6 2.72 156.6 82.19 197.88 82.19 197.88 66.28 177.9 66.94 189.91 3.49"/><path class="cls-1" d="M17.71,76l42.05,11.29v21.73s-11.6-3.95-11.6-3.95c-5.25-1.79-10.12,3.81-8.43,9.7h0c.01.05.03.1.04.15,2.01,6.7,9.48,8.94,14.49,4.69l3.49-2.96.06,20.81-16.08-.48.41,31.93h-25.38l.94-92.9Z"/><path class="cls-1" d="M92.62,2.72c-3.32,18.4-5.71,37.21-7.17,56.45l-2.84-30.24c-1.51-15.15-2.45-23.89-2.8-26.21h-26.66c-3.79,22.49-6.15,40.66-7.1,54.54l-2.62-26.81-2.71-27.73L.77.94l16.93,68.27,41.44,12.99h5.99c.71-8.35.23-13.76-.47-17.3-.56.28-1.1.81-2.09.76-.89-.04-2.16-.55-2.52-1.71-.34-1.1.28-2.36,0-2.57-.24-.19-.63.82-1.26.86-.89.05-2.07-1.86-1.89-3.43.2-1.68,1.84-1.91,1.89-3.43.02-.82-.44-1.18-1.26-2.57-1.06-1.82-2.17-3.7-1.89-5.14.36-1.84,2.99-3.16,5.03-2.57,1.22.35,2.15,1.35,2.52.86.37-.5-.42-1.79,0-2.57.39-.72,1.65-.71,2.52,0,1.31,1.08,1.3,3.43,1.89,3.43.47,0,.47-1.47,1.26-2.57,1.46-2.06,4.91-1.81,5.66,0,.58,1.41-.69,3.19,0,4.29.58.93,1.67-.1,2.52.86,1,1.12.96,4.21,0,6-.55,1.02-.97.83-1.26,1.71-.55,1.66.77,2.86.63,5.14-.12,1.97-1.3,4.08-2.52,4.29-1.27.21-1.65-1.79-3.15-1.71-.58.03-1,.35-1.38.72-.23,4,.06,9.48,1.86,16.68h34.89L117.56,2.72h-24.94Z"/><path class="cls-1" d="M262.88,96.31c-1.32-1.75-3.1-3.06-3.1-3.06-2.07-1.36-4.63-2.31-7.68-2.85-3.05-.54-7.64-.81-13.78-.81h-32.38v79.47c9.84-1.22,23.72-5.04,35.87-16.64,20.42-19.49,25.18-50.67,21.07-56.11ZM226.6,146.19c-6.18.95-11.74-12.92-10.47-26.18,1.08-11.24,6.76-18.83,11.96-16.36,3.65,1.73,6.74,8.26,7.48,16.36,1.1,12.09-3.27,25.3-8.97,26.18Z"/><path class="cls-1" d="M241.81,19.96c-12.15-11.6-26.03-15.42-35.87-16.64v79.47h32.38c6.14,0,10.73-.27,13.78-.81,3.05-.54,5.61-1.49,7.68-2.85,0,0,1.78-1.32,3.1-3.06,4.11-5.44-.65-36.62-21.07-56.11ZM226.13,69.35c-6.18.95-11.74-12.92-10.47-26.18,1.08-11.24,6.76-18.83,11.96-16.36,3.65,1.73,6.74,8.26,7.48,16.36,1.1,12.09-3.27,25.3-8.97,26.18Z"/><path class="cls-1" d="M73.6,149.95c-7.08-10.74-9.19-28.19-2.47-39.67,9.62-16.43,34.5-15.86,45.45,1.32,7.47,11.73,8.4,31.11-.13,42.72-10.86,14.79-32.69,11.04-42.86-4.37Z"/><path class="cls-1" d="M179.4,164.65c3.75-3.85,4.85-10.65,2.96-17.09,6.27.96,12.45-1.72,15.88-7.13,4.99-7.87,3.03-19.71-3.5-25.04-4.86-3.96-10.6-2.99-12.09-2.68,3.41-7.02,2.52-15.61-2.08-21.17-4.71-5.7-13.12-7.99-19.33-3.11-5.07,3.98-7.32,11.66-5.37,18.93-.55-.78-6.98-9.59-16.33-8.36-.92.12-8.43,1.22-10.65,7.11-2.26,5.99,1.52,15.49,10.53,20.68-7.42,3-11.41,11.62-9.6,19.17,1.52,6.34,6.88,10.86,12.72,11.11,6.32.27,12.17-4.51,14.05-11.67-.29,1.22-2.03,8.96,2.06,15.25,4.58,7.06,14.96,9.95,20.75,4.01ZM163.94,139.35c-6.41-.87-10.47-9.75-8.76-16.79,1.19-4.91,5.31-9.4,9.89-9.36,6.55.06,12.16,9.4,10.16,17.11-1.36,5.26-6.26,9.73-11.29,9.05Z"/></svg>