<?xml version="1.0" encoding="UTF-8"?><svg id="a" xmlns="http://www.w3.org/2000/svg" width="595.28" height="841.89" viewBox="0 0 595.28 841.89"><defs><style>.b{opacity:.5;stroke-width:.5px;}.b,.c,.d{fill:none;stroke:#00673a;stroke-miterlimit:10;}.e{opacity:.8;}.f{fill:#f8eb48;}.f,.g,.h,.i{stroke-width:0px;}.g{fill:#6d9142;}.h{fill:#079248;}.i{fill:#fff;}.d{stroke-width:.25px;}</style></defs><path class="i" d="m238.59,174.98c-8.25.83-6.8-5.02-.1.41-6.7-5.43,1-6.2-.54.05,1.54-6.26,7.81-1.18-.44-.35,8.25-.83,6.8,5.02.1-.41,6.7,5.43-1,6.2.54-.05-1.54,6.26-7.81,1.18.44.35Z"/><path class="d" d="m238.59,174.98c-8.25.83-6.8-5.02-.1.41-6.7-5.43,1-6.2-.54.05,1.54-6.26,7.81-1.18-.44-.35,8.25-.83,6.8,5.02.1-.41,6.7,5.43-1,6.2.54-.05-1.54,6.26-7.81,1.18.44.35Z"/><path class="i" d="m270.33,219.76c-7.2-2.36-4.99-5.92-.15.25-4.84-6.16,1.89-3.96-.47-.15,2.36-3.81,6.88,1.96-.32-.4,7.2,2.36,4.99,5.92.15-.25,4.84,6.16-1.89,3.96.47.15-2.36,3.81-6.88-1.96.32.4Z"/><path class="d" d="m270.33,219.76c-7.2-2.36-4.99-5.92-.15.25-4.84-6.16,1.89-3.96-.47-.15,2.36-3.81,6.88,1.96-.32-.4,7.2,2.36,4.99,5.92.15-.25,4.84,6.16-1.89,3.96.47.15-2.36,3.81-6.88-1.96.32.4Z"/><path class="i" d="m265.63,216.38c-5.13,1.3-6.95-4.25.13.39-7.08-4.64-2.29-5.85-.33.08-1.95-5.94,4.66-1.6-.46-.3,5.13-1.3,6.95,4.25-.13-.39,7.08,4.64,2.29,5.85.33-.08,1.95,5.94-4.66,1.6.46.3Z"/><path class="d" d="m265.63,216.38c-5.13,1.3-6.95-4.25.13.39-7.08-4.64-2.29-5.85-.33.08-1.95-5.94,4.66-1.6-.46-.3,5.13-1.3,6.95,4.25-.13-.39,7.08,4.64,2.29,5.85.33-.08,1.95,5.94-4.66,1.6.46.3Z"/><path class="i" d="m261.86,213.38c-5.34,1.04-6.89-4.43.11.38-6.99-4.81-2-5.78-.35.07-1.65-5.85,4.89-1.35-.46-.31,5.34-1.04,6.89,4.43-.11-.38,6.99,4.81,2,5.78.35-.07,1.65,5.85-4.89,1.35.46.31Z"/><path class="d" d="m261.86,213.38c-5.34,1.04-6.89-4.43.11.38-6.99-4.81-2-5.78-.35.07-1.65-5.85,4.89-1.35-.46-.31,5.34-1.04,6.89,4.43-.11-.38,6.99,4.81,2,5.78.35-.07,1.65,5.85-4.89,1.35.46.31Z"/><path class="i" d="m258.07,210.83c-6.75-5.25-1.22-5.51-.39.02-.84-5.53,5.48-.62-.44-.34,5.92-.28,6.7,4.89-.05-.36,6.75,5.25,1.22,5.51.39-.02.84,5.53-5.48.62.44.34-5.92.28-6.7-4.89.05.36Z"/><path class="d" d="m258.07,210.83c-6.75-5.25-1.22-5.51-.39.02-.84-5.53,5.48-.62-.44-.34,5.92-.28,6.7,4.89-.05-.36,6.75,5.25,1.22,5.51.39-.02.84,5.53-5.48.62.44.34-5.92.28-6.7-4.89.05.36Z"/><path class="i" d="m255.31,207.07c-2.45,3.74-6.88-2.08.31.41-7.19-2.48-4.89-5.97-.16.24-4.73-6.22,1.99-3.9-.47-.16,2.45-3.74,6.88,2.08-.31-.41,7.19,2.48,4.89,5.97.16-.24,4.73,6.22-1.99,3.9.47.16Z"/><path class="d" d="m255.31,207.07c-2.45,3.74-6.88-2.08.31.41-7.19-2.48-4.89-5.97-.16.24-4.73-6.22,1.99-3.9-.47-.16,2.45-3.74,6.88,2.08-.31-.41,7.19,2.48,4.89,5.97.16-.24,4.73,6.22-1.99,3.9.47.16Z"/><path class="i" d="m253.41,204.72c-7.2-2.36-4.99-5.92-.15.25-4.84-6.16,1.89-3.96-.47-.15,2.36-3.81,6.88,1.96-.32-.4,7.2,2.36,4.99,5.92.15-.25,4.84,6.16-1.89,3.96.47.15-2.36,3.81-6.88-1.96.32.4Z"/><path class="d" d="m253.41,204.72c-7.2-2.36-4.99-5.92-.15.25-4.84-6.16,1.89-3.96-.47-.15,2.36-3.81,6.88,1.96-.32-.4,7.2,2.36,4.99,5.92.15-.25,4.84,6.16-1.89,3.96.47.15-2.36,3.81-6.88-1.96.32.4Z"/><path class="i" d="m251.15,201.42c-7.2-2.36-4.99-5.92-.15.25-4.84-6.16,1.89-3.96-.47-.15,2.36-3.81,6.88,1.96-.32-.4,7.2,2.36,4.99,5.92.15-.25,4.84,6.16-1.89,3.96.47.15-2.36,3.81-6.88-1.96.32.4Z"/><path class="d" d="m251.15,201.42c-7.2-2.36-4.99-5.92-.15.25-4.84-6.16,1.89-3.96-.47-.15,2.36-3.81,6.88,1.96-.32-.4,7.2,2.36,4.99,5.92.15-.25,4.84,6.16-1.89,3.96.47.15-2.36,3.81-6.88-1.96.32.4Z"/><path class="i" d="m249.23,198.43c-7.2-2.36-4.99-5.92-.15.25-4.84-6.16,1.89-3.96-.47-.15,2.36-3.81,6.88,1.96-.32-.4,7.2,2.36,4.99,5.92.15-.25,4.84,6.16-1.89,3.96.47.15-2.36,3.81-6.88-1.96.32.4Z"/><path class="d" d="m249.23,198.43c-7.2-2.36-4.99-5.92-.15.25-4.84-6.16,1.89-3.96-.47-.15,2.36-3.81,6.88,1.96-.32-.4,7.2,2.36,4.99,5.92.15-.25,4.84,6.16-1.89,3.96.47.15-2.36,3.81-6.88-1.96.32.4Z"/><path class="i" d="m247.46,195.14c-7.2-2.36-4.99-5.92-.15.25-4.84-6.16,1.89-3.96-.47-.15,2.36-3.81,6.88,1.96-.32-.4,7.2,2.36,4.99,5.92.15-.25,4.84,6.16-1.89,3.96.47.15-2.36,3.81-6.88-1.96.32.4Z"/><path class="d" d="m247.46,195.14c-7.2-2.36-4.99-5.92-.15.25-4.84-6.16,1.89-3.96-.47-.15,2.36-3.81,6.88,1.96-.32-.4,7.2,2.36,4.99,5.92.15-.25,4.84,6.16-1.89,3.96.47.15-2.36,3.81-6.88-1.96.32.4Z"/><path class="i" d="m245.39,191.54c-7.2-2.36-4.99-5.92-.15.25-4.84-6.16,1.89-3.96-.47-.15,2.36-3.81,6.88,1.96-.32-.4,7.2,2.36,4.99,5.92.15-.25,4.84,6.16-1.89,3.96.47.15-2.36,3.81-6.88-1.96.32.4Z"/><path class="d" d="m245.39,191.54c-7.2-2.36-4.99-5.92-.15.25-4.84-6.16,1.89-3.96-.47-.15,2.36-3.81,6.88,1.96-.32-.4,7.2,2.36,4.99,5.92.15-.25,4.84,6.16-1.89,3.96.47.15-2.36,3.81-6.88-1.96.32.4Z"/><path class="i" d="m243.5,187.62c-7.2-2.36-4.99-5.92-.15.25-4.84-6.16,1.89-3.96-.47-.15,2.36-3.81,6.88,1.96-.32-.4,7.2,2.36,4.99,5.92.15-.25,4.84,6.16-1.89,3.96.47.15-2.36,3.81-6.88-1.96.32.4Z"/><path class="d" d="m243.5,187.62c-7.2-2.36-4.99-5.92-.15.25-4.84-6.16,1.89-3.96-.47-.15,2.36-3.81,6.88,1.96-.32-.4,7.2,2.36,4.99,5.92.15-.25,4.84,6.16-1.89,3.96.47.15-2.36,3.81-6.88-1.96.32.4Z"/><path class="i" d="m240.88,182.84c-7.2-2.36-4.99-5.92-.15.25-4.84-6.16,1.89-3.96-.47-.15,2.36-3.81,6.88,1.96-.32-.4,7.2,2.36,4.99,5.92.15-.25,4.84,6.16-1.89,3.96.47.15-2.36,3.81-6.88-1.96.32.4Z"/><path class="d" d="m240.88,182.84c-7.2-2.36-4.99-5.92-.15.25-4.84-6.16,1.89-3.96-.47-.15,2.36-3.81,6.88,1.96-.32-.4,7.2,2.36,4.99,5.92.15-.25,4.84,6.16-1.89,3.96.47.15-2.36,3.81-6.88-1.96.32.4Z"/><path class="i" d="m240.23,179.06c-7.2-2.36-4.99-5.92-.15.25-4.84-6.16,1.89-3.96-.47-.15,2.36-3.81,6.88,1.96-.32-.4,7.2,2.36,4.99,5.92.15-.25,4.84,6.16-1.89,3.96.47.15-2.36,3.81-6.88-1.96.32.4Z"/><path class="d" d="m240.23,179.06c-7.2-2.36-4.99-5.92-.15.25-4.84-6.16,1.89-3.96-.47-.15,2.36-3.81,6.88,1.96-.32-.4,7.2,2.36,4.99,5.92.15-.25,4.84,6.16-1.89,3.96.47.15-2.36,3.81-6.88-1.96.32.4Z"/><ellipse class="f" cx="269.87" cy="219.6" rx=".48" ry=".69" transform="translate(-31.67 393.19) rotate(-69.06)"/><ellipse class="f" cx="250.76" cy="201.39" rx=".48" ry=".69" transform="translate(-26.94 363.63) rotate(-69.06)"/><ellipse class="f" cx="248.95" cy="198.45" rx=".48" ry=".69" transform="translate(-25.36 360.05) rotate(-69.06)"/><ellipse class="f" cx="246.99" cy="194.98" rx=".48" ry=".69" transform="translate(-23.37 356) rotate(-69.06)"/><ellipse class="f" cx="244.92" cy="191.39" rx=".48" ry=".69" transform="translate(-21.35 351.75) rotate(-69.06)"/><ellipse class="f" cx="243.03" cy="187.47" rx=".48" ry=".69" transform="translate(-18.9 347.47) rotate(-69.06)"/><ellipse class="f" cx="240.44" cy="182.73" rx=".48" ry=".69" transform="translate(-16.14 342.01) rotate(-69.06)"/><ellipse class="f" cx="238.05" cy="175.03" rx=".48" ry=".69" transform="translate(-10.49 334.83) rotate(-69.06)"/><path class="i" d="m238.04,171.9c-8.08-4.05-1.48-6.56-.46.18-1.02-6.73,6.54-2.95-.53-.26,7.07-2.69,8.02,3.61-.07-.44,8.08,4.05,1.48,6.56.46-.18,1.02,6.73-6.54,2.95.53.26-7.07,2.69-8.02-3.61.07.44Z"/><path class="d" d="m238.04,171.9c-8.08-4.05-1.48-6.56-.46.18-1.02-6.73,6.54-2.95-.53-.26,7.07-2.69,8.02,3.61-.07-.44,8.08,4.05,1.48,6.56.46-.18,1.02,6.73-6.54,2.95.53.26-7.07,2.69-8.02-3.61.07.44Z"/><ellipse class="f" cx="237.51" cy="171.63" rx=".48" ry=".69" transform="translate(-7.66 332.14) rotate(-69.06)"/><ellipse class="f" cx="253" cy="204.55" rx=".48" ry=".69" transform="translate(-28.45 367.76) rotate(-69.06)"/><ellipse class="f" cx="255.15" cy="207.32" rx=".48" ry=".69" transform="translate(-29.65 371.54) rotate(-69.06)"/><ellipse class="f" cx="257.63" cy="210.49" rx=".48" ry=".69" transform="translate(-31.02 375.91) rotate(-69.06)"/><ellipse class="f" cx="261.57" cy="213.48" rx=".48" ry=".69" transform="translate(-31.28 381.51) rotate(-69.06)"/><ellipse class="f" cx="265.3" cy="216.47" rx=".48" ry=".69" transform="translate(-31.67 386.91) rotate(-69.06)"/><path class="i" d="m178.71,138.33c-15.07.37-9.1-8.66-.42.63-8.68-9.29,5.41-9.63-.98.02,6.39-9.66,14.51-.97-.57-.61,15.07-.37,9.1,8.66.42-.63,8.68,9.29-5.41,9.63.98-.02-6.39,9.66-14.51.97.57.61Z"/><path class="d" d="m178.71,138.33c-15.07.37-9.1-8.66-.42.63-8.68-9.29,5.41-9.63-.98.02,6.39-9.66,14.51-.97-.57-.61,15.07-.37,9.1,8.66.42-.63,8.68,9.29-5.41,9.63.98-.02-6.39,9.66-14.51.97.57.61Z"/><path class="i" d="m208.67,212.28c-11.35-4.52-5.37-9.86-.42.37-4.96-10.23,5.66-6.01-.74-.29,6.4-5.71,11.03,3.85-.32-.67,11.35,4.52,5.37,9.86.42-.37,4.96,10.23-5.66,6.01.74.29-6.4,5.71-11.03-3.85.32.67Z"/><path class="d" d="m208.67,212.28c-11.35-4.52-5.37-9.86-.42.37-4.96-10.23,5.66-6.01-.74-.29,6.4-5.71,11.03,3.85-.32-.67,11.35,4.52,5.37,9.86.42-.37,4.96,10.23-5.66,6.01.74.29-6.4,5.71-11.03-3.85.32.67Z"/><path class="i" d="m202.32,206.44c-9.83,1.46-9.81-7.47,0,.62-9.81-8.09-.62-9.45-.64.1.02-9.55,9.19-1.98-.64-.53,9.83-1.46,9.81,7.47,0-.62,9.81,8.09.62,9.45.64-.1-.02,9.55-9.19,1.98.64.53Z"/><path class="d" d="m202.32,206.44c-9.83,1.46-9.81-7.47,0,.62-9.81-8.09-.62-9.45-.64.1.02-9.55,9.19-1.98-.64-.53,9.83-1.46,9.81,7.47,0-.62,9.81,8.09.62,9.45.64-.1-.02,9.55-9.19,1.98.64.53Z"/><path class="i" d="m197.4,201.3c-10.06,1.03-9.59-7.74-.03.61-9.56-8.35-.16-9.31-.66.07.5-9.37,9.43-1.57-.62-.54,10.06-1.03,9.59,7.74.03-.61,9.56,8.35.16,9.31.66-.07-.5,9.37-9.43,1.57.62.54Z"/><path class="d" d="m197.4,201.3c-10.06,1.03-9.59-7.74-.03.61-9.56-8.35-.16-9.31-.66.07.5-9.37,9.43-1.57-.62-.54,10.06-1.03,9.59,7.74.03-.61,9.56,8.35.16,9.31.66-.07-.5,9.37-9.43,1.57.62.54Z"/><path class="i" d="m192.2,196.87c-8.88-9.01,1.06-8.8-.69-.02,1.76-8.78,10.05-.36-.58-.59,10.63.23,8.99,8.44.11-.57,8.88,9.01-1.06,8.8.69.02-1.76,8.78-10.05.36.58.59-10.63-.23-8.99-8.44-.11.57Z"/><path class="d" d="m192.2,196.87c-8.88-9.01,1.06-8.8-.69-.02,1.76-8.78,10.05-.36-.58-.59,10.63.23,8.99,8.44.11-.57,8.88,9.01-1.06,8.8.69.02-1.76,8.78-10.05.36.58.59-10.63-.23-8.99-8.44-.11.57Z"/><path class="i" d="m189.5,190.65c-6.53,5.59-10.96-4.04.31.67-11.27-4.71-5.16-9.94-.43.36-4.74-10.31,5.79-5.9-.73-.31,6.53-5.59,10.96,4.04-.31-.67,11.27,4.71,5.16,9.94.43-.36,4.74,10.31-5.79,5.9.73.31Z"/><path class="d" d="m189.5,190.65c-6.53,5.59-10.96-4.04.31.67-11.27-4.71-5.16-9.94-.43.36-4.74-10.31,5.79-5.9-.73-.31,6.53-5.59,10.96,4.04-.31-.67,11.27,4.71,5.16,9.94.43-.36,4.74,10.31-5.79,5.9.73.31Z"/><path class="i" d="m187.53,186.73c-11.35-4.52-5.37-9.86-.42.37-4.96-10.23,5.66-6.01-.74-.29,6.4-5.71,11.03,3.85-.32-.67,11.35,4.52,5.37,9.86.42-.37,4.96,10.23-5.66,6.01.74.29-6.4,5.71-11.03-3.85.32.67Z"/><path class="d" d="m187.53,186.73c-11.35-4.52-5.37-9.86-.42.37-4.96-10.23,5.66-6.01-.74-.29,6.4-5.71,11.03,3.85-.32-.67,11.35,4.52,5.37,9.86.42-.37,4.96,10.23-5.66,6.01.74.29-6.4,5.71-11.03-3.85.32.67Z"/><path class="i" d="m185.45,181.3c-11.35-4.52-5.37-9.86-.42.37-4.96-10.23,5.66-6.01-.74-.29,6.4-5.71,11.03,3.85-.32-.67,11.35,4.52,5.37,9.86.42-.37,4.96,10.23-5.66,6.01.74.29-6.4,5.71-11.03-3.85.32.67Z"/><path class="d" d="m185.45,181.3c-11.35-4.52-5.37-9.86-.42.37-4.96-10.23,5.66-6.01-.74-.29,6.4-5.71,11.03,3.85-.32-.67,11.35,4.52,5.37,9.86.42-.37,4.96,10.23-5.66,6.01.74.29-6.4,5.71-11.03-3.85.32.67Z"/><path class="i" d="m183.81,176.38c-11.35-4.52-5.37-9.86-.42.37-4.96-10.23,5.66-6.01-.74-.29,6.4-5.71,11.03,3.85-.32-.67,11.35,4.52,5.37,9.86.42-.37,4.96,10.23-5.66,6.01.74.29-6.4,5.71-11.03-3.85.32.67Z"/><path class="d" d="m183.81,176.38c-11.35-4.52-5.37-9.86-.42.37-4.96-10.23,5.66-6.01-.74-.29,6.4-5.71,11.03,3.85-.32-.67,11.35,4.52,5.37,9.86.42-.37,4.96,10.23-5.66,6.01.74.29-6.4,5.71-11.03-3.85.32.67Z"/><path class="i" d="m182.61,171c-11.35-4.52-5.37-9.86-.42.37-4.96-10.23,5.66-6.01-.74-.29,6.4-5.71,11.03,3.85-.32-.67,11.35,4.52,5.37,9.86.42-.37,4.96,10.23-5.66,6.01.74.29-6.4,5.71-11.03-3.85.32.67Z"/><path class="d" d="m182.61,171c-11.35-4.52-5.37-9.86-.42.37-4.96-10.23,5.66-6.01-.74-.29,6.4-5.71,11.03,3.85-.32-.67,11.35,4.52,5.37,9.86.42-.37,4.96,10.23-5.66,6.01.74.29-6.4,5.71-11.03-3.85.32.67Z"/><path class="i" d="m181.04,165.12c-11.35-4.52-5.37-9.86-.42.37-4.96-10.23,5.66-6.01-.74-.29,6.4-5.71,11.03,3.85-.32-.67,11.35,4.52,5.37,9.86.42-.37,4.96,10.23-5.66,6.01.74.29-6.4,5.71-11.03-3.85.32.67Z"/><path class="d" d="m181.04,165.12c-11.35-4.52-5.37-9.86-.42.37-4.96-10.23,5.66-6.01-.74-.29,6.4-5.71,11.03,3.85-.32-.67,11.35,4.52,5.37,9.86.42-.37,4.96,10.23-5.66,6.01.74.29-6.4,5.71-11.03-3.85.32.67Z"/><path class="i" d="m180,158.75c-11.35-4.52-5.37-9.86-.42.37-4.96-10.23,5.66-6.01-.74-.29,6.4-5.71,11.03,3.85-.32-.67,11.35,4.52,5.37,9.86.42-.37,4.96,10.23-5.66,6.01.74.29-6.4,5.71-11.03-3.85.32.67Z"/><path class="d" d="m180,158.75c-11.35-4.52-5.37-9.86-.42.37-4.96-10.23,5.66-6.01-.74-.29,6.4-5.71,11.03,3.85-.32-.67,11.35,4.52,5.37,9.86.42-.37,4.96,10.23-5.66,6.01.74.29-6.4,5.71-11.03-3.85.32.67Z"/><path class="i" d="m178.16,150.94c-11.35-4.52-5.37-9.86-.42.37-4.96-10.23,5.66-6.01-.74-.29,6.4-5.71,11.03,3.85-.32-.67,11.35,4.52,5.37,9.86.42-.37,4.96,10.23-5.66,6.01.74.29-6.4,5.71-11.03-3.85.32.67Z"/><path class="d" d="m178.16,150.94c-11.35-4.52-5.37-9.86-.42.37-4.96-10.23,5.66-6.01-.74-.29,6.4-5.71,11.03,3.85-.32-.67,11.35,4.52,5.37,9.86.42-.37,4.96,10.23-5.66,6.01.74.29-6.4,5.71-11.03-3.85.32.67Z"/><path class="i" d="m179.23,144.92c-11.35-4.52-5.37-9.86-.42.37-4.96-10.23,5.66-6.01-.74-.29,6.4-5.71,11.03,3.85-.32-.67,11.35,4.52,5.37,9.86.42-.37,4.96,10.23-5.66,6.01.74.29-6.4,5.71-11.03-3.85.32.67Z"/><path class="d" d="m179.23,144.92c-11.35-4.52-5.37-9.86-.42.37-4.96-10.23,5.66-6.01-.74-.29,6.4-5.71,11.03,3.85-.32-.67,11.35,4.52,5.37,9.86.42-.37,4.96,10.23-5.66,6.01.74.29-6.4,5.71-11.03-3.85.32.67Z"/><ellipse class="f" cx="207.93" cy="211.98" rx=".83" ry="1.14" transform="translate(-22.37 399.41) rotate(-84.69)"/><ellipse class="f" cx="184.78" cy="181.2" rx=".83" ry="1.14" transform="translate(-12.73 348.43) rotate(-84.69)"/><ellipse class="f" cx="183.29" cy="176.38" rx=".83" ry="1.14" transform="translate(-9.28 342.58) rotate(-84.69)"/><ellipse class="f" cx="181.87" cy="170.71" rx=".83" ry="1.14" transform="translate(-4.92 336.01) rotate(-84.69)"/><ellipse class="f" cx="180.3" cy="164.82" rx=".83" ry="1.14" transform="translate(-.49 329.11) rotate(-84.69)"/><ellipse class="f" cx="179.26" cy="158.45" rx=".83" ry="1.14" transform="translate(4.91 322.29) rotate(-84.69)"/><ellipse class="f" cx="177.45" cy="150.72" rx=".83" ry="1.14" transform="translate(10.97 313.47) rotate(-84.69)"/><ellipse class="f" cx="177.73" cy="138.36" rx=".83" ry="1.14" transform="translate(23.53 302.53) rotate(-84.69)"/><path class="i" d="m179.54,133.43c-11.93-7.28,1.22-10.47-.92.22,2.14-10.69,13.3-3.89-.78-.47,14.07-3.42,12.07,6.58.14-.7,11.93,7.28-1.22,10.47.92-.22-2.14,10.69-13.3,3.89.78.47-14.07,3.42-12.07-6.58-.14.7Z"/><path class="d" d="m179.54,133.43c-11.93-7.28,1.22-10.47-.92.22,2.14-10.69,13.3-3.89-.78-.47,14.07-3.42,12.07,6.58.14-.7,11.93,7.28-1.22,10.47.92-.22-2.14,10.69-13.3,3.89.78.47-14.07,3.42-12.07-6.58-.14.7Z"/><ellipse class="f" cx="178.76" cy="132.95" rx=".83" ry="1.14" transform="translate(29.85 298.65) rotate(-84.69)"/><ellipse class="f" cx="186.89" cy="186.42" rx=".83" ry="1.14" transform="translate(-16.01 355.27) rotate(-84.69)"/><ellipse class="f" cx="189.07" cy="191.01" rx=".83" ry="1.14" transform="translate(-18.6 361.61) rotate(-84.69)"/><ellipse class="f" cx="191.62" cy="196.28" rx=".83" ry="1.14" transform="translate(-21.54 368.93) rotate(-84.69)"/><ellipse class="f" cx="196.83" cy="201.43" rx=".83" ry="1.14" transform="translate(-21.94 378.79) rotate(-84.69)"/><ellipse class="f" cx="201.68" cy="206.54" rx=".83" ry="1.14" transform="translate(-22.62 388.26) rotate(-84.69)"/><g class="e"><path class="h" d="m250.75,385.42c20.63-43.65,38.71-92,35.36-140.99-.62-6.94-1.75-13.82-3.43-20.57l2.38-.66c1.94,6.86,3.21,13.88,3.97,20.96,3.24,35.48-5.96,70.88-18.79,103.7-5.32,13.09-11.36,25.91-18.64,38.03,0,0-.85-.48-.85-.48h0Z"/></g><path class="i" d="m263.87,237.82c10.44,9.95-2.52,13.66.9-.26-3.42,13.92-13.18,4.62.68.65-13.86,3.97-10.66-9.04-.22.91-10.44-9.95,2.52-13.66-.9.26,3.42-13.92,13.18-4.62-.68-.65,13.86-3.97,10.66,9.04.22-.91Z"/><path class="d" d="m263.87,237.82c10.44,9.95-2.52,13.66.9-.26-3.42,13.92-13.18,4.62.68.65-13.86,3.97-10.66-9.04-.22.91-10.44-9.95,2.52-13.66-.9.26,3.42-13.92,13.18-4.62-.68-.65,13.86-3.97,10.66,9.04.22-.91Z"/><path class="i" d="m255.32,230.45c10.44,9.95-2.52,13.66.9-.26-3.42,13.92-13.18,4.62.68.65-13.86,3.97-10.66-9.04-.22.91-10.44-9.95,2.52-13.66-.9.26,3.42-13.92,13.18-4.62-.68-.65,13.86-3.97,10.66,9.04.22-.91Z"/><path class="d" d="m255.32,230.45c10.44,9.95-2.52,13.66.9-.26-3.42,13.92-13.18,4.62.68.65-13.86,3.97-10.66-9.04-.22.91-10.44-9.95,2.52-13.66-.9.26,3.42-13.92,13.18-4.62-.68-.65,13.86-3.97,10.66,9.04.22-.91Z"/><path class="c" d="m286.89,268.66s-19.56-130.64-62.08-141.58"/><path class="i" d="m110.17,204.11c10.44,9.95-2.52,13.66.9-.26-3.42,13.92-13.18,4.62.68.65-13.86,3.97-10.66-9.04-.22.91-10.44-9.95,2.52-13.66-.9.26,3.42-13.92,13.18-4.62-.68-.65,13.86-3.97,10.66,9.04.22-.91Z"/><path class="d" d="m110.17,204.11c10.44,9.95-2.52,13.66.9-.26-3.42,13.92-13.18,4.62.68.65-13.86,3.97-10.66-9.04-.22.91-10.44-9.95,2.52-13.66-.9.26,3.42-13.92,13.18-4.62-.68-.65,13.86-3.97,10.66,9.04.22-.91Z"/><path class="i" d="m135.19,193.47c10.44,9.95-2.52,13.66.9-.26-3.42,13.92-13.18,4.62.68.65-13.86,3.97-10.66-9.04-.22.91-10.44-9.95,2.52-13.66-.9.26,3.42-13.92,13.18-4.62-.68-.65,13.86-3.97,10.66,9.04.22-.91Z"/><path class="d" d="m135.19,193.47c10.44,9.95-2.52,13.66.9-.26-3.42,13.92-13.18,4.62.68.65-13.86,3.97-10.66-9.04-.22.91-10.44-9.95,2.52-13.66-.9.26,3.42-13.92,13.18-4.62-.68-.65,13.86-3.97,10.66,9.04.22-.91Z"/><path class="i" d="m148.68,195.37c12.19,7.71.21,13.89.84-.43-.63,14.32-12.02,7.11.79.5-12.82,6.61-12.23-6.78-.04.93-12.19-7.71-.21-13.89-.84.43.63-14.32,12.02-7.11-.79-.5,12.82-6.61,12.23,6.78.04-.93Z"/><path class="d" d="m148.68,195.37c12.19,7.71.21,13.89.84-.43-.63,14.32-12.02,7.11.79.5-12.82,6.61-12.23-6.78-.04.93-12.19-7.71-.21-13.89-.84.43.63-14.32,12.02-7.11-.79-.5,12.82-6.61,12.23,6.78.04-.93Z"/><path class="i" d="m160.11,195.91c12.51,7.17.82,13.87.82-.47,0,14.34-11.7,7.64.82.47-12.51,7.17-12.51-6.23,0,.93-12.51-7.17-.82-13.87-.82.47,0-14.34,11.7-7.64-.82-.47,12.51-7.17,12.51,6.23,0-.93Z"/><path class="d" d="m160.11,195.91c12.51,7.17.82,13.87.82-.47,0,14.34-11.7,7.64.82.47-12.51,7.17-12.51-6.23,0,.93-12.51-7.17-.82-13.87-.82.47,0-14.34,11.7-7.64-.82-.47,12.51-7.17,12.51,6.23,0-.93Z"/><path class="i" d="m171.77,199.03c10.44,9.95-2.52,13.66.9-.26-3.42,13.92-13.18,4.62.68.65-13.86,3.97-10.66-9.04-.22.91-10.44-9.95,2.52-13.66-.9.26,3.42-13.92,13.18-4.62-.68-.65,13.86-3.97,10.66,9.04.22-.91Z"/><path class="d" d="m171.77,199.03c10.44,9.95-2.52,13.66.9-.26-3.42,13.92-13.18,4.62.68.65-13.86,3.97-10.66-9.04-.22.91-10.44-9.95,2.52-13.66-.9.26,3.42-13.92,13.18-4.62-.68-.65,13.86-3.97,10.66,9.04.22-.91Z"/><path class="i" d="m181.95,204.11c10.44,9.95-2.52,13.66.9-.26-3.42,13.92-13.18,4.62.68.65-13.86,3.97-10.66-9.04-.22.91-10.44-9.95,2.52-13.66-.9.26,3.42-13.92,13.18-4.62-.68-.65,13.86-3.97,10.66,9.04.22-.91Z"/><path class="d" d="m181.95,204.11c10.44,9.95-2.52,13.66.9-.26-3.42,13.92-13.18,4.62.68.65-13.86,3.97-10.66-9.04-.22.91-10.44-9.95,2.52-13.66-.9.26,3.42-13.92,13.18-4.62-.68-.65,13.86-3.97,10.66,9.04.22-.91Z"/><path class="i" d="m195.69,205.98c5.48,13.34-7.87,11.45.93.13-8.8,11.32-13.92-1.15.36.87-14.28-2.02-6.05-12.6-.57.74-5.48-13.34,7.87-11.45-.93-.13,8.8-11.32,13.92,1.15-.36-.87,14.28,2.02,6.05,12.6.57-.74Z"/><path class="d" d="m195.69,205.98c5.48,13.34-7.87,11.45.93.13-8.8,11.32-13.92-1.15.36.87-14.28-2.02-6.05-12.6-.57.74-5.48-13.34,7.87-11.45-.93-.13,8.8-11.32,13.92,1.15-.36-.87,14.28,2.02,6.05,12.6.57-.74Z"/><path class="i" d="m205.73,212.62c12.51,7.17.82,13.87.82-.47,0,14.34-11.7,7.64.82.47-12.51,7.17-12.51-6.23,0,.93-12.51-7.17-.82-13.87-.82.47,0-14.34,11.7-7.64-.82-.47,12.51-7.17,12.51,6.23,0-.93Z"/><path class="d" d="m205.73,212.62c12.51,7.17.82,13.87.82-.47,0,14.34-11.7,7.64.82.47-12.51,7.17-12.51-6.23,0,.93-12.51-7.17-.82-13.87-.82.47,0-14.34,11.7-7.64-.82-.47,12.51-7.17,12.51,6.23,0-.93Z"/><path class="i" d="m123.17,196.8c10.44,9.95-2.52,13.66.9-.26-3.42,13.92-13.18,4.62.68.65-13.86,3.97-10.66-9.04-.22.91-10.44-9.95,2.52-13.66-.9.26,3.42-13.92,13.18-4.62-.68-.65,13.86-3.97,10.66,9.04.22-.91Z"/><path class="d" d="m123.17,196.8c10.44,9.95-2.52,13.66.9-.26-3.42,13.92-13.18,4.62.68.65-13.86,3.97-10.66-9.04-.22.91-10.44-9.95,2.52-13.66-.9.26,3.42-13.92,13.18-4.62-.68-.65,13.86-3.97,10.66,9.04.22-.91Z"/><path class="i" d="m226.75,221.91c3.78,13.92-9.23,10.38.91.25-10.14,10.14-13.67-2.87.25.91-13.92-3.78-4.44-13.26-.66.66-3.78-13.92,9.23-10.38-.91-.25,10.14-10.14,13.67,2.87-.25-.91,13.92,3.78,4.44,13.26.66-.66Z"/><path class="d" d="m226.75,221.91c3.78,13.92-9.23,10.38.91.25-10.14,10.14-13.67-2.87.25.91-13.92-3.78-4.44-13.26-.66.66-3.78-13.92,9.23-10.38-.91-.25,10.14-10.14,13.67,2.87-.25-.91,13.92,3.78,4.44,13.26.66-.66Z"/><path class="i" d="m216.48,217.41c10.44,9.95-2.52,13.66.9-.26-3.42,13.92-13.18,4.62.68.65-13.86,3.97-10.66-9.04-.22.91-10.44-9.95,2.52-13.66-.9.26,3.42-13.92,13.18-4.62-.68-.65,13.86-3.97,10.66,9.04.22-.91Z"/><path class="d" d="m216.48,217.41c10.44,9.95-2.52,13.66.9-.26-3.42,13.92-13.18,4.62.68.65-13.86,3.97-10.66-9.04-.22.91-10.44-9.95,2.52-13.66-.9.26,3.42-13.92,13.18-4.62-.68-.65,13.86-3.97,10.66,9.04.22-.91Z"/><path class="i" d="m235.42,228.61c10.44,9.95-2.52,13.66.9-.26-3.42,13.92-13.18,4.62.68.65-13.86,3.97-10.66-9.04-.22.91-10.44-9.95,2.52-13.66-.9.26,3.42-13.92,13.18-4.62-.68-.65,13.86-3.97,10.66,9.04.22-.91Z"/><path class="d" d="m235.42,228.61c10.44,9.95-2.52,13.66.9-.26-3.42,13.92-13.18,4.62.68.65-13.86,3.97-10.66-9.04-.22.91-10.44-9.95,2.52-13.66-.9.26,3.42-13.92,13.18-4.62-.68-.65,13.86-3.97,10.66,9.04.22-.91Z"/><path class="i" d="m253.85,240.78c10.44,9.95-2.52,13.66.9-.26-3.42,13.92-13.18,4.62.68.65-13.86,3.97-10.66-9.04-.22.91-10.44-9.95,2.52-13.66-.9.26,3.42-13.92,13.18-4.62-.68-.65,13.86-3.97,10.66,9.04.22-.91Z"/><path class="d" d="m253.85,240.78c10.44,9.95-2.52,13.66.9-.26-3.42,13.92-13.18,4.62.68.65-13.86,3.97-10.66-9.04-.22.91-10.44-9.95,2.52-13.66-.9.26,3.42-13.92,13.18-4.62-.68-.65,13.86-3.97,10.66,9.04.22-.91Z"/><path class="i" d="m246.59,234.72c10.44,9.95-2.52,13.66.9-.26-3.42,13.92-13.18,4.62.68.65-13.86,3.97-10.66-9.04-.22.91-10.44-9.95,2.52-13.66-.9.26,3.42-13.92,13.18-4.62-.68-.65,13.86-3.97,10.66,9.04.22-.91Z"/><path class="d" d="m246.59,234.72c10.44,9.95-2.52,13.66.9-.26-3.42,13.92-13.18,4.62.68.65-13.86,3.97-10.66-9.04-.22.91-10.44-9.95,2.52-13.66-.9.26,3.42-13.92,13.18-4.62-.68-.65,13.86-3.97,10.66,9.04.22-.91Z"/><path class="i" d="m263.87,246.83c10.44,9.95-2.52,13.66.9-.26-3.42,13.92-13.18,4.62.68.65-13.86,3.97-10.66-9.04-.22.91-10.44-9.95,2.52-13.66-.9.26,3.42-13.92,13.18-4.62-.68-.65,13.86-3.97,10.66,9.04.22-.91Z"/><path class="d" d="m263.87,246.83c10.44,9.95-2.52,13.66.9-.26-3.42,13.92-13.18,4.62.68.65-13.86,3.97-10.66-9.04-.22.91-10.44-9.95,2.52-13.66-.9.26,3.42-13.92,13.18-4.62-.68-.65,13.86-3.97,10.66,9.04.22-.91Z"/><path class="i" d="m272.57,252.81c10.44,9.95-2.52,13.66.9-.26-3.42,13.92-13.18,4.62.68.65-13.86,3.97-10.66-9.04-.22.91-10.44-9.95,2.52-13.66-.9.26,3.42-13.92,13.18-4.62-.68-.65,13.86-3.97,10.66,9.04.22-.91Z"/><path class="d" d="m272.57,252.81c10.44,9.95-2.52,13.66.9-.26-3.42,13.92-13.18,4.62.68.65-13.86,3.97-10.66-9.04-.22.91-10.44-9.95,2.52-13.66-.9.26,3.42-13.92,13.18-4.62-.68-.65,13.86-3.97,10.66,9.04.22-.91Z"/><path class="i" d="m281.32,258.82c8.4,7.52-1.82,10.11.71-.18-2.53,10.29-10.38,3.26.55.49-10.93,2.77-8.56-6.85-.17.67-8.4-7.52,1.82-10.11-.71.18,2.53-10.29,10.38-3.26-.55-.49,10.93-2.77,8.56,6.85.17-.67Z"/><path class="d" d="m281.32,258.82c8.4,7.52-1.82,10.11.71-.18-2.53,10.29-10.38,3.26.55.49-10.93,2.77-8.56-6.85-.17.67-8.4-7.52,1.82-10.11-.71.18,2.53-10.29,10.38-3.26-.55-.49,10.93-2.77,8.56,6.85.17-.67Z"/><path class="i" d="m231.32,182.88c10.44,9.95-2.52,13.66.9-.26-3.42,13.92-13.18,4.62.68.65-13.86,3.97-10.66-9.04-.22.91-10.44-9.95,2.52-13.66-.9.26,3.42-13.92,13.18-4.62-.68-.65,13.86-3.97,10.66,9.04.22-.91Z"/><path class="d" d="m231.32,182.88c10.44,9.95-2.52,13.66.9-.26-3.42,13.92-13.18,4.62.68.65-13.86,3.97-10.66-9.04-.22.91-10.44-9.95,2.52-13.66-.9.26,3.42-13.92,13.18-4.62-.68-.65,13.86-3.97,10.66,9.04.22-.91Z"/><path class="i" d="m232.13,192.54c13.69,4.53,3.57,13.43.71-.62,2.86,14.05-9.94,9.81.89.3-10.83,9.52-13.5-3.61.19.92-13.69-4.53-3.57-13.43-.71.62-2.86-14.05,9.94-9.81-.89-.3,10.83-9.52,13.5,3.61-.19-.92Z"/><path class="d" d="m232.13,192.54c13.69,4.53,3.57,13.43.71-.62,2.86,14.05-9.94,9.81.89.3-10.83,9.52-13.5-3.61.19.92-13.69-4.53-3.57-13.43-.71.62-2.86-14.05,9.94-9.81-.89-.3,10.83-9.52,13.5,3.61-.19-.92Z"/><path class="i" d="m236.96,201.78c1,14.39-11.08,8.39.84.42-11.92,7.97-12.85-5.48.06.94-12.91-6.42-1.77-13.87-.78.52-1-14.39,11.08-8.39-.84-.42,11.92-7.97,12.85,5.48-.06-.94,12.91,6.42,1.77,13.87.78-.52Z"/><path class="d" d="m236.96,201.78c1,14.39-11.08,8.39.84.42-11.92,7.97-12.85-5.48.06.94-12.91-6.42-1.77-13.87-.78.52-1-14.39,11.08-8.39-.84-.42,11.92-7.97,12.85,5.48-.06-.94,12.91,6.42,1.77,13.87.78-.52Z"/><path class="i" d="m239.81,210.75c10.44,9.95-2.52,13.66.9-.26-3.42,13.92-13.18,4.62.68.65-13.86,3.97-10.66-9.04-.22.91-10.44-9.95,2.52-13.66-.9.26,3.42-13.92,13.18-4.62-.68-.65,13.86-3.97,10.66,9.04.22-.91Z"/><path class="d" d="m239.81,210.75c10.44,9.95-2.52,13.66.9-.26-3.42,13.92-13.18,4.62.68.65-13.86,3.97-10.66-9.04-.22.91-10.44-9.95,2.52-13.66-.9.26,3.42-13.92,13.18-4.62-.68-.65,13.86-3.97,10.66,9.04.22-.91Z"/><path class="i" d="m247.74,219.12c10.44,9.95-2.52,13.66.9-.26-3.42,13.92-13.18,4.62.68.65-13.86,3.97-10.66-9.04-.22.91-10.44-9.95,2.52-13.66-.9.26,3.42-13.92,13.18-4.62-.68-.65,13.86-3.97,10.66,9.04.22-.91Z"/><path class="d" d="m247.74,219.12c10.44,9.95-2.52,13.66.9-.26-3.42,13.92-13.18,4.62.68.65-13.86,3.97-10.66-9.04-.22.91-10.44-9.95,2.52-13.66-.9.26,3.42-13.92,13.18-4.62-.68-.65,13.86-3.97,10.66,9.04.22-.91Z"/><path class="i" d="m226.31,126.44c10.44,9.95-2.52,13.66.9-.26-3.42,13.92-13.18,4.62.68.65-13.86,3.97-10.66-9.04-.22.91-10.44-9.95,2.52-13.66-.9.26,3.42-13.92,13.18-4.62-.68-.65,13.86-3.97,10.66,9.04.22-.91Z"/><path class="d" d="m226.31,126.44c10.44,9.95-2.52,13.66.9-.26-3.42,13.92-13.18,4.62.68.65-13.86,3.97-10.66-9.04-.22.91-10.44-9.95,2.52-13.66-.9.26,3.42-13.92,13.18-4.62-.68-.65,13.86-3.97,10.66,9.04.22-.91Z"/><path class="i" d="m235.42,132.09c10.44,9.95-2.52,13.66.9-.26-3.42,13.92-13.18,4.62.68.65-13.86,3.97-10.66-9.04-.22.91-10.44-9.95,2.52-13.66-.9.26,3.42-13.92,13.18-4.62-.68-.65,13.86-3.97,10.66,9.04.22-.91Z"/><path class="d" d="m235.42,132.09c10.44,9.95-2.52,13.66.9-.26-3.42,13.92-13.18,4.62.68.65-13.86,3.97-10.66-9.04-.22.91-10.44-9.95,2.52-13.66-.9.26,3.42-13.92,13.18-4.62-.68-.65,13.86-3.97,10.66,9.04.22-.91Z"/><path class="i" d="m241.51,138.37c10.44,9.95-2.52,13.66.9-.26-3.42,13.92-13.18,4.62.68.65-13.86,3.97-10.66-9.04-.22.91-10.44-9.95,2.52-13.66-.9.26,3.42-13.92,13.18-4.62-.68-.65,13.86-3.97,10.66,9.04.22-.91Z"/><path class="d" d="m241.51,138.37c10.44,9.95-2.52,13.66.9-.26-3.42,13.92-13.18,4.62.68.65-13.86,3.97-10.66-9.04-.22.91-10.44-9.95,2.52-13.66-.9.26,3.42-13.92,13.18-4.62-.68-.65,13.86-3.97,10.66,9.04.22-.91Z"/><path class="i" d="m247.74,146.32c10.44,9.95-2.52,13.66.9-.26-3.42,13.92-13.18,4.62.68.65-13.86,3.97-10.66-9.04-.22.91-10.44-9.95,2.52-13.66-.9.26,3.42-13.92,13.18-4.62-.68-.65,13.86-3.97,10.66,9.04.22-.91Z"/><path class="d" d="m247.74,146.32c10.44,9.95-2.52,13.66.9-.26-3.42,13.92-13.18,4.62.68.65-13.86,3.97-10.66-9.04-.22.91-10.44-9.95,2.52-13.66-.9.26,3.42-13.92,13.18-4.62-.68-.65,13.86-3.97,10.66,9.04.22-.91Z"/><path class="i" d="m253.72,154.2c10.44,9.95-2.52,13.66.9-.26-3.42,13.92-13.18,4.62.68.65-13.86,3.97-10.66-9.04-.22.91-10.44-9.95,2.52-13.66-.9.26,3.42-13.92,13.18-4.62-.68-.65,13.86-3.97,10.66,9.04.22-.91Z"/><path class="d" d="m253.72,154.2c10.44,9.95-2.52,13.66.9-.26-3.42,13.92-13.18,4.62.68.65-13.86,3.97-10.66-9.04-.22.91-10.44-9.95,2.52-13.66-.9.26,3.42-13.92,13.18-4.62-.68-.65,13.86-3.97,10.66,9.04.22-.91Z"/><path class="i" d="m258.67,164.5c7.97,12.02-5.49,12.76.94-.05-6.43,12.81-13.88,1.58.52.78-14.4.8-8.39-11.18-.42.84-7.97-12.02,5.49-12.76-.94.05,6.43-12.81,13.88-1.58-.52-.78,14.4-.8,8.39,11.18.42-.84Z"/><path class="d" d="m258.67,164.5c7.97,12.02-5.49,12.76.94-.05-6.43,12.81-13.88,1.58.52.78-14.4.8-8.39-11.18-.42.84-7.97-12.02,5.49-12.76-.94.05,6.43-12.81,13.88-1.58-.52-.78,14.4-.8,8.39,11.18.42-.84Z"/><path class="i" d="m263.87,176.33c10.44,9.95-2.52,13.66.9-.26-3.42,13.92-13.18,4.62.68.65-13.86,3.97-10.66-9.04-.22.91-10.44-9.95,2.52-13.66-.9.26,3.42-13.92,13.18-4.62-.68-.65,13.86-3.97,10.66,9.04.22-.91Z"/><path class="d" d="m263.87,176.33c10.44,9.95-2.52,13.66.9-.26-3.42,13.92-13.18,4.62.68.65-13.86,3.97-10.66-9.04-.22.91-10.44-9.95,2.52-13.66-.9.26,3.42-13.92,13.18-4.62-.68-.65,13.86-3.97,10.66,9.04.22-.91Z"/><path class="i" d="m268.59,186.19c7.25,12.46-6.23,12.42.94,0-7.17,12.42-13.95.76.47.81-14.42-.05-7.72-11.65-.47.81-7.25-12.46,6.23-12.42-.94,0,7.17-12.42,13.95-.76-.47-.81,14.42.05,7.72,11.65.47-.81Z"/><path class="d" d="m268.59,186.19c7.25,12.46-6.23,12.42.94,0-7.17,12.42-13.95.76.47.81-14.42-.05-7.72-11.65-.47.81-7.25-12.46,6.23-12.42-.94,0,7.17-12.42,13.95-.76-.47-.81,14.42.05,7.72,11.65.47-.81Z"/><path class="i" d="m270.26,197.82c14.39.93,6.83,12.1.53-.78,6.31,12.87-7.14,12,.94.06-8.08,11.94-13.98-.09.41.84-14.39-.93-6.83-12.1-.53.78-6.31-12.87,7.14-12-.94-.06,8.08-11.94,13.98.09-.41-.84Z"/><path class="d" d="m270.26,197.82c14.39.93,6.83,12.1.53-.78,6.31,12.87-7.14,12,.94.06-8.08,11.94-13.98-.09.41.84-14.39-.93-6.83-12.1-.53.78-6.31-12.87,7.14-12-.94-.06,8.08-11.94,13.98.09-.41-.84Z"/><path class="i" d="m272.57,206.3c10.44,9.95-2.52,13.66.9-.26-3.42,13.92-13.18,4.62.68.65-13.86,3.97-10.66-9.04-.22.91-10.44-9.95,2.52-13.66-.9.26,3.42-13.92,13.18-4.62-.68-.65,13.86-3.97,10.66,9.04.22-.91Z"/><path class="d" d="m272.57,206.3c10.44,9.95-2.52,13.66.9-.26-3.42,13.92-13.18,4.62.68.65-13.86,3.97-10.66-9.04-.22.91-10.44-9.95,2.52-13.66-.9.26,3.42-13.92,13.18-4.62-.68-.65,13.86-3.97,10.66,9.04.22-.91Z"/><path class="i" d="m274.97,215.31c13.21,5.77,2.31,13.7.76-.55,1.55,14.25-10.8,8.85.86.38-11.67,8.48-13.11-4.84.1.93-13.21-5.77-2.31-13.7-.76.55-1.55-14.25,10.8-8.85-.86-.38,11.67-8.48,13.11,4.84-.1-.93Z"/><path class="d" d="m274.97,215.31c13.21,5.77,2.31,13.7.76-.55,1.55,14.25-10.8,8.85.86.38-11.67,8.48-13.11-4.84.1.93-13.21-5.77-2.31-13.7-.76.55-1.55-14.25,10.8-8.85-.86-.38,11.67-8.48,13.11,4.84-.1-.93Z"/><path class="i" d="m276.2,224.71c10.44,9.95-2.52,13.66.9-.26-3.42,13.92-13.18,4.62.68.65-13.86,3.97-10.66-9.04-.22.91-10.44-9.95,2.52-13.66-.9.26,3.42-13.92,13.18-4.62-.68-.65,13.86-3.97,10.66,9.04.22-.91Z"/><path class="d" d="m276.2,224.71c10.44,9.95-2.52,13.66.9-.26-3.42,13.92-13.18,4.62.68.65-13.86,3.97-10.66-9.04-.22.91-10.44-9.95,2.52-13.66-.9.26,3.42-13.92,13.18-4.62-.68-.65,13.86-3.97,10.66,9.04.22-.91Z"/><path class="i" d="m282.63,243.37c7.25,12.46-6.23,12.42.94,0-7.17,12.42-13.95.76.47.81-14.42-.05-7.72-11.65-.47.81-7.25-12.46,6.23-12.42-.94,0,7.17-12.42,13.95-.76-.47-.81,14.42.05,7.72,11.65.47-.81Z"/><path class="d" d="m282.63,243.37c7.25,12.46-6.23,12.42.94,0-7.17,12.42-13.95.76.47.81-14.42-.05-7.72-11.65-.47.81-7.25-12.46,6.23-12.42-.94,0,7.17-12.42,13.95-.76-.47-.81,14.42.05,7.72,11.65.47-.81Z"/><path class="i" d="m280.33,233.1c5.48,13.34-7.87,11.45.93.13-8.8,11.32-13.92-1.15.36.87-14.28-2.02-6.05-12.6-.57.74-5.48-13.34,7.87-11.45-.93-.13,8.8-11.32,13.92,1.15-.36-.87,14.28,2.02,6.05,12.6.57-.74Z"/><path class="d" d="m280.33,233.1c5.48,13.34-7.87,11.45.93.13-8.8,11.32-13.92-1.15.36.87-14.28-2.02-6.05-12.6-.57.74-5.48-13.34,7.87-11.45-.93-.13,8.8-11.32,13.92,1.15-.36-.87,14.28,2.02,6.05,12.6.57-.74Z"/><path class="i" d="m285.3,255.61c8.19,7.14-1.69,9.5.69-.16-2.38,9.66-10.03,2.99.53.47-10.56,2.53-8.34-6.51-.15.63-8.19-7.14,1.69-9.5-.69.16,2.38-9.66,10.03-2.99-.53-.47,10.56-2.53,8.34,6.51.15-.63Z"/><path class="d" d="m285.3,255.61c8.19,7.14-1.69,9.5.69-.16-2.38,9.66-10.03,2.99.53.47-10.56,2.53-8.34-6.51-.15.63-8.19-7.14,1.69-9.5-.69.16,2.38-9.66,10.03-2.99-.53-.47,10.56-2.53,8.34,6.51.15-.63Z"/><path class="i" d="m304.88,149.36c5.17,7.4-1.25,10.16.45-.19-1.7,10.35-6.53,3.44.34.48-6.87,2.95-5.28-6.72-.11.68-5.17-7.4,1.25-10.16-.45.19,1.7-10.35,6.53-3.44-.34-.48,6.87-2.95,5.28,6.72.11-.68Z"/><path class="d" d="m304.88,149.36c5.17,7.4-1.25,10.16.45-.19-1.7,10.35-6.53,3.44.34.48-6.87,2.95-5.28-6.72-.11.68-5.17-7.4,1.25-10.16-.45.19,1.7-10.35,6.53-3.44-.34-.48,6.87-2.95,5.28,6.72.11-.68Z"/><path class="i" d="m306.18,156.35c7.04,1.77,2.76,9.46.3-.54,2.46,10-4.12,8.34.46.12-4.58,8.23-6.88-1.12.16.65-7.04-1.77-2.76-9.46-.3.54-2.46-10,4.12-8.34-.46-.12,4.58-8.23,6.88,1.12-.16-.65Z"/><path class="d" d="m306.18,156.35c7.04,1.77,2.76,9.46.3-.54,2.46,10-4.12,8.34.46.12-4.58,8.23-6.88-1.12.16.65-7.04-1.77-2.76-9.46-.3.54-2.46-10,4.12-8.34-.46-.12,4.58-8.23,6.88,1.12-.16-.65Z"/><path class="i" d="m306.9,162.3c6.99,2.22,2.49,9.63.31-.52,2.18,10.15-4.35,8.08.46.14-4.81,7.93-6.85-1.55.14.66-6.99-2.22-2.49-9.63-.31.52-2.18-10.15,4.35-8.08-.46-.14,4.81-7.93,6.85,1.55-.14-.66Z"/><path class="d" d="m306.9,162.3c6.99,2.22,2.49,9.63.31-.52,2.18,10.15-4.35,8.08.46.14-4.81,7.93-6.85-1.55.14.66-6.99-2.22-2.49-9.63-.31.52-2.18-10.15,4.35-8.08-.46-.14,4.81-7.93,6.85,1.55-.14-.66Z"/><path class="i" d="m308.14,167.73c1.42,10.51-4.9,7.26.44.23-5.34,7.03-6.66-2.79.09.69-6.76-3.48-1.77-10.05-.35.46-1.42-10.51,4.9-7.26-.44-.23,5.34-7.03,6.66,2.79-.09-.69,6.76,3.48,1.77,10.05.35-.46Z"/><path class="d" d="m308.14,167.73c1.42,10.51-4.9,7.26.44.23-5.34,7.03-6.66-2.79.09.69-6.76-3.48-1.77-10.05-.35.46-1.42-10.51,4.9-7.26-.44-.23,5.34-7.03,6.66,2.79-.09-.69,6.76,3.48,1.77,10.05.35-.46Z"/><path class="i" d="m306.91,173.93c6.89-2.81,5.14,6.86.12-.67,5.02,7.54-1.42,10.17.45-.18-1.87,10.35-6.56,3.3.33.49-6.89,2.81-5.14-6.86-.12.67-5.02-7.54,1.42-10.17-.45.18,1.87-10.35,6.56-3.3-.33-.49Z"/><path class="d" d="m306.91,173.93c6.89-2.81,5.14,6.86.12-.67,5.02,7.54-1.42,10.17.45-.18-1.87,10.35-6.56,3.3.33.49-6.89,2.81-5.14-6.86-.12.67-5.02-7.54,1.42-10.17-.45.18,1.87-10.35,6.56-3.3-.33-.49Z"/><path class="i" d="m306.31,177.91c5.17,7.4-1.25,10.16.45-.19-1.7,10.35-6.53,3.44.34.48-6.87,2.95-5.28-6.72-.11.68-5.17-7.4,1.25-10.16-.45.19,1.7-10.35,6.53-3.44-.34-.48,6.87-2.95,5.28,6.72.11-.68Z"/><path class="d" d="m306.31,177.91c5.17,7.4-1.25,10.16.45-.19-1.7,10.35-6.53,3.44.34.48-6.87,2.95-5.28-6.72-.11.68-5.17-7.4,1.25-10.16-.45.19,1.7-10.35,6.53-3.44-.34-.48,6.87-2.95,5.28,6.72.11-.68Z"/><path class="i" d="m305.05,183.24c5.17,7.4-1.25,10.16.45-.19-1.7,10.35-6.53,3.44.34.48-6.87,2.95-5.28-6.72-.11.68-5.17-7.4,1.25-10.16-.45.19,1.7-10.35,6.53-3.44-.34-.48,6.87-2.95,5.28,6.72.11-.68Z"/><path class="d" d="m305.05,183.24c5.17,7.4-1.25,10.16.45-.19-1.7,10.35-6.53,3.44.34.48-6.87,2.95-5.28-6.72-.11.68-5.17-7.4,1.25-10.16-.45.19,1.7-10.35,6.53-3.44-.34-.48,6.87-2.95,5.28,6.72.11-.68Z"/><path class="i" d="m303.75,187.99c5.17,7.4-1.25,10.16.45-.19-1.7,10.35-6.53,3.44.34.48-6.87,2.95-5.28-6.72-.11.68-5.17-7.4,1.25-10.16-.45.19,1.7-10.35,6.53-3.44-.34-.48,6.87-2.95,5.28,6.72.11-.68Z"/><path class="d" d="m303.75,187.99c5.17,7.4-1.25,10.16.45-.19-1.7,10.35-6.53,3.44.34.48-6.87,2.95-5.28-6.72-.11.68-5.17-7.4,1.25-10.16-.45.19,1.7-10.35,6.53-3.44-.34-.48,6.87-2.95,5.28,6.72.11-.68Z"/><path class="i" d="m301.96,192.99c5.17,7.4-1.25,10.16.45-.19-1.7,10.35-6.53,3.44.34.48-6.87,2.95-5.28-6.72-.11.68-5.17-7.4,1.25-10.16-.45.19,1.7-10.35,6.53-3.44-.34-.48,6.87-2.95,5.28,6.72.11-.68Z"/><path class="d" d="m301.96,192.99c5.17,7.4-1.25,10.16.45-.19-1.7,10.35-6.53,3.44.34.48-6.87,2.95-5.28-6.72-.11.68-5.17-7.4,1.25-10.16-.45.19,1.7-10.35,6.53-3.44-.34-.48,6.87-2.95,5.28,6.72.11-.68Z"/><path class="i" d="m300.15,198.55c5.17,7.4-1.25,10.16.45-.19-1.7,10.35-6.53,3.44.34.48-6.87,2.95-5.28-6.72-.11.68-5.17-7.4,1.25-10.16-.45.19,1.7-10.35,6.53-3.44-.34-.48,6.87-2.95,5.28,6.72.11-.68Z"/><path class="d" d="m300.15,198.55c5.17,7.4-1.25,10.16.45-.19-1.7,10.35-6.53,3.44.34.48-6.87,2.95-5.28-6.72-.11.68-5.17-7.4,1.25-10.16-.45.19,1.7-10.35,6.53-3.44-.34-.48,6.87-2.95,5.28,6.72.11-.68Z"/><path class="i" d="m297.78,204.37c5.17,7.4-1.25,10.16.45-.19-1.7,10.35-6.53,3.44.34.48-6.87,2.95-5.28-6.72-.11.68-5.17-7.4,1.25-10.16-.45.19,1.7-10.35,6.53-3.44-.34-.48,6.87-2.95,5.28,6.72.11-.68Z"/><path class="d" d="m297.78,204.37c5.17,7.4-1.25,10.16.45-.19-1.7,10.35-6.53,3.44.34.48-6.87,2.95-5.28-6.72-.11.68-5.17-7.4,1.25-10.16-.45.19,1.7-10.35,6.53-3.44-.34-.48,6.87-2.95,5.28,6.72.11-.68Z"/><path class="i" d="m295.23,211.68c5.17,7.4-1.25,10.16.45-.19-1.7,10.35-6.53,3.44.34.48-6.87,2.95-5.28-6.72-.11.68-5.17-7.4,1.25-10.16-.45.19,1.7-10.35,6.53-3.44-.34-.48,6.87-2.95,5.28,6.72.11-.68Z"/><path class="d" d="m295.23,211.68c5.17,7.4-1.25,10.16.45-.19-1.7,10.35-6.53,3.44.34.48-6.87,2.95-5.28-6.72-.11.68-5.17-7.4,1.25-10.16-.45.19,1.7-10.35,6.53-3.44-.34-.48,6.87-2.95,5.28,6.72.11-.68Z"/><path class="i" d="m291.66,216.53c5.17,7.4-1.25,10.16.45-.19-1.7,10.35-6.53,3.44.34.48-6.87,2.95-5.28-6.72-.11.68-5.17-7.4,1.25-10.16-.45.19,1.7-10.35,6.53-3.44-.34-.48,6.87-2.95,5.28,6.72.11-.68Z"/><path class="d" d="m291.66,216.53c5.17,7.4-1.25,10.16.45-.19-1.7,10.35-6.53,3.44.34.48-6.87,2.95-5.28-6.72-.11.68-5.17-7.4,1.25-10.16-.45.19,1.7-10.35,6.53-3.44-.34-.48,6.87-2.95,5.28,6.72.11-.68Z"/><path class="i" d="m294.13,249.74c7.83,7.46-1.89,10.25.68-.19-2.57,10.44-9.89,3.47.51.49-10.4,2.98-8-6.78-.17.68-7.83-7.46,1.89-10.25-.68.19,2.57-10.44,9.89-3.47-.51-.49,10.4-2.98,8,6.78.17-.68Z"/><path class="d" d="m294.13,249.74c7.83,7.46-1.89,10.25.68-.19-2.57,10.44-9.89,3.47.51.49-10.4,2.98-8-6.78-.17.68-7.83-7.46,1.89-10.25-.68.19,2.57-10.44,9.89-3.47-.51-.49,10.4-2.98,8,6.78.17-.68Z"/><path class="i" d="m442.74,182.88c10.44,9.95-2.52,13.66.9-.26-3.42,13.92-13.18,4.62.68.65-13.86,3.97-10.66-9.04-.22.91-10.44-9.95,2.52-13.66-.9.26,3.42-13.92,13.18-4.62-.68-.65,13.86-3.97,10.66,9.04.22-.91Z"/><path class="d" d="m442.74,182.88c10.44,9.95-2.52,13.66.9-.26-3.42,13.92-13.18,4.62.68.65-13.86,3.97-10.66-9.04-.22.91-10.44-9.95,2.52-13.66-.9.26,3.42-13.92,13.18-4.62-.68-.65,13.86-3.97,10.66,9.04.22-.91Z"/><path class="i" d="m436.71,191.99c10.44,9.95-2.52,13.66.9-.26-3.42,13.92-13.18,4.62.68.65-13.86,3.97-10.66-9.04-.22.91-10.44-9.95,2.52-13.66-.9.26,3.42-13.92,13.18-4.62-.68-.65,13.86-3.97,10.66,9.04.22-.91Z"/><path class="d" d="m436.71,191.99c10.44,9.95-2.52,13.66.9-.26-3.42,13.92-13.18,4.62.68.65-13.86,3.97-10.66-9.04-.22.91-10.44-9.95,2.52-13.66-.9.26,3.42-13.92,13.18-4.62-.68-.65,13.86-3.97,10.66,9.04.22-.91Z"/><path class="i" d="m430.05,196.3c10.44,9.95-2.52,13.66.9-.26-3.42,13.92-13.18,4.62.68.65-13.86,3.97-10.66-9.04-.22.91-10.44-9.95,2.52-13.66-.9.26,3.42-13.92,13.18-4.62-.68-.65,13.86-3.97,10.66,9.04.22-.91Z"/><path class="d" d="m430.05,196.3c10.44,9.95-2.52,13.66.9-.26-3.42,13.92-13.18,4.62.68.65-13.86,3.97-10.66-9.04-.22.91-10.44-9.95,2.52-13.66-.9.26,3.42-13.92,13.18-4.62-.68-.65,13.86-3.97,10.66,9.04.22-.91Z"/><path class="i" d="m421.44,203.03c13.64,4.68,3.42,13.47.71-.61,2.71,14.08-10.05,9.71.89.31-10.93,9.4-13.46-3.76.18.92-13.64-4.68-3.42-13.47-.71.61-2.71-14.08,10.05-9.71-.89-.31,10.93-9.4,13.46,3.76-.18-.92Z"/><path class="d" d="m421.44,203.03c13.64,4.68,3.42,13.47.71-.61,2.71,14.08-10.05,9.71.89.31-10.93,9.4-13.46-3.76.18.92-13.64-4.68-3.42-13.47-.71.61-2.71-14.08,10.05-9.71-.89-.31,10.93-9.4,13.46,3.76-.18-.92Z"/><path class="i" d="m414.52,208.74c10.44,9.95-2.52,13.66.9-.26-3.42,13.92-13.18,4.62.68.65-13.86,3.97-10.66-9.04-.22.91-10.44-9.95,2.52-13.66-.9.26,3.42-13.92,13.18-4.62-.68-.65,13.86-3.97,10.66,9.04.22-.91Z"/><path class="d" d="m414.52,208.74c10.44,9.95-2.52,13.66.9-.26-3.42,13.92-13.18,4.62.68.65-13.86,3.97-10.66-9.04-.22.91-10.44-9.95,2.52-13.66-.9.26,3.42-13.92,13.18-4.62-.68-.65,13.86-3.97,10.66,9.04.22-.91Z"/><path class="i" d="m406.89,214.79c10.44,9.95-2.52,13.66.9-.26-3.42,13.92-13.18,4.62.68.65-13.86,3.97-10.66-9.04-.22.91-10.44-9.95,2.52-13.66-.9.26,3.42-13.92,13.18-4.62-.68-.65,13.86-3.97,10.66,9.04.22-.91Z"/><path class="d" d="m406.89,214.79c10.44,9.95-2.52,13.66.9-.26-3.42,13.92-13.18,4.62.68.65-13.86,3.97-10.66-9.04-.22.91-10.44-9.95,2.52-13.66-.9.26,3.42-13.92,13.18-4.62-.68-.65,13.86-3.97,10.66,9.04.22-.91Z"/><path class="i" d="m397.11,218.66c10.44,9.95-2.52,13.66.9-.26-3.42,13.92-13.18,4.62.68.65-13.86,3.97-10.66-9.04-.22.91-10.44-9.95,2.52-13.66-.9.26,3.42-13.92,13.18-4.62-.68-.65,13.86-3.97,10.66,9.04.22-.91Z"/><path class="d" d="m397.11,218.66c10.44,9.95-2.52,13.66.9-.26-3.42,13.92-13.18,4.62.68.65-13.86,3.97-10.66-9.04-.22.91-10.44-9.95,2.52-13.66-.9.26,3.42-13.92,13.18-4.62-.68-.65,13.86-3.97,10.66,9.04.22-.91Z"/><path class="i" d="m391.08,222.94c10.44,9.95-2.52,13.66.9-.26-3.42,13.92-13.18,4.62.68.65-13.86,3.97-10.66-9.04-.22.91-10.44-9.95,2.52-13.66-.9.26,3.42-13.92,13.18-4.62-.68-.65,13.86-3.97,10.66,9.04.22-.91Z"/><path class="d" d="m391.08,222.94c10.44,9.95-2.52,13.66.9-.26-3.42,13.92-13.18,4.62.68.65-13.86,3.97-10.66-9.04-.22.91-10.44-9.95,2.52-13.66-.9.26,3.42-13.92,13.18-4.62-.68-.65,13.86-3.97,10.66,9.04.22-.91Z"/><path class="i" d="m382.45,227.89c10.44,9.95-2.52,13.66.9-.26-3.42,13.92-13.18,4.62.68.65-13.86,3.97-10.66-9.04-.22.91-10.44-9.95,2.52-13.66-.9.26,3.42-13.92,13.18-4.62-.68-.65,13.86-3.97,10.66,9.04.22-.91Z"/><path class="d" d="m382.45,227.89c10.44,9.95-2.52,13.66.9-.26-3.42,13.92-13.18,4.62.68.65-13.86,3.97-10.66-9.04-.22.91-10.44-9.95,2.52-13.66-.9.26,3.42-13.92,13.18-4.62-.68-.65,13.86-3.97,10.66,9.04.22-.91Z"/><path class="i" d="m374.41,232.49c10.44,9.95-2.52,13.66.9-.26-3.42,13.92-13.18,4.62.68.65-13.86,3.97-10.66-9.04-.22.91-10.44-9.95,2.52-13.66-.9.26,3.42-13.92,13.18-4.62-.68-.65,13.86-3.97,10.66,9.04.22-.91Z"/><path class="d" d="m374.41,232.49c10.44,9.95-2.52,13.66.9-.26-3.42,13.92-13.18,4.62.68.65-13.86,3.97-10.66-9.04-.22.91-10.44-9.95,2.52-13.66-.9.26,3.42-13.92,13.18-4.62-.68-.65,13.86-3.97,10.66,9.04.22-.91Z"/><path class="i" d="m366.63,235.85c10.44,9.95-2.52,13.66.9-.26-3.42,13.92-13.18,4.62.68.65-13.86,3.97-10.66-9.04-.22.91-10.44-9.95,2.52-13.66-.9.26,3.42-13.92,13.18-4.62-.68-.65,13.86-3.97,10.66,9.04.22-.91Z"/><path class="d" d="m366.63,235.85c10.44,9.95-2.52,13.66.9-.26-3.42,13.92-13.18,4.62.68.65-13.86,3.97-10.66-9.04-.22.91-10.44-9.95,2.52-13.66-.9.26,3.42-13.92,13.18-4.62-.68-.65,13.86-3.97,10.66,9.04.22-.91Z"/><path class="i" d="m359.04,238.62c10.44,9.95-2.52,13.66.9-.26-3.42,13.92-13.18,4.62.68.65-13.86,3.97-10.66-9.04-.22.91-10.44-9.95,2.52-13.66-.9.26,3.42-13.92,13.18-4.62-.68-.65,13.86-3.97,10.66,9.04.22-.91Z"/><path class="d" d="m359.04,238.62c10.44,9.95-2.52,13.66.9-.26-3.42,13.92-13.18,4.62.68.65-13.86,3.97-10.66-9.04-.22.91-10.44-9.95,2.52-13.66-.9.26,3.42-13.92,13.18-4.62-.68-.65,13.86-3.97,10.66,9.04.22-.91Z"/><path class="i" d="m351.92,241.9c10.44,9.95-2.52,13.66.9-.26-3.42,13.92-13.18,4.62.68.65-13.86,3.97-10.66-9.04-.22.91-10.44-9.95,2.52-13.66-.9.26,3.42-13.92,13.18-4.62-.68-.65,13.86-3.97,10.66,9.04.22-.91Z"/><path class="d" d="m351.92,241.9c10.44,9.95-2.52,13.66.9-.26-3.42,13.92-13.18,4.62.68.65-13.86,3.97-10.66-9.04-.22.91-10.44-9.95,2.52-13.66-.9.26,3.42-13.92,13.18-4.62-.68-.65,13.86-3.97,10.66,9.04.22-.91Z"/><path class="i" d="m342.72,244.68c10.44,9.95-2.52,13.66.9-.26-3.42,13.92-13.18,4.62.68.65-13.86,3.97-10.66-9.04-.22.91-10.44-9.95,2.52-13.66-.9.26,3.42-13.92,13.18-4.62-.68-.65,13.86-3.97,10.66,9.04.22-.91Z"/><path class="d" d="m342.72,244.68c10.44,9.95-2.52,13.66.9-.26-3.42,13.92-13.18,4.62.68.65-13.86,3.97-10.66-9.04-.22.91-10.44-9.95,2.52-13.66-.9.26,3.42-13.92,13.18-4.62-.68-.65,13.86-3.97,10.66,9.04.22-.91Z"/><path class="i" d="m334.08,247.96c10.44,9.95-2.52,13.66.9-.26-3.42,13.92-13.18,4.62.68.65-13.86,3.97-10.66-9.04-.22.91-10.44-9.95,2.52-13.66-.9.26,3.42-13.92,13.18-4.62-.68-.65,13.86-3.97,10.66,9.04.22-.91Z"/><path class="d" d="m334.08,247.96c10.44,9.95-2.52,13.66.9-.26-3.42,13.92-13.18,4.62.68.65-13.86,3.97-10.66-9.04-.22.91-10.44-9.95,2.52-13.66-.9.26,3.42-13.92,13.18-4.62-.68-.65,13.86-3.97,10.66,9.04.22-.91Z"/><path class="i" d="m325.52,250.64c10.44,9.95-2.52,13.66.9-.26-3.42,13.92-13.18,4.62.68.65-13.86,3.97-10.66-9.04-.22.91-10.44-9.95,2.52-13.66-.9.26,3.42-13.92,13.18-4.62-.68-.65,13.86-3.97,10.66,9.04.22-.91Z"/><path class="d" d="m325.52,250.64c10.44,9.95-2.52,13.66.9-.26-3.42,13.92-13.18,4.62.68.65-13.86,3.97-10.66-9.04-.22.91-10.44-9.95,2.52-13.66-.9.26,3.42-13.92,13.18-4.62-.68-.65,13.86-3.97,10.66,9.04.22-.91Z"/><path class="i" d="m316.17,252.81c10.44,9.95-2.52,13.66.9-.26-3.42,13.92-13.18,4.62.68.65-13.86,3.97-10.66-9.04-.22.91-10.44-9.95,2.52-13.66-.9.26,3.42-13.92,13.18-4.62-.68-.65,13.86-3.97,10.66,9.04.22-.91Z"/><path class="d" d="m316.17,252.81c10.44,9.95-2.52,13.66.9-.26-3.42,13.92-13.18,4.62.68.65-13.86,3.97-10.66-9.04-.22.91-10.44-9.95,2.52-13.66-.9.26,3.42-13.92,13.18-4.62-.68-.65,13.86-3.97,10.66,9.04.22-.91Z"/><path class="i" d="m308,255.09c10.44,9.95-2.52,13.66.9-.26-3.42,13.92-13.18,4.62.68.65-13.86,3.97-10.66-9.04-.22.91-10.44-9.95,2.52-13.66-.9.26,3.42-13.92,13.18-4.62-.68-.65,13.86-3.97,10.66,9.04.22-.91Z"/><path class="d" d="m308,255.09c10.44,9.95-2.52,13.66.9-.26-3.42,13.92-13.18,4.62.68.65-13.86,3.97-10.66-9.04-.22.91-10.44-9.95,2.52-13.66-.9.26,3.42-13.92,13.18-4.62-.68-.65,13.86-3.97,10.66,9.04.22-.91Z"/><path class="i" d="m298.62,259.82c8.19,7.81-1.98,10.72.71-.2-2.69,10.93-10.35,3.63.53.51-10.88,3.12-8.37-7.1-.18.71-8.19-7.81,1.98-10.72-.71.2,2.69-10.93,10.35-3.63-.53-.51,10.88-3.12,8.37,7.1.18-.71Z"/><path class="d" d="m298.62,259.82c8.19,7.81-1.98,10.72.71-.2-2.69,10.93-10.35,3.63.53.51-10.88,3.12-8.37-7.1-.18.71-8.19-7.81,1.98-10.72-.71.2,2.69-10.93,10.35-3.63-.53-.51,10.88-3.12,8.37,7.1.18-.71Z"/><path class="i" d="m289.71,260.85c8.53,8.13-2.06,11.16.74-.21-2.8,11.37-10.77,3.77.56.53-11.32,3.24-8.71-7.38-.18.74-8.53-8.13,2.06-11.16-.74.21,2.8-11.37,10.77-3.77-.56-.53,11.32-3.24,8.71,7.38.18-.74Z"/><path class="d" d="m289.71,260.85c8.53,8.13-2.06,11.16.74-.21-2.8,11.37-10.77,3.77.56.53-11.32,3.24-8.71-7.38-.18.74-8.53-8.13,2.06-11.16-.74.21,2.8-11.37,10.77-3.77-.56-.53,11.32-3.24,8.71,7.38.18-.74Z"/><path class="c" d="m365.52,224.79c-19.64,38.71-77.81,57.9-77.81,57.9,0,0,33.89-59.05,19.59-82.18"/><path class="i" d="m307.62,199.88c5.17,7.4-1.25,10.16.45-.19-1.7,10.35-6.53,3.44.34.48-6.87,2.95-5.28-6.72-.11.68-5.17-7.4,1.25-10.16-.45.19,1.7-10.35,6.53-3.44-.34-.48,6.87-2.95,5.28,6.72.11-.68Z"/><path class="d" d="m307.62,199.88c5.17,7.4-1.25,10.16.45-.19-1.7,10.35-6.53,3.44.34.48-6.87,2.95-5.28-6.72-.11.68-5.17-7.4,1.25-10.16-.45.19,1.7-10.35,6.53-3.44-.34-.48,6.87-2.95,5.28,6.72.11-.68Z"/><path class="i" d="m308.93,206.86c7.04,1.77,2.76,9.46.3-.54,2.46,10-4.12,8.34.46.12-4.58,8.23-6.88-1.12.16.65-7.04-1.77-2.76-9.46-.3.54-2.46-10,4.12-8.34-.46-.12,4.58-8.23,6.88,1.12-.16-.65Z"/><path class="d" d="m308.93,206.86c7.04,1.77,2.76,9.46.3-.54,2.46,10-4.12,8.34.46.12-4.58,8.23-6.88-1.12.16.65-7.04-1.77-2.76-9.46-.3.54-2.46-10,4.12-8.34-.46-.12,4.58-8.23,6.88,1.12-.16-.65Z"/><path class="i" d="m309.65,212.81c6.99,2.22,2.49,9.63.31-.52,2.18,10.15-4.35,8.08.46.14-4.81,7.93-6.85-1.55.14.66-6.99-2.22-2.49-9.63-.31.52-2.18-10.15,4.35-8.08-.46-.14,4.81-7.93,6.85,1.55-.14-.66Z"/><path class="d" d="m309.65,212.81c6.99,2.22,2.49,9.63.31-.52,2.18,10.15-4.35,8.08.46.14-4.81,7.93-6.85-1.55.14.66-6.99-2.22-2.49-9.63-.31.52-2.18-10.15,4.35-8.08-.46-.14,4.81-7.93,6.85,1.55-.14-.66Z"/><path class="i" d="m310.89,218.24c1.42,10.51-4.9,7.26.44.23-5.34,7.03-6.66-2.79.09.69-6.76-3.48-1.77-10.05-.35.46-1.42-10.51,4.9-7.26-.44-.23,5.34-7.03,6.66,2.79-.09-.69,6.76,3.48,1.77,10.05.35-.46Z"/><path class="d" d="m310.89,218.24c1.42,10.51-4.9,7.26.44.23-5.34,7.03-6.66-2.79.09.69-6.76-3.48-1.77-10.05-.35.46-1.42-10.51,4.9-7.26-.44-.23,5.34-7.03,6.66,2.79-.09-.69,6.76,3.48,1.77,10.05.35-.46Z"/><path class="i" d="m309.65,224.44c6.89-2.81,5.14,6.86.12-.67,5.02,7.54-1.42,10.17.45-.18-1.87,10.35-6.56,3.3.33.49-6.89,2.81-5.14-6.86-.12.67-5.02-7.54,1.42-10.17-.45.18,1.87-10.35,6.56-3.3-.33-.49Z"/><path class="d" d="m309.65,224.44c6.89-2.81,5.14,6.86.12-.67,5.02,7.54-1.42,10.17.45-.18-1.87,10.35-6.56,3.3.33.49-6.89,2.81-5.14-6.86-.12.67-5.02-7.54,1.42-10.17-.45.18,1.87-10.35,6.56-3.3-.33-.49Z"/><path class="i" d="m309.05,228.43c5.17,7.4-1.25,10.16.45-.19-1.7,10.35-6.53,3.44.34.48-6.87,2.95-5.28-6.72-.11.68-5.17-7.4,1.25-10.16-.45.19,1.7-10.35,6.53-3.44-.34-.48,6.87-2.95,5.28,6.72.11-.68Z"/><path class="d" d="m309.05,228.43c5.17,7.4-1.25,10.16.45-.19-1.7,10.35-6.53,3.44.34.48-6.87,2.95-5.28-6.72-.11.68-5.17-7.4,1.25-10.16-.45.19,1.7-10.35,6.53-3.44-.34-.48,6.87-2.95,5.28,6.72.11-.68Z"/><path class="i" d="m307.8,233.75c5.17,7.4-1.25,10.16.45-.19-1.7,10.35-6.53,3.44.34.48-6.87,2.95-5.28-6.72-.11.68-5.17-7.4,1.25-10.16-.45.19,1.7-10.35,6.53-3.44-.34-.48,6.87-2.95,5.28,6.72.11-.68Z"/><path class="d" d="m307.8,233.75c5.17,7.4-1.25,10.16.45-.19-1.7,10.35-6.53,3.44.34.48-6.87,2.95-5.28-6.72-.11.68-5.17-7.4,1.25-10.16-.45.19,1.7-10.35,6.53-3.44-.34-.48,6.87-2.95,5.28,6.72.11-.68Z"/><path class="i" d="m306.5,238.5c5.17,7.4-1.25,10.16.45-.19-1.7,10.35-6.53,3.44.34.48-6.87,2.95-5.28-6.72-.11.68-5.17-7.4,1.25-10.16-.45.19,1.7-10.35,6.53-3.44-.34-.48,6.87-2.95,5.28,6.72.11-.68Z"/><path class="d" d="m306.5,238.5c5.17,7.4-1.25,10.16.45-.19-1.7,10.35-6.53,3.44.34.48-6.87,2.95-5.28-6.72-.11.68-5.17-7.4,1.25-10.16-.45.19,1.7-10.35,6.53-3.44-.34-.48,6.87-2.95,5.28,6.72.11-.68Z"/><path class="i" d="m304.7,243.51c5.17,7.4-1.25,10.16.45-.19-1.7,10.35-6.53,3.44.34.48-6.87,2.95-5.28-6.72-.11.68-5.17-7.4,1.25-10.16-.45.19,1.7-10.35,6.53-3.44-.34-.48,6.87-2.95,5.28,6.72.11-.68Z"/><path class="d" d="m304.7,243.51c5.17,7.4-1.25,10.16.45-.19-1.7,10.35-6.53,3.44.34.48-6.87,2.95-5.28-6.72-.11.68-5.17-7.4,1.25-10.16-.45.19,1.7-10.35,6.53-3.44-.34-.48,6.87-2.95,5.28,6.72.11-.68Z"/><path class="i" d="m302.9,249.07c5.17,7.4-1.25,10.16.45-.19-1.7,10.35-6.53,3.44.34.48-6.87,2.95-5.28-6.72-.11.68-5.17-7.4,1.25-10.16-.45.19,1.7-10.35,6.53-3.44-.34-.48,6.87-2.95,5.28,6.72.11-.68Z"/><path class="d" d="m302.9,249.07c5.17,7.4-1.25,10.16.45-.19-1.7,10.35-6.53,3.44.34.48-6.87,2.95-5.28-6.72-.11.68-5.17-7.4,1.25-10.16-.45.19,1.7-10.35,6.53-3.44-.34-.48,6.87-2.95,5.28,6.72.11-.68Z"/><path class="i" d="m300.52,254.88c5.17,7.4-1.25,10.16.45-.19-1.7,10.35-6.53,3.44.34.48-6.87,2.95-5.28-6.72-.11.68-5.17-7.4,1.25-10.16-.45.19,1.7-10.35,6.53-3.44-.34-.48,6.87-2.95,5.28,6.72.11-.68Z"/><path class="d" d="m300.52,254.88c5.17,7.4-1.25,10.16.45-.19-1.7,10.35-6.53,3.44.34.48-6.87,2.95-5.28-6.72-.11.68-5.17-7.4,1.25-10.16-.45.19,1.7-10.35,6.53-3.44-.34-.48,6.87-2.95,5.28,6.72.11-.68Z"/><path class="i" d="m297.97,262.19c5.17,7.4-1.25,10.16.45-.19-1.7,10.35-6.53,3.44.34.48-6.87,2.95-5.28-6.72-.11.68-5.17-7.4,1.25-10.16-.45.19,1.7-10.35,6.53-3.44-.34-.48,6.87-2.95,5.28,6.72.11-.68Z"/><path class="d" d="m297.97,262.19c5.17,7.4-1.25,10.16.45-.19-1.7,10.35-6.53,3.44.34.48-6.87,2.95-5.28-6.72-.11.68-5.17-7.4,1.25-10.16-.45.19,1.7-10.35,6.53-3.44-.34-.48,6.87-2.95,5.28,6.72.11-.68Z"/><path class="i" d="m294.4,267.05c5.17,7.4-1.25,10.16.45-.19-1.7,10.35-6.53,3.44.34.48-6.87,2.95-5.28-6.72-.11.68-5.17-7.4,1.25-10.16-.45.19,1.7-10.35,6.53-3.44-.34-.48,6.87-2.95,5.28,6.72.11-.68Z"/><path class="d" d="m294.4,267.05c5.17,7.4-1.25,10.16.45-.19-1.7,10.35-6.53,3.44.34.48-6.87,2.95-5.28-6.72-.11.68-5.17-7.4,1.25-10.16-.45.19,1.7-10.35,6.53-3.44-.34-.48,6.87-2.95,5.28,6.72.11-.68Z"/><path class="i" d="m288.16,224.58c4.11,10-5.9,8.59.7.1-6.6,8.49-10.44-.86.27.65-10.71-1.52-4.54-9.45-.43.55-4.11-10,5.9-8.59-.7-.1,6.6-8.49,10.44.86-.27-.65,10.71,1.52,4.54,9.45.43-.55Z"/><path class="d" d="m288.16,224.58c4.11,10-5.9,8.59.7.1-6.6,8.49-10.44-.86.27.65-10.71-1.52-4.54-9.45-.43.55-4.11-10,5.9-8.59-.7-.1,6.6-8.49,10.44.86-.27-.65,10.71,1.52,4.54,9.45.43-.55Z"/><path class="i" d="m295.65,229.25c-1.23,10.75-9.31,4.67.56.42-9.88,4.25-8.73-5.79-.08.7-8.65-6.49.58-10.47-.64.28,1.23-10.75,9.31-4.67-.56-.42,9.88-4.25,8.73,5.79.08-.7,8.65,6.49-.58,10.47.64-.28Z"/><path class="d" d="m295.65,229.25c-1.23,10.75-9.31,4.67.56.42-9.88,4.25-8.73-5.79-.08.7-8.65-6.49.58-10.47-.64.28,1.23-10.75,9.31-4.67-.56-.42,9.88-4.25,8.73,5.79.08-.7,8.65,6.49-.58,10.47.64-.28Z"/><path class="i" d="m302.37,224.66c-1.23,10.75-9.31,4.67.56.42-9.88,4.25-8.73-5.79-.08.7-8.65-6.49.58-10.47-.64.28,1.23-10.75,9.31-4.67-.56-.42,9.88-4.25,8.73,5.79.08-.7,8.65,6.49-.58,10.47.64-.28Z"/><path class="d" d="m302.37,224.66c-1.23,10.75-9.31,4.67.56.42-9.88,4.25-8.73-5.79-.08.7-8.65-6.49.58-10.47-.64.28,1.23-10.75,9.31-4.67-.56-.42,9.88-4.25,8.73,5.79.08-.7,8.65,6.49-.58,10.47.64-.28Z"/><path class="i" d="m317.6,216.13c-1.23,10.75-9.31,4.67.56.42-9.88,4.25-8.73-5.79-.08.7-8.65-6.49.58-10.47-.64.28,1.23-10.75,9.31-4.67-.56-.42,9.88-4.25,8.73,5.79.08-.7,8.65,6.49-.58,10.47.64-.28Z"/><path class="d" d="m317.6,216.13c-1.23,10.75-9.31,4.67.56.42-9.88,4.25-8.73-5.79-.08.7-8.65-6.49.58-10.47-.64.28,1.23-10.75,9.31-4.67-.56-.42,9.88-4.25,8.73,5.79.08-.7,8.65,6.49-.58,10.47.64-.28Z"/><path class="i" d="m323.95,213.27c-1.23,10.75-9.31,4.67.56.42-9.88,4.25-8.73-5.79-.08.7-8.65-6.49.58-10.47-.64.28,1.23-10.75,9.31-4.67-.56-.42,9.88-4.25,8.73,5.79.08-.7,8.65,6.49-.58,10.47.64-.28Z"/><path class="d" d="m323.95,213.27c-1.23,10.75-9.31,4.67.56.42-9.88,4.25-8.73-5.79-.08.7-8.65-6.49.58-10.47-.64.28,1.23-10.75,9.31-4.67-.56-.42,9.88-4.25,8.73,5.79.08-.7,8.65,6.49-.58,10.47.64-.28Z"/><path class="i" d="m330.11,207.71c-1.23,10.75-9.31,4.67.56.42-9.88,4.25-8.73-5.79-.08.7-8.65-6.49.58-10.47-.64.28,1.23-10.75,9.31-4.67-.56-.42,9.88-4.25,8.73,5.79.08-.7,8.65,6.49-.58,10.47.64-.28Z"/><path class="d" d="m330.11,207.71c-1.23,10.75-9.31,4.67.56.42-9.88,4.25-8.73-5.79-.08.7-8.65-6.49.58-10.47-.64.28,1.23-10.75,9.31-4.67-.56-.42,9.88-4.25,8.73,5.79.08-.7,8.65,6.49-.58,10.47.64-.28Z"/><path class="i" d="m336.37,203.48c-1.23,10.75-9.31,4.67.56.42-9.88,4.25-8.73-5.79-.08.7-8.65-6.49.58-10.47-.64.28,1.23-10.75,9.31-4.67-.56-.42,9.88-4.25,8.73,5.79.08-.7,8.65,6.49-.58,10.47.64-.28Z"/><path class="d" d="m336.37,203.48c-1.23,10.75-9.31,4.67.56.42-9.88,4.25-8.73-5.79-.08.7-8.65-6.49.58-10.47-.64.28,1.23-10.75,9.31-4.67-.56-.42,9.88-4.25,8.73,5.79.08-.7,8.65,6.49-.58,10.47.64-.28Z"/><path class="i" d="m342.57,198.34c-1.23,10.75-9.31,4.67.56.42-9.88,4.25-8.73-5.79-.08.7-8.65-6.49.58-10.47-.64.28,1.23-10.75,9.31-4.67-.56-.42,9.88-4.25,8.73,5.79.08-.7,8.65,6.49-.58,10.47.64-.28Z"/><path class="d" d="m342.57,198.34c-1.23,10.75-9.31,4.67.56.42-9.88,4.25-8.73-5.79-.08.7-8.65-6.49.58-10.47-.64.28,1.23-10.75,9.31-4.67-.56-.42,9.88-4.25,8.73,5.79.08-.7,8.65,6.49-.58,10.47.64-.28Z"/><path class="i" d="m347.58,192.37c-5.38,9.38-10.4.61.35.61-10.75,0-5.73-8.77-.35.61-5.38-9.38,4.67-9.38-.7,0,5.38-9.38,10.4-.61-.35-.61,10.75,0,5.73,8.77.35-.61,5.38,9.38-4.67,9.38.7,0Z"/><path class="d" d="m347.58,192.37c-5.38,9.38-10.4.61.35.61-10.75,0-5.73-8.77-.35.61-5.38-9.38,4.67-9.38-.7,0,5.38-9.38,10.4-.61-.35-.61,10.75,0,5.73,8.77.35-.61,5.38,9.38-4.67,9.38.7,0Z"/><path class="i" d="m352.68,188.99c-1.23,10.75-9.31,4.67.56.42-9.88,4.25-8.73-5.79-.08.7-8.65-6.49.58-10.47-.64.28,1.23-10.75,9.31-4.67-.56-.42,9.88-4.25,8.73,5.79.08-.7,8.65,6.49-.58,10.47.64-.28Z"/><path class="d" d="m352.68,188.99c-1.23,10.75-9.31,4.67.56.42-9.88,4.25-8.73-5.79-.08.7-8.65-6.49.58-10.47-.64.28,1.23-10.75,9.31-4.67-.56-.42,9.88-4.25,8.73,5.79.08-.7,8.65,6.49-.58,10.47.64-.28Z"/><path class="i" d="m356.47,182.84c4.86,9.66-5.23,9.01.7.05-5.94,8.96-10.48-.07.32.63-10.79-.7-5.24-9.08-.39.58-4.86-9.66,5.23-9.01-.7-.05,5.94-8.96,10.48.07-.32-.63,10.79.7,5.24,9.08.39-.58Z"/><path class="d" d="m356.47,182.84c4.86,9.66-5.23,9.01.7.05-5.94,8.96-10.48-.07.32.63-10.79-.7-5.24-9.08-.39.58-4.86-9.66,5.23-9.01-.7-.05,5.94-8.96,10.48.07-.32-.63,10.79.7,5.24,9.08.39-.58Z"/><path class="i" d="m360.23,177.69c-1.23,10.75-9.31,4.67.56.42-9.88,4.25-8.73-5.79-.08.7-8.65-6.49.58-10.47-.64.28,1.23-10.75,9.31-4.67-.56-.42,9.88-4.25,8.73,5.79.08-.7,8.65,6.49-.58,10.47.64-.28Z"/><path class="d" d="m360.23,177.69c-1.23,10.75-9.31,4.67.56.42-9.88,4.25-8.73-5.79-.08.7-8.65-6.49.58-10.47-.64.28,1.23-10.75,9.31-4.67-.56-.42,9.88-4.25,8.73,5.79.08-.7,8.65,6.49-.58,10.47.64-.28Z"/><path class="i" d="m294.72,278.02c-1.23,10.75-9.31,4.67.56.42-9.88,4.25-8.73-5.79-.08.7-8.65-6.49.58-10.47-.64.28,1.23-10.75,9.31-4.67-.56-.42,9.88-4.25,8.73,5.79.08-.7,8.65,6.49-.58,10.47.64-.28Z"/><path class="d" d="m294.72,278.02c-1.23,10.75-9.31,4.67.56.42-9.88,4.25-8.73-5.79-.08.7-8.65-6.49.58-10.47-.64.28,1.23-10.75,9.31-4.67-.56-.42,9.88-4.25,8.73,5.79.08-.7,8.65,6.49-.58,10.47.64-.28Z"/><path class="i" d="m292.16,274.8c-.76,6.64-5.75,2.89.35.26-6.1,2.63-5.39-3.58-.05.43-5.34-4.01.36-6.47-.4.17.76-6.64,5.75-2.89-.35-.26,6.1-2.63,5.39,3.58.05-.43,5.34,4.01-.36,6.47.4-.17Z"/><path class="d" d="m292.16,274.8c-.76,6.64-5.75,2.89.35.26-6.1,2.63-5.39-3.58-.05.43-5.34-4.01.36-6.47-.4.17.76-6.64,5.75-2.89-.35-.26,6.1-2.63,5.39,3.58.05-.43,5.34,4.01-.36,6.47.4-.17Z"/><path class="i" d="m302.37,276.34c-1.23,10.75-9.31,4.67.56.42-9.88,4.25-8.73-5.79-.08.7-8.65-6.49.58-10.47-.64.28,1.23-10.75,9.31-4.67-.56-.42,9.88-4.25,8.73,5.79.08-.7,8.65,6.49-.58,10.47.64-.28Z"/><path class="d" d="m302.37,276.34c-1.23,10.75-9.31,4.67.56.42-9.88,4.25-8.73-5.79-.08.7-8.65-6.49.58-10.47-.64.28,1.23-10.75,9.31-4.67-.56-.42,9.88-4.25,8.73,5.79.08-.7,8.65,6.49-.58,10.47.64-.28Z"/><path class="i" d="m308.21,273.83c-1.23,10.75-9.31,4.67.56.42-9.88,4.25-8.73-5.79-.08.7-8.65-6.49.58-10.47-.64.28,1.23-10.75,9.31-4.67-.56-.42,9.88-4.25,8.73,5.79.08-.7,8.65,6.49-.58,10.47.64-.28Z"/><path class="d" d="m308.21,273.83c-1.23,10.75-9.31,4.67.56.42-9.88,4.25-8.73-5.79-.08.7-8.65-6.49.58-10.47-.64.28,1.23-10.75,9.31-4.67-.56-.42,9.88-4.25,8.73,5.79.08-.7,8.65,6.49-.58,10.47.64-.28Z"/><path class="i" d="m315.19,270.1c-1.23,10.75-9.31,4.67.56.42-9.88,4.25-8.73-5.79-.08.7-8.65-6.49.58-10.47-.64.28,1.23-10.75,9.31-4.67-.56-.42,9.88-4.25,8.73,5.79.08-.7,8.65,6.49-.58,10.47.64-.28Z"/><path class="d" d="m315.19,270.1c-1.23,10.75-9.31,4.67.56.42-9.88,4.25-8.73-5.79-.08.7-8.65-6.49.58-10.47-.64.28,1.23-10.75,9.31-4.67-.56-.42,9.88-4.25,8.73,5.79.08-.7,8.65,6.49-.58,10.47.64-.28Z"/><path class="i" d="m320.71,266.83c-1.23,10.75-9.31,4.67.56.42-9.88,4.25-8.73-5.79-.08.7-8.65-6.49.58-10.47-.64.28,1.23-10.75,9.31-4.67-.56-.42,9.88-4.25,8.73,5.79.08-.7,8.65,6.49-.58,10.47.64-.28Z"/><path class="d" d="m320.71,266.83c-1.23,10.75-9.31,4.67.56.42-9.88,4.25-8.73-5.79-.08.7-8.65-6.49.58-10.47-.64.28,1.23-10.75,9.31-4.67-.56-.42,9.88-4.25,8.73,5.79.08-.7,8.65,6.49-.58,10.47.64-.28Z"/><path class="i" d="m326.7,263.28c-1.23,10.75-9.31,4.67.56.42-9.88,4.25-8.73-5.79-.08.7-8.65-6.49.58-10.47-.64.28,1.23-10.75,9.31-4.67-.56-.42,9.88-4.25,8.73,5.79.08-.7,8.65,6.49-.58,10.47.64-.28Z"/><path class="d" d="m326.7,263.28c-1.23,10.75-9.31,4.67.56.42-9.88,4.25-8.73-5.79-.08.7-8.65-6.49.58-10.47-.64.28,1.23-10.75,9.31-4.67-.56-.42,9.88-4.25,8.73,5.79.08-.7,8.65,6.49-.58,10.47.64-.28Z"/><path class="i" d="m333.65,259.63c-1.23,10.75-9.31,4.67.56.42-9.88,4.25-8.73-5.79-.08.7-8.65-6.49.58-10.47-.64.28,1.23-10.75,9.31-4.67-.56-.42,9.88-4.25,8.73,5.79.08-.7,8.65,6.49-.58,10.47.64-.28Z"/><path class="d" d="m333.65,259.63c-1.23,10.75-9.31,4.67.56.42-9.88,4.25-8.73-5.79-.08.7-8.65-6.49.58-10.47-.64.28,1.23-10.75,9.31-4.67-.56-.42,9.88-4.25,8.73,5.79.08-.7,8.65,6.49-.58,10.47.64-.28Z"/><path class="i" d="m340.19,254.9c-1.23,10.75-9.31,4.67.56.42-9.88,4.25-8.73-5.79-.08.7-8.65-6.49.58-10.47-.64.28,1.23-10.75,9.31-4.67-.56-.42,9.88-4.25,8.73,5.79.08-.7,8.65,6.49-.58,10.47.64-.28Z"/><path class="d" d="m340.19,254.9c-1.23,10.75-9.31,4.67.56.42-9.88,4.25-8.73-5.79-.08.7-8.65-6.49.58-10.47-.64.28,1.23-10.75,9.31-4.67-.56-.42,9.88-4.25,8.73,5.79.08-.7,8.65,6.49-.58,10.47.64-.28Z"/><path class="i" d="m346.82,249.53c-1.23,10.75-9.31,4.67.56.42-9.88,4.25-8.73-5.79-.08.7-8.65-6.49.58-10.47-.64.28,1.23-10.75,9.31-4.67-.56-.42,9.88-4.25,8.73,5.79.08-.7,8.65,6.49-.58,10.47.64-.28Z"/><path class="d" d="m346.82,249.53c-1.23,10.75-9.31,4.67.56.42-9.88,4.25-8.73-5.79-.08.7-8.65-6.49.58-10.47-.64.28,1.23-10.75,9.31-4.67-.56-.42,9.88-4.25,8.73,5.79.08-.7,8.65,6.49-.58,10.47.64-.28Z"/><path class="i" d="m353.34,241.03c-1.23,10.75-9.31,4.67.56.42-9.88,4.25-8.73-5.79-.08.7-8.65-6.49.58-10.47-.64.28,1.23-10.75,9.31-4.67-.56-.42,9.88-4.25,8.73,5.79.08-.7,8.65,6.49-.58,10.47.64-.28Z"/><path class="d" d="m353.34,241.03c-1.23,10.75-9.31,4.67.56.42-9.88,4.25-8.73-5.79-.08.7-8.65-6.49.58-10.47-.64.28,1.23-10.75,9.31-4.67-.56-.42,9.88-4.25,8.73,5.79.08-.7,8.65,6.49-.58,10.47.64-.28Z"/><path class="i" d="m359.8,234.86c-1.23,10.75-9.31,4.67.56.42-9.88,4.25-8.73-5.79-.08.7-8.65-6.49.58-10.47-.64.28,1.23-10.75,9.31-4.67-.56-.42,9.88-4.25,8.73,5.79.08-.7,8.65,6.49-.58,10.47.64-.28Z"/><path class="d" d="m359.8,234.86c-1.23,10.75-9.31,4.67.56.42-9.88,4.25-8.73-5.79-.08.7-8.65-6.49.58-10.47-.64.28,1.23-10.75,9.31-4.67-.56-.42,9.88-4.25,8.73,5.79.08-.7,8.65,6.49-.58,10.47.64-.28Z"/><path class="i" d="m363.77,228.21c-1.23,10.75-9.31,4.67.56.42-9.88,4.25-8.73-5.79-.08.7-8.65-6.49.58-10.47-.64.28,1.23-10.75,9.31-4.67-.56-.42,9.88-4.25,8.73,5.79.08-.7,8.65,6.49-.58,10.47.64-.28Z"/><path class="d" d="m363.77,228.21c-1.23,10.75-9.31,4.67.56.42-9.88,4.25-8.73-5.79-.08.7-8.65-6.49.58-10.47-.64.28,1.23-10.75,9.31-4.67-.56-.42,9.88-4.25,8.73,5.79.08-.7,8.65,6.49-.58,10.47.64-.28Z"/><circle class="f" cx="294.74" cy="278.96" r=".82"/><circle class="f" cx="302.29" cy="277.04" r=".82"/><circle class="f" cx="308.13" cy="274.53" r=".82"/><circle class="f" cx="315.11" cy="270.8" r=".82"/><circle class="f" cx="320.63" cy="267.53" r=".82"/><circle class="f" cx="326.62" cy="263.98" r=".82"/><circle class="f" cx="333.57" cy="260.33" r=".82"/><circle class="f" cx="340.11" cy="255.6" r=".82"/><circle class="f" cx="346.74" cy="250.23" r=".82"/><circle class="f" cx="353.26" cy="241.73" r=".82"/><circle class="f" cx="359.72" cy="235.56" r=".82"/><circle class="f" cx="363.69" cy="228.91" r=".82"/><circle class="f" cx="367.31" cy="236.5" r=".82"/><circle class="f" cx="375.16" cy="233.15" r=".82"/><circle class="f" cx="383.19" cy="228.29" r=".82"/><circle class="f" cx="397.85" cy="219.04" r=".82"/><circle class="f" cx="391.96" cy="223.64" r=".82"/><circle class="f" cx="407.57" cy="215.44" r=".82"/><circle class="f" cx="415.2" cy="209.38" r=".82"/><circle class="f" cx="422.33" cy="203.33" r=".82"/><circle class="f" cx="430.73" cy="196.94" r=".82"/><circle class="f" cx="437.39" cy="192.64" r=".82"/><circle class="f" cx="443.42" cy="183.53" r=".82"/><circle class="f" cx="292.11" cy="275.23" r=".82"/><circle class="f" cx="294.74" cy="267.53" r=".82"/><circle class="f" cx="298.31" cy="262.67" r=".82"/><circle class="f" cx="300.86" cy="255.37" r=".82"/><circle class="f" cx="308.68" cy="255.73" r=".82"/><circle class="f" cx="316.85" cy="253.45" r=".82"/><circle class="f" cx="326.2" cy="251.29" r=".82"/><circle class="f" cx="334.76" cy="248.61" r=".82"/><circle class="f" cx="343.4" cy="245.32" r=".82"/><circle class="f" cx="303.24" cy="249.55" r=".82"/><circle class="f" cx="305.04" cy="243.99" r=".82"/><circle class="f" cx="306.89" cy="238.77" r=".82"/><circle class="f" cx="308.13" cy="233.7" r=".82"/><circle class="f" cx="309.39" cy="228.59" r=".82"/><circle class="f" cx="310.29" cy="224.07" r=".82"/><circle class="f" cx="310.98" cy="218.51" r=".82"/><circle class="f" cx="309.95" cy="212.5" r=".82"/><circle class="f" cx="309.37" cy="206.91" r=".82"/><circle class="f" cx="307.79" cy="199.79" r=".82"/><circle class="f" cx="305.22" cy="149.84" r=".82"/><circle class="f" cx="306.73" cy="156.43" r=".82"/><circle class="f" cx="307.36" cy="162.06" r=".82"/><circle class="f" cx="308.24" cy="168.41" r=".82"/><circle class="f" cx="307.57" cy="173.53" r=".82"/><circle class="f" cx="306.7" cy="178.39" r=".82"/><circle class="f" cx="305.44" cy="183.53" r=".82"/><circle class="f" cx="304.09" cy="188.15" r=".82"/><circle class="f" cx="302.29" cy="193.48" r=".82"/><circle class="f" cx="300.49" cy="199.04" r=".82"/><circle class="f" cx="298.11" cy="204.85" r=".82"/><circle class="f" cx="295.59" cy="212.08" r=".82"/><circle class="f" cx="292.02" cy="216.9" r=".82"/><circle class="f" cx="288.44" cy="224.73" r=".82"/><circle class="f" cx="302.59" cy="225.23" r=".82"/><circle class="f" cx="295.57" cy="229.95" r=".82"/><circle class="f" cx="294.64" cy="250.23" r=".82"/><circle class="f" cx="290.27" cy="261.38" r=".82"/><circle class="f" cx="285.84" cy="256.07" r=".82"/><circle class="f" cx="281.25" cy="259.45" r=".82"/><circle class="f" cx="283.1" cy="244.18" r=".82"/><circle class="f" cx="280.69" cy="233.97" r=".82"/><circle class="f" cx="276.88" cy="225.36" r=".82"/><circle class="f" cx="275.86" cy="215.69" r=".82"/><circle class="f" cx="273.2" cy="206.66" r=".82"/><circle class="f" cx="271.44" cy="197.76" r=".82"/><circle class="f" cx="269.06" cy="187" r=".82"/><circle class="f" cx="264.55" cy="176.98" r=".82"/><circle class="f" cx="259.19" cy="165.28" r=".82"/><circle class="f" cx="254.4" cy="154.85" r=".82"/><circle class="f" cx="248.42" cy="146.97" r=".82"/><circle class="f" cx="242.2" cy="139.02" r=".82"/><circle class="f" cx="236.1" cy="132.74" r=".82"/><circle class="f" cx="227.04" cy="126.91" r=".82"/><circle class="f" cx="317.47" cy="216.72" r=".82"/><circle class="f" cx="323.8" cy="213.8" r=".82"/><circle class="f" cx="330.03" cy="208.41" r=".82"/><circle class="f" cx="336.29" cy="204.18" r=".82"/><circle class="f" cx="342.49" cy="199.04" r=".82"/><circle class="f" cx="347.23" cy="192.99" r=".82"/><circle class="f" cx="352.7" cy="189.65" r=".82"/><circle class="f" cx="360.51" cy="178.39" r=".82"/><circle class="f" cx="356.79" cy="183.7" r=".82"/><circle class="f" cx="273.25" cy="253.45" r=".82"/><circle class="f" cx="264.55" cy="247.48" r=".82"/><circle class="f" cx="264.55" cy="238.46" r=".82"/><circle class="f" cx="254.53" cy="241.43" r=".82"/><circle class="f" cx="247.27" cy="235.37" r=".82"/><circle class="f" cx="256" cy="231.1" r=".82"/><circle class="f" cx="248.42" cy="219.77" r=".82"/><circle class="f" cx="236.09" cy="229.33" r=".82"/><circle class="f" cx="226.99" cy="222.81" r=".82"/><circle class="f" cx="240.5" cy="211.24" r=".82"/><circle class="f" cx="217.16" cy="218.06" r=".82"/><circle class="f" cx="206.55" cy="213.08" r=".82"/><circle class="f" cx="196.04" cy="206.85" r=".82"/><circle class="f" cx="182.63" cy="204.76" r=".82"/><circle class="f" cx="172.45" cy="199.68" r=".82"/><circle class="f" cx="160.92" cy="196.37" r=".82"/><circle class="f" cx="149.48" cy="195.87" r=".82"/><circle class="f" cx="135.87" cy="194.12" r=".82"/><circle class="f" cx="123.85" cy="197.45" r=".82"/><circle class="f" cx="110.85" cy="204.76" r=".82"/><circle class="f" cx="237.03" cy="202.72" r=".82"/><circle class="f" cx="233.02" cy="192.83" r=".82"/><circle class="f" cx="232.03" cy="183.4" r=".82"/><path class="i" d="m288.02,266.89c6.12,5.83-1.48,8.01.53-.15-2.01,8.16-7.73,2.71.4.38-8.13,2.33-6.25-5.3-.13.53-6.12-5.83,1.48-8.01-.53.15,2.01-8.16,7.73-2.71-.4-.38,8.13-2.33,6.25,5.3.13-.53Z"/><path class="d" d="m288.02,266.89c6.12,5.83-1.48,8.01.53-.15-2.01,8.16-7.73,2.71.4.38-8.13,2.33-6.25-5.3-.13.53-6.12-5.83,1.48-8.01-.53.15,2.01-8.16,7.73-2.71-.4-.38,8.13-2.33,6.25,5.3.13-.53Z"/><circle class="f" cx="288.42" cy="267.27" r=".48"/><path class="i" d="m288.91,273.16c6.12,5.83-1.48,8.01.53-.15-2.01,8.16-7.73,2.71.4.38-8.13,2.33-6.25-5.3-.13.53-6.12-5.83,1.48-8.01-.53.15,2.01-8.16,7.73-2.71-.4-.38,8.13-2.33,6.25,5.3.13-.53Z"/><path class="d" d="m288.91,273.16c6.12,5.83-1.48,8.01.53-.15-2.01,8.16-7.73,2.71.4.38-8.13,2.33-6.25-5.3-.13.53-6.12-5.83,1.48-8.01-.53.15,2.01-8.16,7.73-2.71-.4-.38,8.13-2.33,6.25,5.3.13-.53Z"/><circle class="f" cx="289.31" cy="273.54" r=".48"/><path class="i" d="m288.02,277.76c6.12,5.83-1.48,8.01.53-.15-2.01,8.16-7.73,2.71.4.38-8.13,2.33-6.25-5.3-.13.53-6.12-5.83,1.48-8.01-.53.15,2.01-8.16,7.73-2.71-.4-.38,8.13-2.33,6.25,5.3.13-.53Z"/><path class="d" d="m288.02,277.76c6.12,5.83-1.48,8.01.53-.15-2.01,8.16-7.73,2.71.4.38-8.13,2.33-6.25-5.3-.13.53-6.12-5.83,1.48-8.01-.53.15,2.01-8.16,7.73-2.71-.4-.38,8.13-2.33,6.25,5.3.13-.53Z"/><circle class="f" cx="288.42" cy="278.14" r=".48"/><path class="i" d="m288.27,282.53c6.12,5.83-1.48,8.01.53-.15-2.01,8.16-7.73,2.71.4.38-8.13,2.33-6.25-5.3-.13.53-6.12-5.83,1.48-8.01-.53.15,2.01-8.16,7.73-2.71-.4-.38,8.13-2.33,6.25,5.3.13-.53Z"/><path class="d" d="m288.27,282.53c6.12,5.83-1.48,8.01.53-.15-2.01,8.16-7.73,2.71.4.38-8.13,2.33-6.25-5.3-.13.53-6.12-5.83,1.48-8.01-.53.15,2.01-8.16,7.73-2.71-.4-.38,8.13-2.33,6.25,5.3.13-.53Z"/><circle class="f" cx="288.67" cy="282.91" r=".48"/><path class="i" d="m288.74,286.97c6.12,5.83-1.48,8.01.53-.15-2.01,8.16-7.73,2.71.4.38-8.13,2.33-6.25-5.3-.13.53-6.12-5.83,1.48-8.01-.53.15,2.01-8.16,7.73-2.71-.4-.38,8.13-2.33,6.25,5.3.13-.53Z"/><path class="d" d="m288.74,286.97c6.12,5.83-1.48,8.01.53-.15-2.01,8.16-7.73,2.71.4.38-8.13,2.33-6.25-5.3-.13.53-6.12-5.83,1.48-8.01-.53.15,2.01-8.16,7.73-2.71-.4-.38,8.13-2.33,6.25,5.3.13-.53Z"/><circle class="f" cx="289.13" cy="287.35" r=".48"/><path class="g" d="m280.47,326.61s4.15-1.48,4.49-1.22c0,0,3.72-.62,3.9.09.18.71,0,.78,0,.78,0,0,2.48-.58,3.7.29l-.37.45,4.33.85-.51.42,4.16,1.72-.65.16,3.3,2.19-.26.33,3.03,2.7-.48.23,2.02,3.1-.54.28,1.51,3.48-.53.13.79,3.89-.51-.18.13,4.02-.51-.18-.53,4.27-.78-.19-.48,3.38-.42-.15-.84,3.15-.36-.32-1.27,2.66-2-2.91-.11.32-2.54-2.16-.12.4-2.55-1.71-.11.39-2.4-1.47-.02.44-2.65-1.9.03.52-2.9-1.86-.04.41-2.5-1.59v.44s-2.9-2.19-2.9-2.19l-.03.27-2.28-2.73-.08.35-1.56-3.28-.26.31-.96-3.95-.33.33.32-4.24-.45.29.93-4.53-.56.04,2.9-5.85-1.78-.48.26-.74,2.37.75Z"/><path class="b" d="m279.2,328.57s8.92,5.46,14.41,14.33,8.12,13.41,9,21.02"/><path class="b" d="m285.47,333.4s-.56,16.97,4.38,22.43"/><path class="b" d="m290.79,338.95s.7,16.12,4.26,19.42"/><path class="b" d="m295.45,346.99s1.35,12.04,3.37,13.63"/><path class="b" d="m298.81,349.86s5.92,4.07,5.81,4.84"/><path class="b" d="m293.6,342.9s10.47,3.01,13.43,8.71"/><path class="b" d="m288,335.82s12.33,1.39,19.93,12.13"/><path class="b" d="m283.67,329.75s7.8-1.65,20.72,6.56"/><path class="b" d="m282.09,331.26s-2.2,15.96,2.78,21.24"/><path class="g" d="m288.88,293.55s4.15-1.48,4.49-1.22c0,0,3.72-.62,3.9.09.18.71,0,.78,0,.78,0,0,2.48-.58,3.7.29l-.37.45,4.33.85-.51.42,4.16,1.72-.65.16,3.3,2.19-.26.33,3.03,2.7-.48.23,2.02,3.1-.54.28,1.51,3.48-.53.13.79,3.89-.51-.18.13,4.02-.51-.18-.53,4.27-.78-.19-.48,3.38-.42-.15-.84,3.15-.36-.32-1.27,2.66-2-2.91-.11.32-2.54-2.16-.12.4-2.55-1.71-.11.39-2.4-1.47-.02.44-2.65-1.9.03.52-2.9-1.86-.04.41-2.5-1.59v.44s-2.9-2.19-2.9-2.19l-.03.27-2.28-2.73-.08.35-1.56-3.28-.26.31-.96-3.95-.33.33.32-4.24-.45.29.93-4.53-.56.04,2.9-5.85-1.78-.48.26-.74,2.37.75Z"/><path class="b" d="m288.04,294.03s8.92,5.46,14.41,14.33,8.12,13.41,9,21.02"/><path class="b" d="m295.45,301.47s-.56,16.97,4.38,22.43"/><path class="b" d="m299.62,304.4s.7,16.12,4.26,19.42"/><path class="b" d="m304.29,312.45s1.35,12.04,3.37,13.63"/><path class="b" d="m307.65,315.31s5.92,4.07,5.81,4.84"/><path class="b" d="m302.44,308.36s10.47,3.01,13.43,8.71"/><path class="b" d="m296.84,301.27s12.33,1.39,19.93,12.13"/><path class="b" d="m293.22,299.32s7.8-1.65,20.72,6.56"/><path class="b" d="m292.07,299.34s-2.2,15.96,2.78,21.24"/><path class="g" d="m280.26,294.66s-3.18-2.61-3.56-2.46c0,0-3.07-1.67-3.45-1.05-.38.62-.25.73-.25.73,0,0-1.99-1.27-3.34-.8l.18.53-4.07-.45.31.54-4.19.43.52.34-3.58,1.12.13.39-3.51,1.68.35.36-2.75,2.36.39.42-2.42,2.86.43.28-1.92,3.46.5-.02-1.38,3.78.5-.02-.88,4.21.75.05-.64,3.35.41-.02-.25,3.23.41-.2.28,2.89,2.67-2.18v.34s2.9-1.31,2.9-1.31l-.02.42,2.77-.89-.02.4,2.57-.7-.12.42,2.92-1.03-.19.49,3.13-.92-.1.4,2.7-.79-.13.42,3.22-1.25-.06.26,2.86-1.93-.04.36,2.4-2.66.13.37,2.08-3.47.18.41,1.05-4.12.31.41.6-4.57.48.2-.7-6.39,1.72.06v-.78s-2.31.02-2.31.02Z"/><path class="b" d="m280.85,295.35s-9.54,2.59-17.14,9.42c-7.6,6.83-11.33,10.37-14.5,17.35"/><path class="b" d="m272.93,298.66s-4.84,16.28-10.89,20.02"/><path class="b" d="m266.53,302.39s-5.68,15.1-9.83,17.2"/><path class="b" d="m259.91,308.67s-4.96,11.04-7.23,11.96"/><path class="b" d="m256.06,310.41s-6.47,2.14-6.62,2.91"/><path class="b" d="m263.71,304.78s-10.14-.18-14.52,4.37"/><path class="b" d="m270.86,299.68s-11.25-2.26-21.3,5.73"/><path class="b" d="m276.46,296.72s-6.32-3.83-20.24.21"/><path class="b" d="m276.57,297.61s-3.08,15.79-9.11,19.36"/><path class="g" d="m266.32,342.26s-2.33-3.39-2.74-3.35c0,0-2.49-2.45-3.02-1.97-.54.49-.44.64-.44.64,0,0-1.56-1.77-2.99-1.69l.03.56-3.79-1.56.15.61-4.14-.75.41.47-3.75.09v.41s-3.82.64-3.82.64l.24.44-3.29,1.51.26.51-3.11,2.08.33.39-2.8,2.79.49.12-2.37,3.25.49.12-2.01,3.81.7.25-1.55,3.04.4.1-1.14,3.04.45-.07-.54,2.86,3.17-1.35-.1.32,3.16-.46-.14.4,2.91-.09-.13.38,2.66.04-.23.37,3.1-.18-.32.41,3.26-.02-.2.36h2.81s-.25.36-.25.36l3.44-.3-.13.23,3.28-1.06-.14.33,3.04-1.9.02.39,2.96-2.75.06.45,2.15-3.67.18.47,1.84-4.23.41.32,1.09-6.34,1.63.54.22-.75-2.23-.62Z"/><path class="b" d="m266.69,343.1s-9.89-.15-19.08,4.31c-9.19,4.46-13.76,6.83-18.74,12.65"/><path class="b" d="m259.18,343.8s-9.15,14.3-16.01,16.22"/><path class="b" d="m251.99,345.61s-9.64,12.94-14.21,13.81"/><path class="b" d="m243.89,349.82s-7.83,9.24-10.26,9.49"/><path class="b" d="m239.71,350.43s-6.81.26-7.17.96"/><path class="b" d="m247.61,347.4s-9.69-2.98-15.16.17"/><path class="b" d="m255.89,344.48s-10.18-5.29-22.05-.39"/><path class="b" d="m262.09,343.19s-5.01-5.43-19.51-5.4"/><path class="i" d="m373.83,196.86c8.92,7.25,10.76-2.69-.13.69,10.89-3.39,2.55-10.16.58.47,1.97-10.64-8.21-7.47.71-.22-8.92-7.25-10.76,2.69.13-.69-10.89,3.39-2.55,10.16-.58-.47-1.97,10.64,8.21,7.47-.71.22Z"/><path class="d" d="m373.83,196.86c8.92,7.25,10.76-2.69-.13.69,10.89-3.39,2.55-10.16.58.47,1.97-10.64-8.21-7.47.71-.22-8.92-7.25-10.76,2.69.13-.69-10.89,3.39-2.55,10.16-.58-.47-1.97,10.64,8.21,7.47-.71.22Z"/><path class="i" d="m310.88,241.88c9.63,1.64,9.23-5.37.03.49,9.2-5.86.2-7.39.63.11-.42-7.5-9.03-2.03.6-.38-9.63-1.64-9.23,5.37-.03-.49-9.2,5.86-.2,7.39-.63-.11.42,7.5,9.03,2.03-.6.38Z"/><path class="d" d="m310.88,241.88c9.63,1.64,9.23-5.37.03.49,9.2-5.86.2-7.39.63.11-.42-7.5-9.03-2.03.6-.38-9.63-1.64-9.23,5.37-.03-.49-9.2,5.86-.2,7.39-.63-.11.42,7.5,9.03,2.03-.6.38Z"/><path class="i" d="m318.26,240.17c5.08,5.69,10.47-1.42-.38.5,10.85-1.91,6.1-7.24.33.37,5.77-7.61-4.37-5.82.71-.12-5.08-5.69-10.47,1.42.38-.5-10.85,1.91-6.1,7.24-.33-.37-5.77,7.61,4.37,5.82-.71.12Z"/><path class="d" d="m318.26,240.17c5.08,5.69,10.47-1.42-.38.5,10.85-1.91,6.1-7.24.33.37,5.77-7.61-4.37-5.82.71-.12-5.08-5.69-10.47,1.42.38-.5-10.85,1.91-6.1,7.24-.33-.37-5.77,7.61,4.37,5.82-.71.12Z"/><path class="i" d="m324.36,238.34c5.48,5.46,10.5-1.73-.35.5,10.85-2.23,5.73-7.33.36.36,5.37-7.69-4.77-5.61.71-.15-5.48-5.46-10.5,1.73.35-.5-10.85,2.23-5.73,7.33-.36-.36-5.37,7.69,4.77,5.61-.71.15Z"/><path class="d" d="m324.36,238.34c5.48,5.46,10.5-1.73-.35.5,10.85-2.23,5.73-7.33.36.36,5.37-7.69-4.77-5.61.71-.15-5.48-5.46-10.5,1.73.35-.5-10.85,2.23-5.73,7.33-.36-.36-5.37,7.69,4.77,5.61-.71.15Z"/><path class="i" d="m330.2,237.22c10.84-3.08,4.68-7.49.43.31,4.25-7.8-5.89-4.92.71-.2-6.59-4.72-10.57,2.57.28-.51-10.84,3.08-4.68,7.49-.43-.31-4.25,7.8,5.89,4.92-.71.2,6.59,4.72,10.57-2.57-.28.51Z"/><path class="d" d="m330.2,237.22c10.84-3.08,4.68-7.49.43.31,4.25-7.8-5.89-4.92.71-.2-6.59-4.72-10.57,2.57.28-.51-10.84,3.08-4.68,7.49-.43-.31-4.25,7.8,5.89,4.92-.71.2,6.59,4.72,10.57-2.57-.28.51Z"/><path class="i" d="m335.61,233.51c.58,7.46,9.1,1.84-.59.39,9.69,1.45,9.15-5.53.04.49,9.11-6.02.06-7.37.63.09-.58-7.46-9.1-1.84.59-.39-9.69-1.45-9.15,5.53-.04-.49-9.11,6.02-.06,7.37-.63-.09Z"/><path class="d" d="m335.61,233.51c.58,7.46,9.1,1.84-.59.39,9.69,1.45,9.15-5.53.04.49,9.11-6.02.06-7.37.63.09-.58-7.46-9.1-1.84.59-.39-9.69-1.45-9.15,5.53-.04-.49-9.11,6.02-.06,7.37-.63-.09Z"/><path class="i" d="m339.17,231.31c9.63,1.64,9.23-5.37.03.49,9.2-5.86.2-7.39.63.11-.42-7.5-9.03-2.03.6-.38-9.63-1.64-9.23,5.37-.03-.49-9.2,5.86-.2,7.39-.63-.11.42,7.5,9.03,2.03-.6.38Z"/><path class="d" d="m339.17,231.31c9.63,1.64,9.23-5.37.03.49,9.2-5.86.2-7.39.63.11-.42-7.5-9.03-2.03.6-.38-9.63-1.64-9.23,5.37-.03-.49-9.2,5.86-.2,7.39-.63-.11.42,7.5,9.03,2.03-.6.38Z"/><path class="i" d="m343.72,227.94c9.63,1.64,9.23-5.37.03.49,9.2-5.86.2-7.39.63.11-.42-7.5-9.03-2.03.6-.38-9.63-1.64-9.23,5.37-.03-.49-9.2,5.86-.2,7.39-.63-.11.42,7.5,9.03,2.03-.6.38Z"/><path class="d" d="m343.72,227.94c9.63,1.64,9.23-5.37.03.49,9.2-5.86.2-7.39.63.11-.42-7.5-9.03-2.03.6-.38-9.63-1.64-9.23,5.37-.03-.49-9.2,5.86-.2,7.39-.63-.11.42,7.5,9.03,2.03-.6.38Z"/><path class="i" d="m347.7,224.78c9.63,1.64,9.23-5.37.03.49,9.2-5.86.2-7.39.63.11-.42-7.5-9.03-2.03.6-.38-9.63-1.64-9.23,5.37-.03-.49-9.2,5.86-.2,7.39-.63-.11.42,7.5,9.03,2.03-.6.38Z"/><path class="d" d="m347.7,224.78c9.63,1.64,9.23-5.37.03.49,9.2-5.86.2-7.39.63.11-.42-7.5-9.03-2.03.6-.38-9.63-1.64-9.23,5.37-.03-.49-9.2,5.86-.2,7.39-.63-.11.42,7.5,9.03,2.03-.6.38Z"/><path class="i" d="m351.68,221.06c9.63,1.64,9.23-5.37.03.49,9.2-5.86.2-7.39.63.11-.42-7.5-9.03-2.03.6-.38-9.63-1.64-9.23,5.37-.03-.49-9.2,5.86-.2,7.39-.63-.11.42,7.5,9.03,2.03-.6.38Z"/><path class="d" d="m351.68,221.06c9.63,1.64,9.23-5.37.03.49,9.2-5.86.2-7.39.63.11-.42-7.5-9.03-2.03.6-.38-9.63-1.64-9.23,5.37-.03-.49-9.2,5.86-.2,7.39-.63-.11.42,7.5,9.03,2.03-.6.38Z"/><path class="i" d="m356.19,217.1c9.63,1.64,9.23-5.37.03.49,9.2-5.86.2-7.39.63.11-.42-7.5-9.03-2.03.6-.38-9.63-1.64-9.23,5.37-.03-.49-9.2,5.86-.2,7.39-.63-.11.42,7.5,9.03,2.03-.6.38Z"/><path class="d" d="m356.19,217.1c9.63,1.64,9.23-5.37.03.49,9.2-5.86.2-7.39.63.11-.42-7.5-9.03-2.03.6-.38-9.63-1.64-9.23,5.37-.03-.49-9.2,5.86-.2,7.39-.63-.11.42,7.5,9.03,2.03-.6.38Z"/><path class="i" d="m360.68,212.51c9.63,1.64,9.23-5.37.03.49,9.2-5.86.2-7.39.63.11-.42-7.5-9.03-2.03.6-.38-9.63-1.64-9.23,5.37-.03-.49-9.2,5.86-.2,7.39-.63-.11.42,7.5,9.03,2.03-.6.38Z"/><path class="d" d="m360.68,212.51c9.63,1.64,9.23-5.37.03.49,9.2-5.86.2-7.39.63.11-.42-7.5-9.03-2.03.6-.38-9.63-1.64-9.23,5.37-.03-.49-9.2,5.86-.2,7.39-.63-.11.42,7.5,9.03,2.03-.6.38Z"/><path class="i" d="m366.53,207.14c9.63,1.64,9.23-5.37.03.49,9.2-5.86.2-7.39.63.11-.42-7.5-9.03-2.03.6-.38-9.63-1.64-9.23,5.37-.03-.49-9.2,5.86-.2,7.39-.63-.11.42,7.5,9.03,2.03-.6.38Z"/><path class="d" d="m366.53,207.14c9.63,1.64,9.23-5.37.03.49,9.2-5.86.2-7.39.63.11-.42-7.5-9.03-2.03.6-.38-9.63-1.64-9.23,5.37-.03-.49-9.2,5.86-.2,7.39-.63-.11.42,7.5,9.03,2.03-.6.38Z"/><path class="i" d="m369.52,201.86c9.63,1.64,9.23-5.37.03.49,9.2-5.86.2-7.39.63.11-.42-7.5-9.03-2.03.6-.38-9.63-1.64-9.23,5.37-.03-.49-9.2,5.86-.2,7.39-.63-.11.42,7.5,9.03,2.03-.6.38Z"/><path class="d" d="m369.52,201.86c9.63,1.64,9.23-5.37.03.49,9.2-5.86.2-7.39.63.11-.42-7.5-9.03-2.03.6-.38-9.63-1.64-9.23,5.37-.03-.49-9.2,5.86-.2,7.39-.63-.11.42,7.5,9.03,2.03-.6.38Z"/><ellipse class="f" cx="311.51" cy="241.99" rx=".82" ry=".88" transform="translate(11.08 497.61) rotate(-78.23)"/><ellipse class="f" cx="344.19" cy="228.17" rx=".82" ry=".88" transform="translate(50.62 518.6) rotate(-78.23)"/><ellipse class="f" cx="348.01" cy="225.02" rx=".82" ry=".88" transform="translate(56.75 519.83) rotate(-78.23)"/><ellipse class="f" cx="352.31" cy="221.17" rx=".82" ry=".88" transform="translate(63.95 520.97) rotate(-78.23)"/><ellipse class="f" cx="356.82" cy="217.2" rx=".82" ry=".88" transform="translate(71.42 522.24) rotate(-78.23)"/><ellipse class="f" cx="361.31" cy="212.62" rx=".82" ry=".88" transform="translate(79.48 522.98) rotate(-78.23)"/><ellipse class="f" cx="367.09" cy="207.3" rx=".82" ry=".88" transform="translate(89.29 524.41) rotate(-78.23)"/><ellipse class="f" cx="374.41" cy="197.33" rx=".82" ry=".88" transform="translate(104.88 523.63) rotate(-78.23)"/><path class="i" d="m376.3,192.57c11.65-.28,5.6-8.9.42.6,5.18-9.5-5.71-9.23.76-.02-6.47-9.22-11.31-.34.34-.62-11.65.28-5.6,8.9-.42-.6-5.18,9.5,5.71,9.23-.76.02,6.47,9.22,11.31.34-.34.62Z"/><path class="d" d="m376.3,192.57c11.65-.28,5.6-8.9.42.6,5.18-9.5-5.71-9.23.76-.02-6.47-9.22-11.31-.34.34-.62-11.65.28-5.6,8.9-.42-.6-5.18,9.5,5.71,9.23-.76.02,6.47,9.22,11.31.34-.34.62Z"/><ellipse class="f" cx="377.06" cy="192.55" rx=".82" ry=".88" transform="translate(111.66 522.42) rotate(-78.23)"/><ellipse class="f" cx="339.75" cy="231.35" rx=".82" ry=".88" transform="translate(43.97 516.79) rotate(-78.23)"/><ellipse class="f" cx="335.64" cy="234" rx=".82" ry=".88" transform="translate(38.12 514.87) rotate(-78.23)"/><ellipse class="f" cx="330.91" cy="237.02" rx=".82" ry=".88" transform="translate(31.39 512.64) rotate(-78.23)"/><ellipse class="f" cx="324.63" cy="238.71" rx=".82" ry=".88" transform="translate(24.74 507.84) rotate(-78.23)"/><ellipse class="f" cx="318.59" cy="240.54" rx=".82" ry=".88" transform="translate(18.14 503.39) rotate(-78.23)"/></svg>