<?xml version="1.0" encoding="UTF-8"?><svg id="a" xmlns="http://www.w3.org/2000/svg" width="595.28" height="841.89" viewBox="0 0 595.28 841.89"><defs><style>.b{fill:#6d9142;opacity:.4;}.b,.c,.d,.e{stroke-width:0px;}.f,.g,.h{fill:none;stroke:#00673a;stroke-miterlimit:10;}.i{opacity:.8;}.g{isolation:isolate;opacity:.5;stroke-width:.5px;}.c{fill:#f8eb48;}.d{fill:#079248;}.e{fill:#fff;}.h{stroke-width:.25px;}</style></defs><path class="e" d="m228.27,230.58c-12.61,1.27-10.39-7.67-.15.63-10.24-8.3,1.53-9.47-.83.08,2.35-9.57,11.93-1.8-.67-.53,12.61-1.27,10.39,7.67.15-.63,10.24,8.3-1.53,9.47.83-.08-2.35,9.57-11.93,1.8.67.53Z"/><path class="h" d="m228.27,230.58c-12.61,1.27-10.39-7.67-.15.63-10.24-8.3,1.53-9.47-.83.08,2.35-9.57,11.93-1.8-.67-.53,12.61-1.27,10.39,7.67.15-.63,10.24,8.3-1.53,9.47.83-.08-2.35,9.57-11.93,1.8.67.53Z"/><path class="e" d="m276.77,299c-11-3.61-7.62-9.05-.23.38-7.4-9.41,2.89-6.05-.72-.23,3.61-5.82,10.51,2.99-.49-.61,11,3.61,7.62,9.05.23-.38,7.4,9.41-2.89,6.05.72.23-3.61,5.82-10.51-2.99.49.61Z"/><path class="h" d="m276.77,299c-11-3.61-7.62-9.05-.23.38-7.4-9.41,2.89-6.05-.72-.23,3.61-5.82,10.51,2.99-.49-.61,11,3.61,7.62,9.05.23-.38,7.4,9.41-2.89,6.05.72.23-3.61,5.82-10.51-2.99.49.61Z"/><path class="e" d="m269.59,293.84c-7.84,1.99-10.62-6.49.2.6-10.82-7.09-3.5-8.94-.5.12-2.98-9.08,7.12-2.44-.7-.46,7.84-1.99,10.62,6.49-.2-.6,10.82,7.09,3.5,8.94.5-.12,2.98,9.08-7.12,2.44.7.46Z"/><path class="h" d="m269.59,293.84c-7.84,1.99-10.62-6.49.2.6-10.82-7.09-3.5-8.94-.5.12-2.98-9.08,7.12-2.44-.7-.46,7.84-1.99,10.62,6.49-.2-.6,10.82,7.09,3.5,8.94.5-.12,2.98,9.08-7.12,2.44.7.46Z"/><path class="e" d="m263.83,289.25c-8.16,1.59-10.53-6.77.17.58-10.68-7.35-3.06-8.83-.53.11-2.52-8.94,7.47-2.06-.7-.47,8.16-1.59,10.53,6.77-.17-.58,10.68,7.35,3.06,8.83.53-.11,2.52,8.94-7.47,2.06.7.47Z"/><path class="h" d="m263.83,289.25c-8.16,1.59-10.53-6.77.17.58-10.68-7.35-3.06-8.83-.53.11-2.52-8.94,7.47-2.06-.7-.47,8.16-1.59,10.53,6.77-.17-.58,10.68,7.35,3.06,8.83.53-.11,2.52,8.94-7.47,2.06.7.47Z"/><path class="e" d="m258.04,285.36c-10.31-8.02-1.86-8.42-.6.03-1.28-8.45,8.37-.95-.67-.52,9.05-.43,10.24,7.47-.08-.55,10.31,8.02,1.86,8.42.6-.03,1.28,8.45-8.37.95.67.52-9.05.43-10.24-7.47.08.55Z"/><path class="h" d="m258.04,285.36c-10.31-8.02-1.86-8.42-.6.03-1.28-8.45,8.37-.95-.67-.52,9.05-.43,10.24,7.47-.08-.55,10.31,8.02,1.86,8.42.6-.03,1.28,8.45-8.37.95.67.52-9.05.43-10.24-7.47.08.55Z"/><path class="e" d="m253.82,279.61c-3.74,5.71-10.51-3.18.47.63-10.99-3.79-7.47-9.12-.24.37-7.23-9.5,3.04-5.96-.72-.24,3.74-5.71,10.51,3.18-.47-.63,10.99,3.79,7.47,9.12.24-.37,7.23,9.5-3.04,5.96.72.24Z"/><path class="h" d="m253.82,279.61c-3.74,5.71-10.51-3.18.47.63-10.99-3.79-7.47-9.12-.24.37-7.23-9.5,3.04-5.96-.72-.24,3.74-5.71,10.51,3.18-.47-.63,10.99,3.79,7.47,9.12.24-.37,7.23,9.5-3.04,5.96.72.24Z"/><path class="e" d="m250.92,276.02c-11-3.61-7.63-9.05-.23.38-7.4-9.41,2.89-6.05-.72-.23,3.61-5.82,10.51,2.99-.49-.61,11,3.61,7.62,9.05.23-.38,7.4,9.41-2.89,6.05.72.23-3.61,5.82-10.51-2.99.49.61Z"/><path class="h" d="m250.92,276.02c-11-3.61-7.63-9.05-.23.38-7.4-9.41,2.89-6.05-.72-.23,3.61-5.82,10.51,2.99-.49-.61,11,3.61,7.62,9.05.23-.38,7.4,9.41-2.89,6.05.72.23-3.61,5.82-10.51-2.99.49.61Z"/><path class="e" d="m247.46,270.98c-11-3.61-7.63-9.05-.23.38-7.4-9.41,2.89-6.05-.72-.23,3.61-5.82,10.51,2.99-.49-.61,11,3.61,7.63,9.05.23-.38,7.4,9.41-2.89,6.05.72.23-3.61,5.82-10.51-2.99.49.61Z"/><path class="h" d="m247.46,270.98c-11-3.61-7.63-9.05-.23.38-7.4-9.41,2.89-6.05-.72-.23,3.61-5.82,10.51,2.99-.49-.61,11,3.61,7.63,9.05.23-.38,7.4,9.41-2.89,6.05.72.23-3.61,5.82-10.51-2.99.49.61Z"/><path class="e" d="m244.53,266.41c-11-3.61-7.63-9.05-.23.38-7.4-9.41,2.89-6.05-.72-.23,3.61-5.82,10.51,2.99-.49-.61,11,3.61,7.63,9.05.23-.38,7.4,9.41-2.89,6.05.72.23-3.61,5.82-10.51-2.99.49.61Z"/><path class="h" d="m244.53,266.41c-11-3.61-7.63-9.05-.23.38-7.4-9.41,2.89-6.05-.72-.23,3.61-5.82,10.51,2.99-.49-.61,11,3.61,7.63,9.05.23-.38,7.4,9.41-2.89,6.05.72.23-3.61,5.82-10.51-2.99.49.61Z"/><path class="e" d="m241.82,261.38c-11-3.61-7.63-9.05-.23.38-7.4-9.41,2.89-6.05-.72-.23,3.61-5.82,10.51,2.99-.49-.61,11,3.61,7.63,9.05.23-.38,7.4,9.41-2.89,6.05.72.23-3.61,5.82-10.51-2.99.49.61Z"/><path class="h" d="m241.82,261.38c-11-3.61-7.63-9.05-.23.38-7.4-9.41,2.89-6.05-.72-.23,3.61-5.82,10.51,2.99-.49-.61,11,3.61,7.63,9.05.23-.38,7.4,9.41-2.89,6.05.72.23-3.61,5.82-10.51-2.99.49.61Z"/><path class="e" d="m238.66,255.88c-11-3.61-7.63-9.05-.23.38-7.4-9.41,2.89-6.05-.72-.23,3.61-5.82,10.51,2.99-.49-.61,11,3.61,7.63,9.05.23-.38,7.4,9.41-2.89,6.05.72.23-3.61,5.82-10.51-2.99.49.61Z"/><path class="h" d="m238.66,255.88c-11-3.61-7.63-9.05-.23.38-7.4-9.41,2.89-6.05-.72-.23,3.61-5.82,10.51,2.99-.49-.61,11,3.61,7.63,9.05.23-.38,7.4,9.41-2.89,6.05.72.23-3.61,5.82-10.51-2.99.49.61Z"/><path class="e" d="m235.77,249.89c-11-3.61-7.63-9.05-.23.38-7.4-9.41,2.89-6.05-.72-.23,3.61-5.82,10.51,2.99-.49-.61,11,3.61,7.63,9.05.23-.38,7.4,9.41-2.89,6.05.72.23-3.61,5.82-10.51-2.99.49.61Z"/><path class="h" d="m235.77,249.89c-11-3.61-7.63-9.05-.23.38-7.4-9.41,2.89-6.05-.72-.23,3.61-5.82,10.51,2.99-.49-.61,11,3.61,7.63,9.05.23-.38,7.4,9.41-2.89,6.05.72.23-3.61,5.82-10.51-2.99.49.61Z"/><path class="e" d="m231.77,242.59c-11-3.61-7.63-9.05-.23.38-7.4-9.41,2.89-6.05-.72-.23,3.61-5.82,10.51,2.99-.49-.61,11,3.61,7.63,9.05.23-.38,7.4,9.41-2.89,6.05.72.23-3.61,5.82-10.51-2.99.49.61Z"/><path class="h" d="m231.77,242.59c-11-3.61-7.63-9.05-.23.38-7.4-9.41,2.89-6.05-.72-.23,3.61-5.82,10.51,2.99-.49-.61,11,3.61,7.63,9.05.23-.38,7.4,9.41-2.89,6.05.72.23-3.61,5.82-10.51-2.99.49.61Z"/><path class="e" d="m230.78,236.81c-11-3.61-7.63-9.05-.23.38-7.4-9.41,2.89-6.05-.72-.23,3.61-5.82,10.51,2.99-.49-.61,11,3.61,7.63,9.05.23-.38,7.4,9.41-2.89,6.05.72.23-3.61,5.82-10.51-2.99.49.61Z"/><path class="h" d="m230.78,236.81c-11-3.61-7.63-9.05-.23.38-7.4-9.41,2.89-6.05-.72-.23,3.61-5.82,10.51,2.99-.49-.61,11,3.61,7.63,9.05.23-.38,7.4,9.41-2.89,6.05.72.23-3.61,5.82-10.51-2.99.49.61Z"/><ellipse class="c" cx="276.08" cy="298.8" rx=".73" ry="1.05" transform="translate(-101.66 449.85) rotate(-69.06)"/><ellipse class="c" cx="246.88" cy="270.96" rx=".73" ry="1.05" transform="translate(-94.41 404.69) rotate(-69.06)"/><ellipse class="c" cx="244.11" cy="266.46" rx=".73" ry="1.05" transform="translate(-92 399.22) rotate(-69.06)"/><ellipse class="c" cx="241.13" cy="261.18" rx=".73" ry="1.05" transform="translate(-88.98 393.04) rotate(-69.06)"/><ellipse class="c" cx="237.96" cy="255.68" rx=".73" ry="1.05" transform="translate(-85.88 386.55) rotate(-69.06)"/><ellipse class="c" cx="235.08" cy="249.69" rx=".73" ry="1.05" transform="translate(-82.14 380.01) rotate(-69.06)"/><ellipse class="c" cx="231.12" cy="242.46" rx=".73" ry="1.05" transform="translate(-77.93 371.66) rotate(-69.06)"/><ellipse class="c" cx="227.46" cy="230.69" rx=".73" ry="1.05" transform="translate(-69.29 360.68) rotate(-69.06)"/><path class="e" d="m227.43,225.87c-12.35-6.19-2.26-10.02-.7.28-1.56-10.28,9.99-4.51-.81-.4,10.8-4.11,12.26,5.52-.11-.67,12.35,6.19,2.26,10.02.7-.28,1.56,10.28-9.99,4.51.81.4-10.8,4.11-12.26-5.52.11.67Z"/><path class="h" d="m227.43,225.87c-12.35-6.19-2.26-10.02-.7.28-1.56-10.28,9.99-4.51-.81-.4,10.8-4.11,12.26,5.52-.11-.67,12.35,6.19,2.26,10.02.7-.28,1.56,10.28-9.99,4.51.81.4-10.8,4.11-12.26-5.52.11.67Z"/><ellipse class="c" cx="226.63" cy="225.5" rx=".73" ry="1.05" transform="translate(-64.97 356.57) rotate(-69.06)"/><ellipse class="c" cx="250.31" cy="275.8" rx=".73" ry="1.05" transform="translate(-96.73 411) rotate(-69.06)"/><ellipse class="c" cx="253.6" cy="280.02" rx=".73" ry="1.05" transform="translate(-98.56 416.79) rotate(-69.06)"/><ellipse class="c" cx="257.38" cy="284.89" rx=".73" ry="1.05" transform="translate(-100.67 423.46) rotate(-69.06)"/><ellipse class="c" cx="263.41" cy="289.45" rx=".73" ry="1.05" transform="translate(-101.07 432.01) rotate(-69.06)"/><ellipse class="c" cx="269.11" cy="294.01" rx=".73" ry="1.05" transform="translate(-101.66 440.28) rotate(-69.06)"/><path class="e" d="m136.77,174.57c-23.03.57-13.91-13.23-.64.96-13.26-14.2,8.27-14.72-1.5.03,9.76-14.76,22.17-1.48-.87-.93,23.03-.57,13.91,13.23.64-.96,13.26,14.2-8.27,14.72,1.5-.03-9.76,14.76-22.17,1.48.87.93Z"/><path class="h" d="m136.77,174.57c-23.03.57-13.91-13.23-.64.96-13.26-14.2,8.27-14.72-1.5.03,9.76-14.76,22.17-1.48-.87-.93,23.03-.57,13.91,13.23.64-.96,13.26,14.2-8.27,14.72,1.5-.03-9.76,14.76-22.17,1.48.87.93Z"/><path class="e" d="m182.55,287.57c-17.34-6.91-8.21-15.07-.64.57-7.58-15.63,8.65-9.18-1.13-.44,9.78-8.73,16.85,5.88-.49-1.02,17.34,6.91,8.21,15.07.64-.57,7.58,15.63-8.65,9.18,1.13.44-9.78,8.73-16.85-5.88.49,1.02Z"/><path class="h" d="m182.55,287.57c-17.34-6.91-8.21-15.07-.64.57-7.58-15.63,8.65-9.18-1.13-.44,9.78-8.73,16.85,5.88-.49-1.02,17.34,6.91,8.21,15.07.64-.57,7.58,15.63-8.65,9.18,1.13.44-9.78,8.73-16.85-5.88.49,1.02Z"/><path class="e" d="m172.85,278.65c-15.02,2.23-14.99-11.41,0,.95-14.99-12.36-.95-14.44-.98.15.03-14.59,14.04-3.03-.98-.81,15.02-2.23,14.99,11.41,0-.95,14.99,12.36.95,14.44.98-.15-.03,14.59-14.04,3.03.98.81Z"/><path class="h" d="m172.85,278.65c-15.02,2.23-14.99-11.41,0,.95-14.99-12.36-.95-14.44-.98.15.03-14.59,14.04-3.03-.98-.81,15.02-2.23,14.99,11.41,0-.95,14.99,12.36.95,14.44.98-.15-.03,14.59-14.04,3.03.98.81Z"/><path class="e" d="m165.33,270.79c-15.37,1.57-14.65-11.83-.05.93-14.61-12.76-.24-14.23-1.01.11.76-14.32,14.41-2.4-.95-.83,15.37-1.57,14.65,11.83.05-.93,14.61,12.76.24,14.23,1.01-.11-.76,14.32-14.41,2.4.95.83Z"/><path class="h" d="m165.33,270.79c-15.37,1.57-14.65-11.83-.05.93-14.61-12.76-.24-14.23-1.01.11.76-14.32,14.41-2.4-.95-.83,15.37-1.57,14.65,11.83.05-.93,14.61,12.76.24,14.23,1.01-.11-.76,14.32-14.41,2.4.95.83Z"/><path class="e" d="m157.38,264.03c-13.57-13.77,1.62-13.45-1.05-.03,2.69-13.42,15.36-.55-.89-.9,16.24.35,13.74,12.9.17-.87,13.57,13.77-1.62,13.45,1.05.03-2.69,13.42-15.36.55.89.9-16.24-.35-13.74-12.9-.17.87Z"/><path class="h" d="m157.38,264.03c-13.57-13.77,1.62-13.45-1.05-.03,2.69-13.42,15.36-.55-.89-.9,16.24.35,13.74,12.9.17-.87,13.57,13.77-1.62,13.45,1.05.03-2.69,13.42-15.36.55.89.9-16.24-.35-13.74-12.9-.17.87Z"/><path class="e" d="m153.26,254.52c-9.98,8.54-16.75-6.17.47,1.02-17.22-7.2-7.88-15.19-.66.55-7.24-15.75,8.85-9.02-1.12-.47,9.98-8.54,16.75,6.17-.47-1.02,17.22,7.2,7.88,15.19.66-.55,7.24,15.75-8.85,9.02,1.12.47Z"/><path class="h" d="m153.26,254.52c-9.98,8.54-16.75-6.17.47,1.02-17.22-7.2-7.88-15.19-.66.55-7.24-15.75,8.85-9.02-1.12-.47,9.98-8.54,16.75,6.17-.47-1.02,17.22,7.2,7.88,15.19.66-.55,7.24,15.75-8.85,9.02,1.12.47Z"/><path class="e" d="m150.25,248.53c-17.34-6.91-8.21-15.07-.64.57-7.58-15.63,8.65-9.18-1.13-.44,9.78-8.73,16.85,5.88-.49-1.02,17.34,6.91,8.21,15.07.64-.57,7.58,15.63-8.65,9.18,1.13.44-9.78,8.73-16.85-5.88.49,1.02Z"/><path class="h" d="m150.25,248.53c-17.34-6.91-8.21-15.07-.64.57-7.58-15.63,8.65-9.18-1.13-.44,9.78-8.73,16.85,5.88-.49-1.02,17.34,6.91,8.21,15.07.64-.57,7.58,15.63-8.65,9.18,1.13.44-9.78,8.73-16.85-5.88.49,1.02Z"/><path class="e" d="m147.07,240.23c-17.34-6.91-8.21-15.07-.64.57-7.58-15.63,8.65-9.18-1.13-.44,9.78-8.73,16.85,5.88-.49-1.02,17.34,6.91,8.21,15.07.64-.57,7.58,15.63-8.65,9.18,1.13.44-9.78,8.73-16.85-5.88.49,1.02Z"/><path class="h" d="m147.07,240.23c-17.34-6.91-8.21-15.07-.64.57-7.58-15.63,8.65-9.18-1.13-.44,9.78-8.73,16.85,5.88-.49-1.02,17.34,6.91,8.21,15.07.64-.57,7.58,15.63-8.65,9.18,1.13.44-9.78,8.73-16.85-5.88.49,1.02Z"/><path class="e" d="m144.56,232.72c-17.34-6.91-8.21-15.07-.64.57-7.58-15.63,8.65-9.18-1.13-.44,9.78-8.73,16.85,5.88-.49-1.02,17.34,6.91,8.21,15.07.64-.57,7.58,15.63-8.65,9.18,1.13.44-9.78,8.73-16.85-5.88.49,1.02Z"/><path class="h" d="m144.56,232.72c-17.34-6.91-8.21-15.07-.64.57-7.58-15.63,8.65-9.18-1.13-.44,9.78-8.73,16.85,5.88-.49-1.02,17.34,6.91,8.21,15.07.64-.57,7.58,15.63-8.65,9.18,1.13.44-9.78,8.73-16.85-5.88.49,1.02Z"/><path class="e" d="m142.73,224.49c-17.34-6.91-8.21-15.07-.64.57-7.58-15.63,8.65-9.18-1.13-.44,9.78-8.73,16.85,5.88-.49-1.02,17.34,6.91,8.21,15.07.64-.57,7.58,15.63-8.65,9.18,1.13.44-9.78,8.73-16.85-5.88.49,1.02Z"/><path class="h" d="m142.73,224.49c-17.34-6.91-8.21-15.07-.64.57-7.58-15.63,8.65-9.18-1.13-.44,9.78-8.73,16.85,5.88-.49-1.02,17.34,6.91,8.21,15.07.64-.57,7.58,15.63-8.65,9.18,1.13.44-9.78,8.73-16.85-5.88.49,1.02Z"/><path class="e" d="m140.33,215.51c-17.34-6.91-8.21-15.07-.64.57-7.58-15.63,8.65-9.18-1.13-.44,9.78-8.73,16.85,5.88-.49-1.02,17.34,6.91,8.21,15.07.64-.57,7.58,15.63-8.65,9.18,1.13.44-9.78,8.73-16.85-5.88.49,1.02Z"/><path class="h" d="m140.33,215.51c-17.34-6.91-8.21-15.07-.64.57-7.58-15.63,8.65-9.18-1.13-.44,9.78-8.73,16.85,5.88-.49-1.02,17.34,6.91,8.21,15.07.64-.57,7.58,15.63-8.65,9.18,1.13.44-9.78,8.73-16.85-5.88.49,1.02Z"/><path class="e" d="m138.74,205.78c-17.34-6.91-8.21-15.07-.64.57-7.58-15.63,8.65-9.18-1.13-.44,9.78-8.73,16.85,5.88-.49-1.02,17.34,6.91,8.21,15.07.64-.57,7.58,15.63-8.65,9.18,1.13.44-9.78,8.73-16.85-5.88.49,1.02Z"/><path class="h" d="m138.74,205.78c-17.34-6.91-8.21-15.07-.64.57-7.58-15.63,8.65-9.18-1.13-.44,9.78-8.73,16.85,5.88-.49-1.02,17.34,6.91,8.21,15.07.64-.57,7.58,15.63-8.65,9.18,1.13.44-9.78,8.73-16.85-5.88.49,1.02Z"/><path class="e" d="m135.93,193.84c-17.34-6.91-8.21-15.07-.64.57-7.58-15.63,8.65-9.18-1.13-.44,9.78-8.73,16.85,5.88-.49-1.02,17.34,6.91,8.21,15.07.64-.57,7.58,15.63-8.65,9.18,1.13.44-9.78,8.73-16.85-5.88.49,1.02Z"/><path class="h" d="m135.93,193.84c-17.34-6.91-8.21-15.07-.64.57-7.58-15.63,8.65-9.18-1.13-.44,9.78-8.73,16.85,5.88-.49-1.02,17.34,6.91,8.21,15.07.64-.57,7.58,15.63-8.65,9.18,1.13.44-9.78,8.73-16.85-5.88.49,1.02Z"/><path class="e" d="m137.56,184.64c-17.34-6.91-8.21-15.07-.64.57-7.58-15.63,8.65-9.18-1.13-.44,9.78-8.73,16.85,5.88-.49-1.02,17.34,6.91,8.21,15.07.64-.57,7.58,15.63-8.65,9.18,1.13.44-9.78,8.73-16.85-5.88.49,1.02Z"/><path class="h" d="m137.56,184.64c-17.34-6.91-8.21-15.07-.64.57-7.58-15.63,8.65-9.18-1.13-.44,9.78-8.73,16.85,5.88-.49-1.02,17.34,6.91,8.21,15.07.64-.57,7.58,15.63-8.65,9.18,1.13.44-9.78,8.73-16.85-5.88.49,1.02Z"/><ellipse class="c" cx="181.44" cy="287.13" rx="1.27" ry="1.74" transform="translate(-121.25 441.22) rotate(-84.69)"/><ellipse class="c" cx="146.06" cy="240.1" rx="1.27" ry="1.74" transform="translate(-106.52 363.32) rotate(-84.69)"/><ellipse class="c" cx="143.79" cy="232.75" rx="1.27" ry="1.74" transform="translate(-101.26 354.38) rotate(-84.69)"/><ellipse class="c" cx="141.63" cy="224.06" rx="1.27" ry="1.74" transform="translate(-94.58 344.35) rotate(-84.69)"/><ellipse class="c" cx="139.21" cy="215.08" rx="1.27" ry="1.74" transform="translate(-87.82 333.79) rotate(-84.69)"/><ellipse class="c" cx="137.63" cy="205.34" rx="1.27" ry="1.74" transform="translate(-79.57 323.37) rotate(-84.69)"/><ellipse class="c" cx="134.87" cy="193.52" rx="1.27" ry="1.74" transform="translate(-70.3 309.9) rotate(-84.69)"/><ellipse class="c" cx="135.29" cy="174.63" rx="1.27" ry="1.74" transform="translate(-51.11 293.18) rotate(-84.69)"/><path class="e" d="m138.04,167.09c-18.23-11.12,1.86-16-1.41.34,3.27-16.33,20.32-5.94-1.19-.72,21.5-5.23,18.44,10.05.21-1.07,18.23,11.12-1.86,16,1.41-.34-3.27,16.33-20.32,5.94,1.19.72-21.5,5.23-18.44-10.05-.21,1.07Z"/><path class="h" d="m138.04,167.09c-18.23-11.12,1.86-16-1.41.34,3.27-16.33,20.32-5.94-1.19-.72,21.5-5.23,18.44,10.05.21-1.07,18.23,11.12-1.86,16,1.41-.34-3.27,16.33-20.32,5.94,1.19.72-21.5,5.23-18.44-10.05-.21,1.07Z"/><ellipse class="c" cx="136.87" cy="166.37" rx="1.27" ry="1.74" transform="translate(-41.45 287.25) rotate(-84.69)"/><ellipse class="c" cx="149.29" cy="248.08" rx="1.27" ry="1.74" transform="translate(-111.54 373.77) rotate(-84.69)"/><ellipse class="c" cx="152.63" cy="255.1" rx="1.27" ry="1.74" transform="translate(-115.5 383.46) rotate(-84.69)"/><ellipse class="c" cx="156.51" cy="263.15" rx="1.27" ry="1.74" transform="translate(-119.99 394.64) rotate(-84.69)"/><ellipse class="c" cx="164.48" cy="271.02" rx="1.27" ry="1.74" transform="translate(-120.6 409.71) rotate(-84.69)"/><ellipse class="c" cx="171.9" cy="278.83" rx="1.27" ry="1.74" transform="translate(-121.65 424.19) rotate(-84.69)"/><g class="i"><path class="d" d="m246.85,552.14c31.52-66.7,59.15-140.58,54.03-215.44-.95-10.6-2.67-21.12-5.24-31.43l3.64-1.01c2.96,10.48,4.91,21.21,6.07,32.03,4.95,54.22-9.11,108.31-28.71,158.46-8.13,20-17.36,39.59-28.48,58.11l-1.3-.73h0v.02Z"/></g><path class="e" d="m266.9,326.6c15.95,15.2-3.85,20.87,1.38-.4-5.23,21.27-20.14,7.06,1.04.99-21.18,6.07-16.29-13.81-.34,1.39-15.95-15.2,3.85-20.87-1.38.4,5.23-21.27,20.14-7.06-1.04-.99,21.18-6.07,16.29,13.81.34-1.39Z"/><path class="h" d="m266.9,326.6c15.95,15.2-3.85,20.87,1.38-.4-5.23,21.27-20.14,7.06,1.04.99-21.18,6.07-16.29-13.81-.34,1.39-15.95-15.2,3.85-20.87-1.38.4,5.23-21.27,20.14-7.06-1.04-.99,21.18-6.07,16.29,13.81.34-1.39Z"/><path class="e" d="m253.83,315.34c15.95,15.2-3.85,20.87,1.38-.4-5.23,21.27-20.14,7.06,1.04.99-21.18,6.07-16.29-13.81-.34,1.39-15.95-15.2,3.85-20.87-1.38.4,5.23-21.27,20.14-7.06-1.04-.99,21.18-6.07,16.29,13.81.34-1.39Z"/><path class="h" d="m253.83,315.34c15.95,15.2-3.85,20.87,1.38-.4-5.23,21.27-20.14,7.06,1.04.99-21.18,6.07-16.29-13.81-.34,1.39-15.95-15.2,3.85-20.87-1.38.4,5.23-21.27,20.14-7.06-1.04-.99,21.18-6.07,16.29,13.81.34-1.39Z"/><path class="f" d="m302.08,373.72s-29.89-199.63-94.86-216.34"/><path class="e" d="m32.04,275.09c15.95,15.2-3.85,20.87,1.38-.4-5.23,21.27-20.14,7.06,1.04.99-21.18,6.07-16.29-13.81-.34,1.39-15.95-15.2,3.85-20.87-1.38.4,5.23-21.27,20.14-7.06-1.04-.99,21.18-6.07,16.29,13.81.34-1.39Z"/><path class="h" d="m32.04,275.09c15.95,15.2-3.85,20.87,1.38-.4-5.23,21.27-20.14,7.06,1.04.99-21.18,6.07-16.29-13.81-.34,1.39-15.95-15.2,3.85-20.87-1.38.4,5.23-21.27,20.14-7.06-1.04-.99,21.18-6.07,16.29,13.81.34-1.39Z"/><path class="e" d="m70.27,258.83c15.95,15.2-3.85,20.87,1.38-.4-5.23,21.27-20.14,7.06,1.04.99-21.18,6.07-16.29-13.81-.34,1.39-15.95-15.2,3.85-20.87-1.38.4,5.23-21.27,20.14-7.06-1.04-.99,21.18-6.07,16.29,13.81.34-1.39Z"/><path class="h" d="m70.27,258.83c15.95,15.2-3.85,20.87,1.38-.4-5.23,21.27-20.14,7.06,1.04.99-21.18,6.07-16.29-13.81-.34,1.39-15.95-15.2,3.85-20.87-1.38.4,5.23-21.27,20.14-7.06-1.04-.99,21.18-6.07,16.29,13.81.34-1.39Z"/><path class="e" d="m90.88,261.73c18.63,11.78.32,21.22,1.28-.66-.96,21.88-18.37,10.86,1.21.76-19.59,10.1-18.69-10.36-.06,1.42-18.63-11.78-.32-21.22-1.28.66.96-21.88,18.37-10.86-1.21-.76,19.59-10.1,18.69,10.36.06-1.42Z"/><path class="h" d="m90.88,261.73c18.63,11.78.32,21.22,1.28-.66-.96,21.88-18.37,10.86,1.21.76-19.59,10.1-18.69-10.36-.06,1.42-18.63-11.78-.32-21.22-1.28.66.96-21.88,18.37-10.86-1.21-.76,19.59-10.1,18.69,10.36.06-1.42Z"/><path class="e" d="m108.35,262.56c19.12,10.96,1.25,21.19,1.25-.72,0,21.91-17.88,11.67,1.25.72-19.12,10.96-19.12-9.52,0,1.42-19.12-10.96-1.25-21.19-1.25.72,0-21.91,17.88-11.67-1.25-.72,19.12-10.96,19.12,9.52,0-1.42Z"/><path class="h" d="m108.35,262.56c19.12,10.96,1.25,21.19,1.25-.72,0,21.91-17.88,11.67,1.25.72-19.12,10.96-19.12-9.52,0,1.42-19.12-10.96-1.25-21.19-1.25.72,0-21.91,17.88-11.67-1.25-.72,19.12-10.96,19.12,9.52,0-1.42Z"/><path class="e" d="m126.17,267.33c15.95,15.2-3.85,20.87,1.38-.4-5.23,21.27-20.14,7.06,1.04.99-21.18,6.07-16.29-13.81-.34,1.39-15.95-15.2,3.85-20.87-1.38.4,5.23-21.27,20.14-7.06-1.04-.99,21.18-6.07,16.29,13.81.34-1.39Z"/><path class="h" d="m126.17,267.33c15.95,15.2-3.85,20.87,1.38-.4-5.23,21.27-20.14,7.06,1.04.99-21.18,6.07-16.29-13.81-.34,1.39-15.95-15.2,3.85-20.87-1.38.4,5.23-21.27,20.14-7.06-1.04-.99,21.18-6.07,16.29,13.81.34-1.39Z"/><path class="e" d="m141.72,275.09c15.95,15.2-3.85,20.87,1.38-.4-5.23,21.27-20.14,7.06,1.04.99-21.18,6.07-16.29-13.81-.34,1.39-15.95-15.2,3.85-20.87-1.38.4,5.23-21.27,20.14-7.06-1.04-.99,21.18-6.07,16.29,13.81.34-1.39Z"/><path class="h" d="m141.72,275.09c15.95,15.2-3.85,20.87,1.38-.4-5.23,21.27-20.14,7.06,1.04.99-21.18,6.07-16.29-13.81-.34,1.39-15.95-15.2,3.85-20.87-1.38.4,5.23-21.27,20.14-7.06-1.04-.99,21.18-6.07,16.29,13.81.34-1.39Z"/><path class="e" d="m162.72,277.95c8.37,20.38-12.03,17.5,1.42.2-13.45,17.3-21.27-1.76.55,1.33-21.82-3.09-9.24-19.25-.87,1.13-8.37-20.38,12.03-17.5-1.42-.2,13.45-17.3,21.27,1.76-.55-1.33,21.82,3.09,9.24,19.25.87-1.13Z"/><path class="h" d="m162.72,277.95c8.37,20.38-12.03,17.5,1.42.2-13.45,17.3-21.27-1.76.55,1.33-21.82-3.09-9.24-19.25-.87,1.13-8.37-20.38,12.03-17.5-1.42-.2,13.45-17.3,21.27,1.76-.55-1.33,21.82,3.09,9.24,19.25.87-1.13Z"/><path class="e" d="m178.06,288.09c19.12,10.96,1.25,21.19,1.25-.72,0,21.91-17.88,11.67,1.25.72-19.12,10.96-19.12-9.52,0,1.42-19.12-10.96-1.25-21.19-1.25.72,0-21.91,17.88-11.67-1.25-.72,19.12-10.96,19.12,9.52,0-1.42Z"/><path class="h" d="m178.06,288.09c19.12,10.96,1.25,21.19,1.25-.72,0,21.91-17.88,11.67,1.25.72-19.12,10.96-19.12-9.52,0,1.42-19.12-10.96-1.25-21.19-1.25.72,0-21.91,17.88-11.67-1.25-.72,19.12-10.96,19.12,9.52,0-1.42Z"/><path class="e" d="m51.9,263.92c15.95,15.2-3.85,20.87,1.38-.4-5.23,21.27-20.14,7.06,1.04.99-21.18,6.07-16.29-13.81-.34,1.39-15.95-15.2,3.85-20.87-1.38.4,5.23-21.27,20.14-7.06-1.04-.99,21.18-6.07,16.29,13.81.34-1.39Z"/><path class="h" d="m51.9,263.92c15.95,15.2-3.85,20.87,1.38-.4-5.23,21.27-20.14,7.06,1.04.99-21.18,6.07-16.29-13.81-.34,1.39-15.95-15.2,3.85-20.87-1.38.4,5.23-21.27,20.14-7.06-1.04-.99,21.18-6.07,16.29,13.81.34-1.39Z"/><path class="e" d="m210.18,302.29c5.78,21.27-14.1,15.86,1.39.38-15.49,15.49-20.89-4.39.38,1.39-21.27-5.78-6.78-20.26-1.01,1.01-5.78-21.27,14.1-15.86-1.39-.38,15.49-15.49,20.89,4.39-.38-1.39,21.27,5.78,6.78,20.26,1.01-1.01Z"/><path class="h" d="m210.18,302.29c5.78,21.27-14.1,15.86,1.39.38-15.49,15.49-20.89-4.39.38,1.39-21.27-5.78-6.78-20.26-1.01,1.01-5.78-21.27,14.1-15.86-1.39-.38,15.49-15.49,20.89,4.39-.38-1.39,21.27,5.78,6.78,20.26,1.01-1.01Z"/><path class="e" d="m194.48,295.41c15.95,15.2-3.85,20.87,1.38-.4-5.23,21.27-20.14,7.06,1.04.99-21.18,6.07-16.29-13.81-.34,1.39-15.95-15.2,3.85-20.87-1.38.4,5.23-21.27,20.14-7.06-1.04-.99,21.18-6.07,16.29,13.81.34-1.39Z"/><path class="h" d="m194.48,295.41c15.95,15.2-3.85,20.87,1.38-.4-5.23,21.27-20.14,7.06,1.04.99-21.18,6.07-16.29-13.81-.34,1.39-15.95-15.2,3.85-20.87-1.38.4,5.23-21.27,20.14-7.06-1.04-.99,21.18-6.07,16.29,13.81.34-1.39Z"/><path class="e" d="m223.43,312.53c15.95,15.2-3.85,20.87,1.38-.4-5.23,21.27-20.14,7.06,1.04.99-21.18,6.07-16.29-13.81-.34,1.39-15.95-15.2,3.85-20.87-1.38.4,5.23-21.27,20.14-7.06-1.04-.99,21.18-6.07,16.29,13.81.34-1.39Z"/><path class="h" d="m223.43,312.53c15.95,15.2-3.85,20.87,1.38-.4-5.23,21.27-20.14,7.06,1.04.99-21.18,6.07-16.29-13.81-.34,1.39-15.95-15.2,3.85-20.87-1.38.4,5.23-21.27,20.14-7.06-1.04-.99,21.18-6.07,16.29,13.81.34-1.39Z"/><path class="e" d="m251.59,331.12c15.95,15.2-3.85,20.87,1.38-.4-5.23,21.27-20.14,7.06,1.04.99-21.18,6.07-16.29-13.81-.34,1.39-15.95-15.2,3.85-20.87-1.38.4,5.23-21.27,20.14-7.06-1.04-.99,21.18-6.07,16.29,13.81.34-1.39Z"/><path class="h" d="m251.59,331.12c15.95,15.2-3.85,20.87,1.38-.4-5.23,21.27-20.14,7.06,1.04.99-21.18,6.07-16.29-13.81-.34,1.39-15.95-15.2,3.85-20.87-1.38.4,5.23-21.27,20.14-7.06-1.04-.99,21.18-6.07,16.29,13.81.34-1.39Z"/><path class="e" d="m240.49,321.86c15.95,15.2-3.85,20.87,1.38-.4-5.23,21.27-20.14,7.06,1.04.99-21.18,6.07-16.29-13.81-.34,1.39-15.95-15.2,3.85-20.87-1.38.4,5.23-21.27,20.14-7.06-1.04-.99,21.18-6.07,16.29,13.81.34-1.39Z"/><path class="h" d="m240.49,321.86c15.95,15.2-3.85,20.87,1.38-.4-5.23,21.27-20.14,7.06,1.04.99-21.18,6.07-16.29-13.81-.34,1.39-15.95-15.2,3.85-20.87-1.38.4,5.23-21.27,20.14-7.06-1.04-.99,21.18-6.07,16.29,13.81.34-1.39Z"/><path class="e" d="m266.9,340.37c15.95,15.2-3.85,20.87,1.38-.4-5.23,21.27-20.14,7.06,1.04.99-21.18,6.07-16.29-13.81-.34,1.39-15.95-15.2,3.85-20.87-1.38.4,5.23-21.27,20.14-7.06-1.04-.99,21.18-6.07,16.29,13.81.34-1.39Z"/><path class="h" d="m266.9,340.37c15.95,15.2-3.85,20.87,1.38-.4-5.23,21.27-20.14,7.06,1.04.99-21.18,6.07-16.29-13.81-.34,1.39-15.95-15.2,3.85-20.87-1.38.4,5.23-21.27,20.14-7.06-1.04-.99,21.18-6.07,16.29,13.81.34-1.39Z"/><path class="e" d="m280.19,349.5c15.95,15.2-3.85,20.87,1.38-.4-5.23,21.27-20.14,7.06,1.04.99-21.18,6.07-16.29-13.81-.34,1.39-15.95-15.2,3.85-20.87-1.38.4,5.23-21.27,20.14-7.06-1.04-.99,21.18-6.07,16.29,13.81.34-1.39Z"/><path class="h" d="m280.19,349.5c15.95,15.2-3.85,20.87,1.38-.4-5.23,21.27-20.14,7.06,1.04.99-21.18,6.07-16.29-13.81-.34,1.39-15.95-15.2,3.85-20.87-1.38.4,5.23-21.27,20.14-7.06-1.04-.99,21.18-6.07,16.29,13.81.34-1.39Z"/><path class="e" d="m293.56,358.69c12.84,11.49-2.78,15.45,1.08-.28-3.87,15.72-15.86,4.98.84.75-16.7,4.23-13.08-10.47-.26,1.02-12.84-11.49,2.78-15.45-1.08.28,3.87-15.72,15.86-4.98-.84-.75,16.7-4.23,13.08,10.47.26-1.02Z"/><path class="h" d="m293.56,358.69c12.84,11.49-2.78,15.45,1.08-.28-3.87,15.72-15.86,4.98.84.75-16.7,4.23-13.08-10.47-.26,1.02-12.84-11.49,2.78-15.45-1.08.28,3.87-15.72,15.86-4.98-.84-.75,16.7-4.23,13.08,10.47.26-1.02Z"/><path class="e" d="m217.16,242.65c15.95,15.2-3.85,20.87,1.38-.4-5.23,21.27-20.14,7.06,1.04.99-21.18,6.07-16.29-13.81-.34,1.39-15.95-15.2,3.85-20.87-1.38.4,5.23-21.27,20.14-7.06-1.04-.99,21.18-6.07,16.29,13.81.34-1.39Z"/><path class="h" d="m217.16,242.65c15.95,15.2-3.85,20.87,1.38-.4-5.23,21.27-20.14,7.06,1.04.99-21.18,6.07-16.29-13.81-.34,1.39-15.95-15.2,3.85-20.87-1.38.4,5.23-21.27,20.14-7.06-1.04-.99,21.18-6.07,16.29,13.81.34-1.39Z"/><path class="e" d="m218.4,257.41c20.92,6.92,5.46,20.52,1.08-.95,4.37,21.47-15.19,14.99,1.36.46-16.55,14.55-20.63-5.52.29,1.41-20.92-6.92-5.46-20.52-1.08.95-4.37-21.47,15.19-14.99-1.36-.46,16.55-14.55,20.63,5.52-.29-1.41Z"/><path class="h" d="m218.4,257.41c20.92,6.92,5.46,20.52,1.08-.95,4.37,21.47-15.19,14.99,1.36.46-16.55,14.55-20.63-5.52.29,1.41-20.92-6.92-5.46-20.52-1.08.95-4.37-21.47,15.19-14.99-1.36-.46,16.55-14.55,20.63,5.52-.29-1.41Z"/><path class="e" d="m225.78,271.53c1.53,21.99-16.93,12.82,1.28.64-18.21,12.18-19.64-8.37.09,1.44-19.73-9.81-2.7-21.19-1.19.79-1.53-21.99,16.93-12.82-1.28-.64,18.21-12.18,19.64,8.37-.09-1.44,19.73,9.81,2.7,21.19,1.19-.79Z"/><path class="h" d="m225.78,271.53c1.53,21.99-16.93,12.82,1.28.64-18.21,12.18-19.64-8.37.09,1.44-19.73-9.81-2.7-21.19-1.19.79-1.53-21.99,16.93-12.82-1.28-.64,18.21-12.18,19.64,8.37-.09-1.44,19.73,9.81,2.7,21.19,1.19-.79Z"/><path class="e" d="m230.13,285.23c15.95,15.2-3.85,20.87,1.38-.4-5.23,21.27-20.14,7.06,1.04.99-21.18,6.07-16.29-13.81-.34,1.39-15.95-15.2,3.85-20.87-1.38.4,5.23-21.27,20.14-7.06-1.04-.99,21.18-6.07,16.29,13.81.34-1.39Z"/><path class="h" d="m230.13,285.23c15.95,15.2-3.85,20.87,1.38-.4-5.23,21.27-20.14,7.06,1.04.99-21.18,6.07-16.29-13.81-.34,1.39-15.95-15.2,3.85-20.87-1.38.4,5.23-21.27,20.14-7.06-1.04-.99,21.18-6.07,16.29,13.81.34-1.39Z"/><path class="e" d="m242.25,298.02c15.95,15.2-3.85,20.87,1.38-.4-5.23,21.27-20.14,7.06,1.04.99-21.18,6.07-16.29-13.81-.34,1.39-15.95-15.2,3.85-20.87-1.38.4,5.23-21.27,20.14-7.06-1.04-.99,21.18-6.07,16.29,13.81.34-1.39Z"/><path class="h" d="m242.25,298.02c15.95,15.2-3.85,20.87,1.38-.4-5.23,21.27-20.14,7.06,1.04.99-21.18,6.07-16.29-13.81-.34,1.39-15.95-15.2,3.85-20.87-1.38.4,5.23-21.27,20.14-7.06-1.04-.99,21.18-6.07,16.29,13.81.34-1.39Z"/><path class="e" d="m209.51,156.4c15.95,15.2-3.85,20.87,1.38-.4-5.23,21.27-20.14,7.06,1.04.99-21.18,6.07-16.29-13.81-.34,1.39-15.95-15.2,3.85-20.87-1.38.4,5.23-21.27,20.14-7.06-1.04-.99,21.18-6.07,16.29,13.81.34-1.39Z"/><path class="h" d="m209.51,156.4c15.95,15.2-3.85,20.87,1.38-.4-5.23,21.27-20.14,7.06,1.04.99-21.18,6.07-16.29-13.81-.34,1.39-15.95-15.2,3.85-20.87-1.38.4,5.23-21.27,20.14-7.06-1.04-.99,21.18-6.07,16.29,13.81.34-1.39Z"/><path class="e" d="m223.43,165.04c15.95,15.2-3.85,20.87,1.38-.4-5.23,21.27-20.14,7.06,1.04.99-21.18,6.07-16.29-13.81-.34,1.39-15.95-15.2,3.85-20.87-1.38.4,5.23-21.27,20.14-7.06-1.04-.99,21.18-6.07,16.29,13.81.34-1.39Z"/><path class="h" d="m223.43,165.04c15.95,15.2-3.85,20.87,1.38-.4-5.23,21.27-20.14,7.06,1.04.99-21.18,6.07-16.29-13.81-.34,1.39-15.95-15.2,3.85-20.87-1.38.4,5.23-21.27,20.14-7.06-1.04-.99,21.18-6.07,16.29,13.81.34-1.39Z"/><path class="e" d="m232.73,174.63c15.95,15.2-3.85,20.87,1.38-.4-5.23,21.27-20.14,7.06,1.04.99-21.18,6.07-16.29-13.81-.34,1.39-15.95-15.2,3.85-20.87-1.38.4,5.23-21.27,20.14-7.06-1.04-.99,21.18-6.07,16.29,13.81.34-1.39Z"/><path class="h" d="m232.73,174.63c15.95,15.2-3.85,20.87,1.38-.4-5.23,21.27-20.14,7.06,1.04.99-21.18,6.07-16.29-13.81-.34,1.39-15.95-15.2,3.85-20.87-1.38.4,5.23-21.27,20.14-7.06-1.04-.99,21.18-6.07,16.29,13.81.34-1.39Z"/><path class="e" d="m242.25,186.78c15.95,15.2-3.85,20.87,1.38-.4-5.23,21.27-20.14,7.06,1.04.99-21.18,6.07-16.29-13.81-.34,1.39-15.95-15.2,3.85-20.87-1.38.4,5.23-21.27,20.14-7.06-1.04-.99,21.18-6.07,16.29,13.81.34-1.39Z"/><path class="h" d="m242.25,186.78c15.95,15.2-3.85,20.87,1.38-.4-5.23,21.27-20.14,7.06,1.04.99-21.18,6.07-16.29-13.81-.34,1.39-15.95-15.2,3.85-20.87-1.38.4,5.23-21.27,20.14-7.06-1.04-.99,21.18-6.07,16.29,13.81.34-1.39Z"/><path class="e" d="m251.39,198.82c15.95,15.2-3.85,20.87,1.38-.4-5.23,21.27-20.14,7.06,1.04.99-21.18,6.07-16.29-13.81-.34,1.39-15.95-15.2,3.85-20.87-1.38.4,5.23-21.27,20.14-7.06-1.04-.99,21.18-6.07,16.29,13.81.34-1.39Z"/><path class="h" d="m251.39,198.82c15.95,15.2-3.85,20.87,1.38-.4-5.23,21.27-20.14,7.06,1.04.99-21.18,6.07-16.29-13.81-.34,1.39-15.95-15.2,3.85-20.87-1.38.4,5.23-21.27,20.14-7.06-1.04-.99,21.18-6.07,16.29,13.81.34-1.39Z"/><path class="e" d="m258.95,214.56c12.18,18.37-8.39,19.5,1.44-.08-9.83,19.57-21.21,2.41.79,1.19-22,1.22-12.82-17.08-.64,1.28-12.18-18.37,8.39-19.5-1.44.08,9.83-19.57,21.21-2.41-.79-1.19,22-1.22,12.82,17.08.64-1.28Z"/><path class="h" d="m258.95,214.56c12.18,18.37-8.39,19.5,1.44-.08-9.83,19.57-21.21,2.41.79,1.19-22,1.22-12.82-17.08-.64,1.28-12.18-18.37,8.39-19.5-1.44.08,9.83-19.57,21.21-2.41-.79-1.19,22-1.22,12.82,17.08.64-1.28Z"/><path class="e" d="m266.9,232.64c15.95,15.2-3.85,20.87,1.38-.4-5.23,21.27-20.14,7.06,1.04.99-21.18,6.07-16.29-13.81-.34,1.39-15.95-15.2,3.85-20.87-1.38.4,5.23-21.27,20.14-7.06-1.04-.99,21.18-6.07,16.29,13.81.34-1.39Z"/><path class="h" d="m266.9,232.64c15.95,15.2-3.85,20.87,1.38-.4-5.23,21.27-20.14,7.06,1.04.99-21.18,6.07-16.29-13.81-.34,1.39-15.95-15.2,3.85-20.87-1.38.4,5.23-21.27,20.14-7.06-1.04-.99,21.18-6.07,16.29,13.81.34-1.39Z"/><path class="e" d="m274.11,247.71c11.08,19.04-9.52,18.98,1.44,0-10.96,18.98-21.32,1.16.72,1.24-22.03-.08-11.8-17.8-.72,1.24-11.08-19.04,9.52-18.98-1.44,0,10.96-18.98,21.32-1.16-.72-1.24,22.03.08,11.8,17.8.72-1.24Z"/><path class="h" d="m274.11,247.71c11.08,19.04-9.52,18.98,1.44,0-10.96,18.98-21.32,1.16.72,1.24-22.03-.08-11.8-17.8-.72,1.24-11.08-19.04,9.52-18.98-1.44,0,10.96-18.98,21.32-1.16-.72-1.24,22.03.08,11.8,17.8.72-1.24Z"/><path class="e" d="m276.66,265.48c21.99,1.42,10.44,18.49.81-1.19,9.64,19.67-10.91,18.34,1.44.09-12.35,18.24-21.36-.14.63,1.28-21.99-1.42-10.44-18.49-.81,1.19-9.64-19.67,10.91-18.34-1.44-.09,12.35-18.24,21.36.14-.63-1.28Z"/><path class="h" d="m276.66,265.48c21.99,1.42,10.44,18.49.81-1.19,9.64,19.67-10.91,18.34,1.44.09-12.35,18.24-21.36-.14.63,1.28-21.99-1.42-10.44-18.49-.81,1.19-9.64-19.67,10.91-18.34-1.44-.09,12.35-18.24,21.36.14-.63-1.28Z"/><path class="e" d="m280.19,278.43c15.95,15.2-3.85,20.87,1.38-.4-5.23,21.27-20.14,7.06,1.04.99-21.18,6.07-16.29-13.81-.34,1.39-15.95-15.2,3.85-20.87-1.38.4,5.23-21.27,20.14-7.06-1.04-.99,21.18-6.07,16.29,13.81.34-1.39Z"/><path class="h" d="m280.19,278.43c15.95,15.2-3.85,20.87,1.38-.4-5.23,21.27-20.14,7.06,1.04.99-21.18,6.07-16.29-13.81-.34,1.39-15.95-15.2,3.85-20.87-1.38.4,5.23-21.27,20.14-7.06-1.04-.99,21.18-6.07,16.29,13.81.34-1.39Z"/><path class="e" d="m283.86,292.2c20.19,8.82,3.53,20.93,1.16-.84,2.37,21.77-16.5,13.52,1.31.58-17.83,12.96-20.03-7.4.15,1.42-20.19-8.82-3.53-20.93-1.16.84-2.37-21.77,16.5-13.52-1.31-.58,17.83-12.96,20.03,7.4-.15-1.42Z"/><path class="h" d="m283.86,292.2c20.19,8.82,3.53,20.93,1.16-.84,2.37,21.77-16.5,13.52,1.31.58-17.83,12.96-20.03-7.4.15,1.42-20.19-8.82-3.53-20.93-1.16.84-2.37-21.77,16.5-13.52-1.31-.58,17.83-12.96,20.03,7.4-.15-1.42Z"/><path class="e" d="m285.74,306.57c15.95,15.2-3.85,20.87,1.38-.4-5.23,21.27-20.14,7.06,1.04.99-21.18,6.07-16.29-13.81-.34,1.39-15.95-15.2,3.85-20.87-1.38.4,5.23-21.27,20.14-7.06-1.04-.99,21.18-6.07,16.29,13.81.34-1.39Z"/><path class="h" d="m285.74,306.57c15.95,15.2-3.85,20.87,1.38-.4-5.23,21.27-20.14,7.06,1.04.99-21.18,6.07-16.29-13.81-.34,1.39-15.95-15.2,3.85-20.87-1.38.4,5.23-21.27,20.14-7.06-1.04-.99,21.18-6.07,16.29,13.81.34-1.39Z"/><path class="e" d="m295.57,335.08c11.08,19.04-9.52,18.98,1.44,0-10.96,18.98-21.32,1.16.72,1.24-22.03-.08-11.8-17.8-.72,1.24-11.08-19.04,9.52-18.98-1.44,0,10.96-18.98,21.32-1.16-.72-1.24,22.03.08,11.8,17.8.72-1.24Z"/><path class="h" d="m295.57,335.08c11.08,19.04-9.52,18.98,1.44,0-10.96,18.98-21.32,1.16.72,1.24-22.03-.08-11.8-17.8-.72,1.24-11.08-19.04,9.52-18.98-1.44,0,10.96-18.98,21.32-1.16-.72-1.24,22.03.08,11.8,17.8.72-1.24Z"/><path class="e" d="m292.05,319.39c8.37,20.38-12.03,17.5,1.42.2-13.45,17.3-21.27-1.76.55,1.33-21.82-3.09-9.24-19.25-.87,1.13-8.37-20.38,12.03-17.5-1.42-.2,13.45-17.3,21.27,1.76-.55-1.33,21.82,3.09,9.24,19.25.87-1.13Z"/><path class="h" d="m292.05,319.39c8.37,20.38-12.03,17.5,1.42.2-13.45,17.3-21.27-1.76.55,1.33-21.82-3.09-9.24-19.25-.87,1.13-8.37-20.38,12.03-17.5-1.42-.2,13.45-17.3,21.27,1.76-.55-1.33,21.82,3.09,9.24,19.25.87-1.13Z"/><path class="e" d="m299.65,353.78c12.51,10.91-2.58,14.52,1.05-.24-3.64,14.76-15.33,4.57.81.72-16.14,3.87-12.74-9.95-.23.96-12.51-10.91,2.58-14.52-1.05.24,3.64-14.76,15.33-4.57-.81-.72,16.14-3.87,12.74,9.95.23-.96h0Z"/><path class="h" d="m299.65,353.78c12.51,10.91-2.58,14.52,1.05-.24-3.64,14.76-15.33,4.57.81.72-16.14,3.87-12.74-9.95-.23.96-12.51-10.91,2.58-14.52-1.05.24,3.64-14.76,15.33-4.57-.81-.72,16.14-3.87,12.74,9.95.23-.96h0Z"/><path class="e" d="m329.56,191.43c7.9,11.31-1.91,15.53.69-.29-2.6,15.82-9.98,5.26.52.73-10.5,4.51-8.07-10.27-.17,1.04-7.9-11.31,1.91-15.53-.69.29,2.6-15.82,9.98-5.26-.52-.73,10.5-4.51,8.07,10.27.17-1.04Z"/><path class="h" d="m329.56,191.43c7.9,11.31-1.91,15.53.69-.29-2.6,15.82-9.98,5.26.52.73-10.5,4.51-8.07-10.27-.17,1.04-7.9-11.31,1.91-15.53-.69.29,2.6-15.82,9.98-5.26-.52-.73,10.5-4.51,8.07,10.27.17-1.04Z"/><path class="e" d="m331.55,202.11c10.76,2.7,4.22,14.46.46-.83,3.76,15.28-6.3,12.74.7.18-7,12.58-10.51-1.71.24.99-10.76-2.7-4.22-14.46-.46.83-3.76-15.28,6.3-12.74-.7-.18,7-12.58,10.51,1.71-.24-.99Z"/><path class="h" d="m331.55,202.11c10.76,2.7,4.22,14.46.46-.83,3.76,15.28-6.3,12.74.7.18-7,12.58-10.51-1.71.24.99-10.76-2.7-4.22-14.46-.46.83-3.76-15.28,6.3-12.74-.7-.18,7-12.58,10.51,1.71-.24-.99Z"/><path class="e" d="m332.65,211.2c10.68,3.39,3.8,14.72.47-.79,3.33,15.51-6.65,12.35.7.21-7.35,12.12-10.47-2.37.21,1.01-10.68-3.39-3.8-14.72-.47.79-3.33-15.51,6.65-12.35-.7-.21,7.35-12.12,10.47,2.37-.21-1.01Z"/><path class="h" d="m332.65,211.2c10.68,3.39,3.8,14.72.47-.79,3.33,15.51-6.65,12.35.7.21-7.35,12.12-10.47-2.37.21,1.01-10.68-3.39-3.8-14.72-.47.79-3.33-15.51,6.65-12.35-.7-.21,7.35-12.12,10.47,2.37-.21-1.01Z"/><path class="e" d="m334.55,219.5c2.17,16.06-7.49,11.09.67.35-8.16,10.74-10.18-4.26.14,1.05-10.33-5.32-2.7-15.36-.53.7-2.17-16.06,7.49-11.09-.67-.35,8.16-10.74,10.18,4.26-.14-1.05,10.33,5.32,2.7,15.36.53-.7Z"/><path class="h" d="m334.55,219.5c2.17,16.06-7.49,11.09.67.35-8.16,10.74-10.18-4.26.14,1.05-10.33-5.32-2.7-15.36-.53.7-2.17-16.06,7.49-11.09-.67-.35,8.16-10.74,10.18,4.26-.14-1.05,10.33,5.32,2.7,15.36.53-.7Z"/><path class="e" d="m332.67,228.97c10.53-4.29,7.85,10.48.18-1.02,7.67,11.52-2.17,15.54.69-.28-2.86,15.82-10.02,5.04.5.75-10.53,4.29-7.85-10.48-.18,1.02-7.67-11.52,2.17-15.54-.69.28,2.86-15.82,10.02-5.04-.5-.75Z"/><path class="h" d="m332.67,228.97c10.53-4.29,7.85,10.48.18-1.02,7.67,11.52-2.17,15.54.69-.28-2.86,15.82-10.02,5.04.5.75-10.53,4.29-7.85-10.48-.18,1.02-7.67-11.52,2.17-15.54-.69.28,2.86-15.82,10.02-5.04-.5-.75Z"/><path class="e" d="m331.75,235.05c7.9,11.31-1.91,15.53.69-.29-2.6,15.82-9.98,5.26.52.73-10.5,4.51-8.07-10.27-.17,1.04-7.9-11.31,1.91-15.53-.69.29,2.6-15.82,9.98-5.26-.52-.73,10.5-4.51,8.07,10.27.17-1.04Z"/><path class="h" d="m331.75,235.05c7.9,11.31-1.91,15.53.69-.29-2.6,15.82-9.98,5.26.52.73-10.5,4.51-8.07-10.27-.17,1.04-7.9-11.31,1.91-15.53-.69.29,2.6-15.82,9.98-5.26-.52-.73,10.5-4.51,8.07,10.27.17-1.04Z"/><path class="e" d="m329.82,243.2c7.9,11.31-1.91,15.53.69-.29-2.6,15.82-9.98,5.26.52.73-10.5,4.51-8.07-10.27-.17,1.04-7.9-11.31,1.91-15.53-.69.29,2.6-15.82,9.98-5.26-.52-.73,10.5-4.51,8.07,10.27.17-1.04Z"/><path class="h" d="m329.82,243.2c7.9,11.31-1.91,15.53.69-.29-2.6,15.82-9.98,5.26.52.73-10.5,4.51-8.07-10.27-.17,1.04-7.9-11.31,1.91-15.53-.69.29,2.6-15.82,9.98-5.26-.52-.73,10.5-4.51,8.07,10.27.17-1.04Z"/><path class="e" d="m327.84,250.46c7.9,11.31-1.91,15.53.69-.29-2.6,15.82-9.98,5.26.52.73-10.5,4.51-8.07-10.27-.17,1.04-7.9-11.31,1.91-15.53-.69.29,2.6-15.82,9.98-5.26-.52-.73,10.5-4.51,8.07,10.27.17-1.04Z"/><path class="h" d="m327.84,250.46c7.9,11.31-1.91,15.53.69-.29-2.6,15.82-9.98,5.26.52.73-10.5,4.51-8.07-10.27-.17,1.04-7.9-11.31,1.91-15.53-.69.29,2.6-15.82,9.98-5.26-.52-.73,10.5-4.51,8.07,10.27.17-1.04Z"/><path class="e" d="m325.1,258.1c7.9,11.31-1.91,15.53.69-.29-2.6,15.82-9.98,5.26.52.73-10.5,4.51-8.07-10.27-.17,1.04-7.9-11.31,1.91-15.53-.69.29,2.6-15.82,9.98-5.26-.52-.73,10.5-4.51,8.07,10.27.17-1.04Z"/><path class="h" d="m325.1,258.1c7.9,11.31-1.91,15.53.69-.29-2.6,15.82-9.98,5.26.52.73-10.5,4.51-8.07-10.27-.17,1.04-7.9-11.31,1.91-15.53-.69.29,2.6-15.82,9.98-5.26-.52-.73,10.5-4.51,8.07,10.27.17-1.04Z"/><path class="e" d="m322.34,266.59c7.9,11.31-1.91,15.53.69-.29-2.6,15.82-9.98,5.26.52.73-10.5,4.51-8.07-10.27-.17,1.04-7.9-11.31,1.91-15.53-.69.29,2.6-15.82,9.98-5.26-.52-.73,10.5-4.51,8.07,10.27.17-1.04Z"/><path class="h" d="m322.34,266.59c7.9,11.31-1.91,15.53.69-.29-2.6,15.82-9.98,5.26.52.73-10.5,4.51-8.07-10.27-.17,1.04-7.9-11.31,1.91-15.53-.69.29,2.6-15.82,9.98-5.26-.52-.73,10.5-4.51,8.07,10.27.17-1.04Z"/><path class="e" d="m318.72,275.49c7.9,11.31-1.91,15.53.69-.29-2.6,15.82-9.98,5.26.52.73-10.5,4.51-8.07-10.27-.17,1.04-7.9-11.31,1.91-15.53-.69.29,2.6-15.82,9.98-5.26-.52-.73,10.5-4.51,8.07,10.27.17-1.04Z"/><path class="h" d="m318.72,275.49c7.9,11.31-1.91,15.53.69-.29-2.6,15.82-9.98,5.26.52.73-10.5,4.51-8.07-10.27-.17,1.04-7.9-11.31,1.91-15.53-.69.29,2.6-15.82,9.98-5.26-.52-.73,10.5-4.51,8.07,10.27.17-1.04Z"/><path class="e" d="m314.82,286.66c7.9,11.31-1.91,15.53.69-.29-2.6,15.82-9.98,5.26.52.73-10.5,4.51-8.07-10.27-.17,1.04-7.9-11.31,1.91-15.53-.69.29,2.6-15.82,9.98-5.26-.52-.73,10.5-4.51,8.07,10.27.17-1.04Z"/><path class="h" d="m314.82,286.66c7.9,11.31-1.91,15.53.69-.29-2.6,15.82-9.98,5.26.52.73-10.5,4.51-8.07-10.27-.17,1.04-7.9-11.31,1.91-15.53-.69.29,2.6-15.82,9.98-5.26-.52-.73,10.5-4.51,8.07,10.27.17-1.04Z"/><path class="e" d="m309.36,294.07c7.9,11.31-1.91,15.53.69-.29-2.6,15.82-9.98,5.26.52.73-10.5,4.51-8.07-10.27-.17,1.04-7.9-11.31,1.91-15.53-.69.29,2.6-15.82,9.98-5.26-.52-.73,10.5-4.51,8.07,10.27.17-1.04Z"/><path class="h" d="m309.36,294.07c7.9,11.31-1.91,15.53.69-.29-2.6,15.82-9.98,5.26.52.73-10.5,4.51-8.07-10.27-.17,1.04-7.9-11.31,1.91-15.53-.69.29,2.6-15.82,9.98-5.26-.52-.73,10.5-4.51,8.07,10.27.17-1.04Z"/><path class="e" d="m313.14,344.81c11.96,11.4-2.89,15.66,1.04-.29-3.93,15.95-15.11,5.3.78.75-15.89,4.55-12.22-10.36-.26,1.04-11.96-11.4,2.89-15.66-1.04.29,3.93-15.95,15.11-5.3-.78-.75,15.89-4.55,12.22,10.36.26-1.04Z"/><path class="h" d="m313.14,344.81c11.96,11.4-2.89,15.66,1.04-.29-3.93,15.95-15.11,5.3.78.75-15.89,4.55-12.22-10.36-.26,1.04-11.96-11.4,2.89-15.66-1.04.29,3.93-15.95,15.11-5.3-.78-.75,15.89-4.55,12.22,10.36.26-1.04Z"/><path class="e" d="m540.22,242.65c15.95,15.2-3.85,20.87,1.38-.4-5.23,21.27-20.14,7.06,1.04.99-21.18,6.07-16.29-13.81-.34,1.39-15.95-15.2,3.85-20.87-1.38.4,5.23-21.27,20.14-7.06-1.04-.99,21.18-6.07,16.29,13.81.34-1.39Z"/><path class="h" d="m540.22,242.65c15.95,15.2-3.85,20.87,1.38-.4-5.23,21.27-20.14,7.06,1.04.99-21.18,6.07-16.29-13.81-.34,1.39-15.95-15.2,3.85-20.87-1.38.4,5.23-21.27,20.14-7.06-1.04-.99,21.18-6.07,16.29,13.81.34-1.39Z"/><path class="e" d="m531.01,256.57c15.95,15.2-3.85,20.87,1.38-.4-5.23,21.27-20.14,7.06,1.04.99-21.18,6.07-16.29-13.81-.34,1.39-15.95-15.2,3.85-20.87-1.38.4,5.23-21.27,20.14-7.06-1.04-.99,21.18-6.07,16.29,13.81.34-1.39Z"/><path class="h" d="m531.01,256.57c15.95,15.2-3.85,20.87,1.38-.4-5.23,21.27-20.14,7.06,1.04.99-21.18,6.07-16.29-13.81-.34,1.39-15.95-15.2,3.85-20.87-1.38.4,5.23-21.27,20.14-7.06-1.04-.99,21.18-6.07,16.29,13.81.34-1.39Z"/><path class="e" d="m520.83,263.15c15.95,15.2-3.85,20.87,1.38-.4-5.23,21.27-20.14,7.06,1.04.99-21.18,6.07-16.29-13.81-.34,1.39-15.95-15.2,3.85-20.87-1.38.4,5.23-21.27,20.14-7.06-1.04-.99,21.18-6.07,16.29,13.81.34-1.39Z"/><path class="h" d="m520.83,263.15c15.95,15.2-3.85,20.87,1.38-.4-5.23,21.27-20.14,7.06,1.04.99-21.18,6.07-16.29-13.81-.34,1.39-15.95-15.2,3.85-20.87-1.38.4,5.23-21.27,20.14-7.06-1.04-.99,21.18-6.07,16.29,13.81.34-1.39Z"/><path class="e" d="m507.68,273.44c20.84,7.15,5.23,20.58,1.08-.93,4.14,21.52-15.36,14.84,1.36.47-16.7,14.36-20.57-5.75.28,1.41-20.84-7.15-5.23-20.58-1.08.93-4.14-21.52,15.36-14.84-1.36-.47,16.7-14.36,20.57,5.75-.28-1.41Z"/><path class="h" d="m507.68,273.44c20.84,7.15,5.23,20.58,1.08-.93,4.14,21.52-15.36,14.84,1.36.47-16.7,14.36-20.57-5.75.28,1.41-20.84-7.15-5.23-20.58-1.08.93-4.14-21.52,15.36-14.84-1.36-.47,16.7-14.36,20.57,5.75-.28-1.41Z"/><path class="e" d="m497.1,282.16c15.95,15.2-3.85,20.87,1.38-.4-5.23,21.27-20.14,7.06,1.04.99-21.18,6.07-16.29-13.81-.34,1.39-15.95-15.2,3.85-20.87-1.38.4,5.23-21.27,20.14-7.06-1.04-.99,21.18-6.07,16.29,13.81.34-1.39Z"/><path class="h" d="m497.1,282.16c15.95,15.2-3.85,20.87,1.38-.4-5.23,21.27-20.14,7.06,1.04.99-21.18,6.07-16.29-13.81-.34,1.39-15.95-15.2,3.85-20.87-1.38.4,5.23-21.27,20.14-7.06-1.04-.99,21.18-6.07,16.29,13.81.34-1.39Z"/><path class="e" d="m485.44,291.41c15.95,15.2-3.85,20.87,1.38-.4-5.23,21.27-20.14,7.06,1.04.99-21.18,6.07-16.29-13.81-.34,1.39-15.95-15.2,3.85-20.87-1.38.4,5.23-21.27,20.14-7.06-1.04-.99,21.18-6.07,16.29,13.81.34-1.39Z"/><path class="h" d="m485.44,291.41c15.95,15.2-3.85,20.87,1.38-.4-5.23,21.27-20.14,7.06,1.04.99-21.18,6.07-16.29-13.81-.34,1.39-15.95-15.2,3.85-20.87-1.38.4,5.23-21.27,20.14-7.06-1.04-.99,21.18-6.07,16.29,13.81.34-1.39Z"/><path class="e" d="m470.5,297.32c15.95,15.2-3.85,20.87,1.38-.4-5.23,21.27-20.14,7.06,1.04.99-21.18,6.07-16.29-13.81-.34,1.39-15.95-15.2,3.85-20.87-1.38.4,5.23-21.27,20.14-7.06-1.04-.99,21.18-6.07,16.29,13.81.34-1.39Z"/><path class="h" d="m470.5,297.32c15.95,15.2-3.85,20.87,1.38-.4-5.23,21.27-20.14,7.06,1.04.99-21.18,6.07-16.29-13.81-.34,1.39-15.95-15.2,3.85-20.87-1.38.4,5.23-21.27,20.14-7.06-1.04-.99,21.18-6.07,16.29,13.81.34-1.39Z"/><path class="e" d="m461.28,303.86c15.95,15.2-3.85,20.87,1.38-.4-5.23,21.27-20.14,7.06,1.04.99-21.18,6.07-16.29-13.81-.34,1.39-15.95-15.2,3.85-20.87-1.38.4,5.23-21.27,20.14-7.06-1.04-.99,21.18-6.07,16.29,13.81.34-1.39Z"/><path class="h" d="m461.28,303.86c15.95,15.2-3.85,20.87,1.38-.4-5.23,21.27-20.14,7.06,1.04.99-21.18,6.07-16.29-13.81-.34,1.39-15.95-15.2,3.85-20.87-1.38.4,5.23-21.27,20.14-7.06-1.04-.99,21.18-6.07,16.29,13.81.34-1.39Z"/><path class="e" d="m448.1,311.43c15.95,15.2-3.85,20.87,1.38-.4-5.23,21.27-20.14,7.06,1.04.99-21.18,6.07-16.29-13.81-.34,1.39-15.95-15.2,3.85-20.87-1.38.4,5.23-21.27,20.14-7.06-1.04-.99,21.18-6.07,16.29,13.81.34-1.39Z"/><path class="h" d="m448.1,311.43c15.95,15.2-3.85,20.87,1.38-.4-5.23,21.27-20.14,7.06,1.04.99-21.18,6.07-16.29-13.81-.34,1.39-15.95-15.2,3.85-20.87-1.38.4,5.23-21.27,20.14-7.06-1.04-.99,21.18-6.07,16.29,13.81.34-1.39Z"/><path class="e" d="m435.81,318.45c15.95,15.2-3.85,20.87,1.38-.4-5.23,21.27-20.14,7.06,1.04.99-21.18,6.07-16.29-13.81-.34,1.39-15.95-15.2,3.85-20.87-1.38.4,5.23-21.27,20.14-7.06-1.04-.99,21.18-6.07,16.29,13.81.34-1.39Z"/><path class="h" d="m435.81,318.45c15.95,15.2-3.85,20.87,1.38-.4-5.23,21.27-20.14,7.06,1.04.99-21.18,6.07-16.29-13.81-.34,1.39-15.95-15.2,3.85-20.87-1.38.4,5.23-21.27,20.14-7.06-1.04-.99,21.18-6.07,16.29,13.81.34-1.39Z"/><path class="e" d="m423.92,323.59c15.95,15.2-3.85,20.87,1.38-.4-5.23,21.27-20.14,7.06,1.04.99-21.18,6.07-16.29-13.81-.34,1.39-15.95-15.2,3.85-20.87-1.38.4,5.23-21.27,20.14-7.06-1.04-.99,21.18-6.07,16.29,13.81.34-1.39Z"/><path class="h" d="m423.92,323.59c15.95,15.2-3.85,20.87,1.38-.4-5.23,21.27-20.14,7.06,1.04.99-21.18,6.07-16.29-13.81-.34,1.39-15.95-15.2,3.85-20.87-1.38.4,5.23-21.27,20.14-7.06-1.04-.99,21.18-6.07,16.29,13.81.34-1.39Z"/><path class="e" d="m412.32,327.82c15.95,15.2-3.85,20.87,1.38-.4-5.23,21.27-20.14,7.06,1.04.99-21.18,6.07-16.29-13.81-.34,1.39-15.95-15.2,3.85-20.87-1.38.4,5.23-21.27,20.14-7.06-1.04-.99,21.18-6.07,16.29,13.81.34-1.39Z"/><path class="h" d="m412.32,327.82c15.95,15.2-3.85,20.87,1.38-.4-5.23,21.27-20.14,7.06,1.04.99-21.18,6.07-16.29-13.81-.34,1.39-15.95-15.2,3.85-20.87-1.38.4,5.23-21.27,20.14-7.06-1.04-.99,21.18-6.07,16.29,13.81.34-1.39Z"/><path class="e" d="m401.44,332.83c15.95,15.2-3.85,20.87,1.38-.4-5.23,21.27-20.14,7.06,1.04.99-21.18,6.07-16.29-13.81-.34,1.39-15.95-15.2,3.85-20.87-1.38.4,5.23-21.27,20.14-7.06-1.04-.99,21.18-6.07,16.29,13.81.34-1.39Z"/><path class="h" d="m401.44,332.83c15.95,15.2-3.85,20.87,1.38-.4-5.23,21.27-20.14,7.06,1.04.99-21.18,6.07-16.29-13.81-.34,1.39-15.95-15.2,3.85-20.87-1.38.4,5.23-21.27,20.14-7.06-1.04-.99,21.18-6.07,16.29,13.81.34-1.39Z"/><path class="e" d="m387.39,337.08c15.95,15.2-3.85,20.87,1.38-.4-5.23,21.27-20.14,7.06,1.04.99-21.18,6.07-16.29-13.81-.34,1.39-15.95-15.2,3.85-20.87-1.38.4,5.23-21.27,20.14-7.06-1.04-.99,21.18-6.07,16.29,13.81.34-1.39Z"/><path class="h" d="m387.39,337.08c15.95,15.2-3.85,20.87,1.38-.4-5.23,21.27-20.14,7.06,1.04.99-21.18,6.07-16.29-13.81-.34,1.39-15.95-15.2,3.85-20.87-1.38.4,5.23-21.27,20.14-7.06-1.04-.99,21.18-6.07,16.29,13.81.34-1.39Z"/><path class="e" d="m374.18,342.09c15.95,15.2-3.85,20.87,1.38-.4-5.23,21.27-20.14,7.06,1.04.99-21.18,6.07-16.29-13.81-.34,1.39-15.95-15.2,3.85-20.87-1.38.4,5.23-21.27,20.14-7.06-1.04-.99,21.18-6.07,16.29,13.81.34-1.39Z"/><path class="h" d="m374.18,342.09c15.95,15.2-3.85,20.87,1.38-.4-5.23,21.27-20.14,7.06,1.04.99-21.18,6.07-16.29-13.81-.34,1.39-15.95-15.2,3.85-20.87-1.38.4,5.23-21.27,20.14-7.06-1.04-.99,21.18-6.07,16.29,13.81.34-1.39Z"/><path class="e" d="m361.1,346.19c15.95,15.2-3.85,20.87,1.38-.4-5.23,21.27-20.14,7.06,1.04.99-21.18,6.07-16.29-13.81-.34,1.39-15.95-15.2,3.85-20.87-1.38.4,5.23-21.27,20.14-7.06-1.04-.99,21.18-6.07,16.29,13.81.34-1.39Z"/><path class="h" d="m361.1,346.19c15.95,15.2-3.85,20.87,1.38-.4-5.23,21.27-20.14,7.06,1.04.99-21.18,6.07-16.29-13.81-.34,1.39-15.95-15.2,3.85-20.87-1.38.4,5.23-21.27,20.14-7.06-1.04-.99,21.18-6.07,16.29,13.81.34-1.39Z"/><path class="e" d="m346.82,349.5c15.95,15.2-3.85,20.87,1.38-.4-5.23,21.27-20.14,7.06,1.04.99-21.18,6.07-16.29-13.81-.34,1.39-15.95-15.2,3.85-20.87-1.38.4,5.23-21.27,20.14-7.06-1.04-.99,21.18-6.07,16.29,13.81.34-1.39Z"/><path class="h" d="m346.82,349.5c15.95,15.2-3.85,20.87,1.38-.4-5.23,21.27-20.14,7.06,1.04.99-21.18,6.07-16.29-13.81-.34,1.39-15.95-15.2,3.85-20.87-1.38.4,5.23-21.27,20.14-7.06-1.04-.99,21.18-6.07,16.29,13.81.34-1.39Z"/><path class="e" d="m334.33,352.99c15.95,15.2-3.85,20.87,1.38-.4-5.23,21.27-20.14,7.06,1.04.99-21.18,6.07-16.29-13.81-.34,1.39-15.95-15.2,3.85-20.87-1.38.4,5.23-21.27,20.14-7.06-1.04-.99,21.18-6.07,16.29,13.81.34-1.39Z"/><path class="h" d="m334.33,352.99c15.95,15.2-3.85,20.87,1.38-.4-5.23,21.27-20.14,7.06,1.04.99-21.18,6.07-16.29-13.81-.34,1.39-15.95-15.2,3.85-20.87-1.38.4,5.23-21.27,20.14-7.06-1.04-.99,21.18-6.07,16.29,13.81.34-1.39Z"/><path class="e" d="m320,360.22c12.51,11.93-3.03,16.38,1.08-.31-4.11,16.7-15.82,5.55.81.78-16.63,4.77-12.79-10.85-.28,1.08-12.51-11.93,3.03-16.38-1.08.31,4.11-16.7,15.82-5.55-.81-.78,16.63-4.77,12.79,10.85.28-1.08Z"/><path class="h" d="m320,360.22c12.51,11.93-3.03,16.38,1.08-.31-4.11,16.7-15.82,5.55.81.78-16.63,4.77-12.79-10.85-.28,1.08-12.51-11.93,3.03-16.38-1.08.31,4.11-16.7,15.82-5.55-.81-.78,16.63-4.77,12.79,10.85.28-1.08Z"/><path class="e" d="m306.38,361.79c13.03,12.42-3.15,17.05,1.13-.32-4.28,17.37-16.46,5.76.86.81-17.3,4.95-13.31-11.28-.28,1.13-13.03-12.42,3.15-17.05-1.13.32,4.28-17.37,16.46-5.76-.86-.81,17.3-4.95,13.31,11.28.28-1.13Z"/><path class="h" d="m306.38,361.79c13.03,12.42-3.15,17.05,1.13-.32-4.28,17.37-16.46,5.76.86.81-17.3,4.95-13.31-11.28-.28,1.13-13.03-12.42,3.15-17.05-1.13.32,4.28-17.37,16.46-5.76-.86-.81,17.3-4.95,13.31,11.28.28-1.13Z"/><path class="f" d="m422.23,306.69c-30.01,59.15-118.9,88.47-118.9,88.47,0,0,51.79-90.23,29.93-125.58"/><path class="e" d="m333.75,268.62c7.9,11.31-1.91,15.53.69-.29-2.6,15.82-9.98,5.26.52.73-10.5,4.51-8.07-10.27-.17,1.04-7.9-11.31,1.91-15.53-.69.29,2.6-15.82,9.98-5.26-.52-.73,10.5-4.51,8.07,10.27.17-1.04Z"/><path class="h" d="m333.75,268.62c7.9,11.31-1.91,15.53.69-.29-2.6,15.82-9.98,5.26.52.73-10.5,4.51-8.07-10.27-.17,1.04-7.9-11.31,1.91-15.53-.69.29,2.6-15.82,9.98-5.26-.52-.73,10.5-4.51,8.07,10.27.17-1.04Z"/><path class="e" d="m335.75,279.29c10.76,2.7,4.22,14.46.46-.83,3.76,15.28-6.3,12.74.7.18-7,12.58-10.51-1.71.24.99-10.76-2.7-4.22-14.46-.46.83-3.76-15.28,6.3-12.74-.7-.18,7-12.58,10.51,1.71-.24-.99Z"/><path class="h" d="m335.75,279.29c10.76,2.7,4.22,14.46.46-.83,3.76,15.28-6.3,12.74.7.18-7,12.58-10.51-1.71.24.99-10.76-2.7-4.22-14.46-.46.83-3.76-15.28,6.3-12.74-.7-.18,7-12.58,10.51,1.71-.24-.99Z"/><path class="e" d="m336.85,288.38c10.68,3.39,3.8,14.72.47-.79,3.33,15.51-6.65,12.35.7.21-7.35,12.12-10.47-2.37.21,1.01-10.68-3.39-3.8-14.72-.47.79-3.33-15.51,6.65-12.35-.7-.21,7.35-12.12,10.47,2.37-.21-1.01Z"/><path class="h" d="m336.85,288.38c10.68,3.39,3.8,14.72.47-.79,3.33,15.51-6.65,12.35.7.21-7.35,12.12-10.47-2.37.21,1.01-10.68-3.39-3.8-14.72-.47.79-3.33-15.51,6.65-12.35-.7-.21,7.35-12.12,10.47,2.37-.21-1.01Z"/><path class="e" d="m338.75,296.68c2.17,16.06-7.49,11.09.67.35-8.16,10.74-10.18-4.26.14,1.05-10.33-5.32-2.7-15.36-.53.7-2.17-16.06,7.49-11.09-.67-.35,8.16-10.74,10.18,4.26-.14-1.05,10.33,5.32,2.7,15.36.53-.7Z"/><path class="h" d="m338.75,296.68c2.17,16.06-7.49,11.09.67.35-8.16,10.74-10.18-4.26.14,1.05-10.33-5.32-2.7-15.36-.53.7-2.17-16.06,7.49-11.09-.67-.35,8.16-10.74,10.18,4.26-.14-1.05,10.33,5.32,2.7,15.36.53-.7Z"/><path class="e" d="m336.85,306.15c10.53-4.29,7.85,10.48.18-1.02,7.67,11.52-2.17,15.54.69-.28-2.86,15.82-10.02,5.04.5.75-10.53,4.29-7.85-10.48-.18,1.02-7.67-11.52,2.17-15.54-.69.28,2.86-15.82,10.02-5.04-.5-.75Z"/><path class="h" d="m336.85,306.15c10.53-4.29,7.85,10.48.18-1.02,7.67,11.52-2.17,15.54.69-.28-2.86,15.82-10.02,5.04.5.75-10.53,4.29-7.85-10.48-.18,1.02-7.67-11.52,2.17-15.54-.69.28,2.86-15.82,10.02-5.04-.5-.75Z"/><path class="e" d="m335.94,312.25c7.9,11.31-1.91,15.53.69-.29-2.6,15.82-9.98,5.26.52.73-10.5,4.51-8.07-10.27-.17,1.04-7.9-11.31,1.91-15.53-.69.29,2.6-15.82,9.98-5.26-.52-.73,10.5-4.51,8.07,10.27.17-1.04Z"/><path class="h" d="m335.94,312.25c7.9,11.31-1.91,15.53.69-.29-2.6,15.82-9.98,5.26.52.73-10.5,4.51-8.07-10.27-.17,1.04-7.9-11.31,1.91-15.53-.69.29,2.6-15.82,9.98-5.26-.52-.73,10.5-4.51,8.07,10.27.17-1.04Z"/><path class="e" d="m334.03,320.38c7.9,11.31-1.91,15.53.69-.29-2.6,15.82-9.98,5.26.52.73-10.5,4.51-8.07-10.27-.17,1.04-7.9-11.31,1.91-15.53-.69.29,2.6-15.82,9.98-5.26-.52-.73,10.5-4.51,8.07,10.27.17-1.04Z"/><path class="h" d="m334.03,320.38c7.9,11.31-1.91,15.53.69-.29-2.6,15.82-9.98,5.26.52.73-10.5,4.51-8.07-10.27-.17,1.04-7.9-11.31,1.91-15.53-.69.29,2.6-15.82,9.98-5.26-.52-.73,10.5-4.51,8.07,10.27.17-1.04Z"/><path class="e" d="m332.04,327.64c7.9,11.31-1.91,15.53.69-.29-2.6,15.82-9.98,5.26.52.73-10.5,4.51-8.07-10.27-.17,1.04-7.9-11.31,1.91-15.53-.69.29,2.6-15.82,9.98-5.26-.52-.73,10.5-4.51,8.07,10.27.17-1.04Z"/><path class="h" d="m332.04,327.64c7.9,11.31-1.91,15.53.69-.29-2.6,15.82-9.98,5.26.52.73-10.5,4.51-8.07-10.27-.17,1.04-7.9-11.31,1.91-15.53-.69.29,2.6-15.82,9.98-5.26-.52-.73,10.5-4.51,8.07,10.27.17-1.04Z"/><path class="e" d="m329.29,335.29c7.9,11.31-1.91,15.53.69-.29-2.6,15.82-9.98,5.26.52.73-10.5,4.51-8.07-10.27-.17,1.04-7.9-11.31,1.91-15.53-.69.29,2.6-15.82,9.98-5.26-.52-.73,10.5-4.51,8.07,10.27.17-1.04Z"/><path class="h" d="m329.29,335.29c7.9,11.31-1.91,15.53.69-.29-2.6,15.82-9.98,5.26.52.73-10.5,4.51-8.07-10.27-.17,1.04-7.9-11.31,1.91-15.53-.69.29,2.6-15.82,9.98-5.26-.52-.73,10.5-4.51,8.07,10.27.17-1.04Z"/><path class="e" d="m326.54,343.79c7.9,11.31-1.91,15.53.69-.29-2.6,15.82-9.98,5.26.52.73-10.5,4.51-8.07-10.27-.17,1.04-7.9-11.31,1.91-15.53-.69.29,2.6-15.82,9.98-5.26-.52-.73,10.5-4.51,8.07,10.27.17-1.04Z"/><path class="h" d="m326.54,343.79c7.9,11.31-1.91,15.53.69-.29-2.6,15.82-9.98,5.26.52.73-10.5,4.51-8.07-10.27-.17,1.04-7.9-11.31,1.91-15.53-.69.29,2.6-15.82,9.98-5.26-.52-.73,10.5-4.51,8.07,10.27.17-1.04Z"/><path class="e" d="m322.9,352.67c7.9,11.31-1.91,15.53.69-.29-2.6,15.82-9.98,5.26.52.73-10.5,4.51-8.07-10.27-.17,1.04-7.9-11.31,1.91-15.53-.69.29,2.6-15.82,9.98-5.26-.52-.73,10.5-4.51,8.07,10.27.17-1.04h0Z"/><path class="h" d="m322.9,352.67c7.9,11.31-1.91,15.53.69-.29-2.6,15.82-9.98,5.26.52.73-10.5,4.51-8.07-10.27-.17,1.04-7.9-11.31,1.91-15.53-.69.29,2.6-15.82,9.98-5.26-.52-.73,10.5-4.51,8.07,10.27.17-1.04h0Z"/><path class="e" d="m319.01,363.84c7.9,11.31-1.91,15.53.69-.29-2.6,15.82-9.98,5.26.52.73-10.5,4.51-8.07-10.27-.17,1.04-7.9-11.31,1.91-15.53-.69.29,2.6-15.82,9.98-5.26-.52-.73,10.5-4.51,8.07,10.27.17-1.04Z"/><path class="h" d="m319.01,363.84c7.9,11.31-1.91,15.53.69-.29-2.6,15.82-9.98,5.26.52.73-10.5,4.51-8.07-10.27-.17,1.04-7.9-11.31,1.91-15.53-.69.29,2.6-15.82,9.98-5.26-.52-.73,10.5-4.51,8.07,10.27.17-1.04Z"/><path class="e" d="m313.55,371.26c7.9,11.31-1.91,15.53.69-.29-2.6,15.82-9.98,5.26.52.73-10.5,4.51-8.07-10.27-.17,1.04-7.9-11.31,1.91-15.53-.69.29,2.6-15.82,9.98-5.26-.52-.73,10.5-4.51,8.07,10.27.17-1.04Z"/><path class="h" d="m313.55,371.26c7.9,11.31-1.91,15.53.69-.29-2.6,15.82-9.98,5.26.52.73-10.5,4.51-8.07-10.27-.17,1.04-7.9-11.31,1.91-15.53-.69.29,2.6-15.82,9.98-5.26-.52-.73,10.5-4.51,8.07,10.27.17-1.04Z"/><path class="e" d="m304.02,306.37c6.28,15.28-9.02,13.13,1.07.15-10.09,12.97-15.95-1.31.41.99-16.37-2.32-6.94-14.44-.66.84-6.28-15.28,9.02-13.13-1.07-.15,10.09-12.97,15.95,1.31-.41-.99,16.37,2.32,6.94,14.44.66-.84Z"/><path class="h" d="m304.02,306.37c6.28,15.28-9.02,13.13,1.07.15-10.09,12.97-15.95-1.31.41.99-16.37-2.32-6.94-14.44-.66.84-6.28-15.28,9.02-13.13-1.07-.15,10.09-12.97,15.95,1.31-.41-.99,16.37,2.32,6.94,14.44.66-.84Z"/><path class="e" d="m315.46,313.5c-1.88,16.43-14.23,7.14.86.64-15.1,6.49-13.34-8.85-.12,1.07-13.22-9.92.89-16-.98.43,1.88-16.43,14.23-7.14-.86-.64,15.1-6.49,13.34,8.85.12-1.07,13.22,9.92-.89,16,.98-.43Z"/><path class="h" d="m315.46,313.5c-1.88,16.43-14.23,7.14.86.64-15.1,6.49-13.34-8.85-.12,1.07-13.22-9.92.89-16-.98.43,1.88-16.43,14.23-7.14-.86-.64,15.1-6.49,13.34,8.85.12-1.07,13.22,9.92-.89,16,.98-.43Z"/><path class="e" d="m325.73,306.49c-1.88,16.43-14.23,7.14.86.64-15.1,6.49-13.34-8.85-.12,1.07-13.22-9.92.89-16-.98.43,1.88-16.43,14.23-7.14-.86-.64,15.1-6.49,13.34,8.85.12-1.07,13.22,9.92-.89,16,.98-.43Z"/><path class="h" d="m325.73,306.49c-1.88,16.43-14.23,7.14.86.64-15.1,6.49-13.34-8.85-.12,1.07-13.22-9.92.89-16-.98.43,1.88-16.43,14.23-7.14-.86-.64,15.1-6.49,13.34,8.85.12-1.07,13.22,9.92-.89,16,.98-.43Z"/><path class="e" d="m349,293.46c-1.88,16.43-14.23,7.14.86.64-15.1,6.49-13.34-8.85-.12,1.07-13.22-9.92.89-16-.98.43,1.88-16.43,14.23-7.14-.86-.64,15.1-6.49,13.34,8.85.12-1.07,13.22,9.92-.89,16,.98-.43Z"/><path class="h" d="m349,293.46c-1.88,16.43-14.23,7.14.86.64-15.1,6.49-13.34-8.85-.12,1.07-13.22-9.92.89-16-.98.43,1.88-16.43,14.23-7.14-.86-.64,15.1-6.49,13.34,8.85.12-1.07,13.22,9.92-.89,16,.98-.43Z"/><path class="e" d="m358.7,289.09c-1.88,16.43-14.23,7.14.86.64-15.1,6.49-13.34-8.85-.12,1.07-13.22-9.92.89-16-.98.43,1.88-16.43,14.23-7.14-.86-.64,15.1-6.49,13.34,8.85.12-1.07,13.22,9.92-.89,16,.98-.43Z"/><path class="h" d="m358.7,289.09c-1.88,16.43-14.23,7.14.86.64-15.1,6.49-13.34-8.85-.12,1.07-13.22-9.92.89-16-.98.43,1.88-16.43,14.23-7.14-.86-.64,15.1-6.49,13.34,8.85.12-1.07,13.22,9.92-.89,16,.98-.43Z"/><path class="e" d="m368.12,280.59c-1.88,16.43-14.23,7.14.86.64-15.1,6.49-13.34-8.85-.12,1.07-13.22-9.92.89-16-.98.43,1.88-16.43,14.23-7.14-.86-.64,15.1-6.49,13.34,8.85.12-1.07,13.22,9.92-.89,16,.98-.43Z"/><path class="h" d="m368.12,280.59c-1.88,16.43-14.23,7.14.86.64-15.1,6.49-13.34-8.85-.12,1.07-13.22-9.92.89-16-.98.43,1.88-16.43,14.23-7.14-.86-.64,15.1-6.49,13.34,8.85.12-1.07,13.22,9.92-.89,16,.98-.43Z"/><path class="e" d="m377.68,274.13c-1.88,16.43-14.23,7.14.86.64-15.1,6.49-13.34-8.85-.12,1.07-13.22-9.92.89-16-.98.43,1.88-16.43,14.23-7.14-.86-.64,15.1-6.49,13.34,8.85.12-1.07,13.22,9.92-.89,16,.98-.43Z"/><path class="h" d="m377.68,274.13c-1.88,16.43-14.23,7.14.86.64-15.1,6.49-13.34-8.85-.12,1.07-13.22-9.92.89-16-.98.43,1.88-16.43,14.23-7.14-.86-.64,15.1-6.49,13.34,8.85.12-1.07,13.22,9.92-.89,16,.98-.43Z"/><path class="e" d="m387.16,266.27c-1.88,16.43-14.23,7.14.86.64-15.1,6.49-13.34-8.85-.12,1.07-13.22-9.92.89-16-.98.43,1.88-16.43,14.23-7.14-.86-.64,15.1-6.49,13.34,8.85.12-1.07,13.22,9.92-.89,16,.98-.43Z"/><path class="h" d="m387.16,266.27c-1.88,16.43-14.23,7.14.86.64-15.1,6.49-13.34-8.85-.12,1.07-13.22-9.92.89-16-.98.43,1.88-16.43,14.23-7.14-.86-.64,15.1-6.49,13.34,8.85.12-1.07,13.22,9.92-.89,16,.98-.43Z"/><path class="e" d="m394.81,257.15c-8.22,14.33-15.89.93.53.93-16.43,0-8.76-13.4-.53.93-8.22-14.33,7.14-14.33-1.07,0,8.22-14.33,15.89-.93-.53-.93,16.43,0,8.76,13.4.53-.93,8.22,14.33-7.14,14.33,1.07,0Z"/><path class="h" d="m394.81,257.15c-8.22,14.33-15.89.93.53.93-16.43,0-8.76-13.4-.53.93-8.22-14.33,7.14-14.33-1.07,0,8.22-14.33,15.89-.93-.53-.93,16.43,0,8.76,13.4.53-.93,8.22,14.33-7.14,14.33,1.07,0Z"/><path class="e" d="m402.61,251.98c-1.88,16.43-14.23,7.14.86.64-15.1,6.49-13.34-8.85-.12,1.07-13.22-9.92.89-16-.98.43,1.88-16.43,14.23-7.14-.86-.64,15.1-6.49,13.34,8.85.12-1.07,13.22,9.92-.89,16,.98-.43Z"/><path class="h" d="m402.61,251.98c-1.88,16.43-14.23,7.14.86.64-15.1,6.49-13.34-8.85-.12,1.07-13.22-9.92.89-16-.98.43,1.88-16.43,14.23-7.14-.86-.64,15.1-6.49,13.34,8.85.12-1.07,13.22,9.92-.89,16,.98-.43Z"/><path class="e" d="m408.4,242.59c7.43,14.76-7.99,13.77,1.07.08-9.08,13.69-16.01-.11.49.96-16.49-1.07-8.01-13.87-.6.89-7.43-14.76,7.99-13.77-1.07-.08,9.08-13.69,16.01.11-.49-.96,16.49,1.07,8.01,13.87.6-.89Z"/><path class="h" d="m408.4,242.59c7.43,14.76-7.99,13.77,1.07.08-9.08,13.69-16.01-.11.49.96-16.49-1.07-8.01-13.87-.6.89-7.43-14.76,7.99-13.77-1.07-.08,9.08-13.69,16.01.11-.49-.96,16.49,1.07,8.01,13.87.6-.89Z"/><path class="e" d="m414.14,234.72c-1.88,16.43-14.23,7.14.86.64-15.1,6.49-13.34-8.85-.12,1.07-13.22-9.92.89-16-.98.43,1.88-16.43,14.23-7.14-.86-.64,15.1-6.49,13.34,8.85.12-1.07,13.22,9.92-.89,16,.98-.43Z"/><path class="h" d="m414.14,234.72c-1.88,16.43-14.23,7.14.86.64-15.1,6.49-13.34-8.85-.12,1.07-13.22-9.92.89-16-.98.43,1.88-16.43,14.23-7.14-.86-.64,15.1-6.49,13.34,8.85.12-1.07,13.22,9.92-.89,16,.98-.43Z"/><path class="e" d="m314.04,388.03c-1.88,16.43-14.23,7.14.86.64-15.1,6.49-13.34-8.85-.12,1.07-13.22-9.92.89-16-.98.43,1.88-16.43,14.23-7.14-.86-.64,15.1-6.49,13.34,8.85.12-1.07,13.22,9.92-.89,16,.98-.43Z"/><path class="h" d="m314.04,388.03c-1.88,16.43-14.23,7.14.86.64-15.1,6.49-13.34-8.85-.12,1.07-13.22-9.92.89-16-.98.43,1.88-16.43,14.23-7.14-.86-.64,15.1-6.49,13.34,8.85.12-1.07,13.22,9.92-.89,16,.98-.43Z"/><path class="e" d="m310.13,383.11c-1.16,10.15-8.79,4.42.53.4-9.32,4.02-8.24-5.47-.08.66-8.16-6.13.55-9.89-.61.26,1.16-10.15,8.79-4.42-.53-.4,9.32-4.02,8.24,5.47.08-.66,8.16,6.13-.55,9.89.61-.26Z"/><path class="h" d="m310.13,383.11c-1.16,10.15-8.79,4.42.53.4-9.32,4.02-8.24-5.47-.08.66-8.16-6.13.55-9.89-.61.26,1.16-10.15,8.79-4.42-.53-.4,9.32-4.02,8.24,5.47.08-.66,8.16,6.13-.55,9.89.61-.26Z"/><path class="e" d="m325.73,385.46c-1.88,16.43-14.23,7.14.86.64-15.1,6.49-13.34-8.85-.12,1.07-13.22-9.92.89-16-.98.43,1.88-16.43,14.23-7.14-.86-.64,15.1-6.49,13.34,8.85.12-1.07,13.22,9.92-.89,16,.98-.43Z"/><path class="h" d="m325.73,385.46c-1.88,16.43-14.23,7.14.86.64-15.1,6.49-13.34-8.85-.12,1.07-13.22-9.92.89-16-.98.43,1.88-16.43,14.23-7.14-.86-.64,15.1-6.49,13.34,8.85.12-1.07,13.22,9.92-.89,16,.98-.43Z"/><path class="e" d="m334.65,381.62c-1.88,16.43-14.23,7.14.86.64-15.1,6.49-13.34-8.85-.12,1.07-13.22-9.92.89-16-.98.43,1.88-16.43,14.23-7.14-.86-.64,15.1-6.49,13.34,8.85.12-1.07,13.22,9.92-.89,16,.98-.43Z"/><path class="h" d="m334.65,381.62c-1.88,16.43-14.23,7.14.86.64-15.1,6.49-13.34-8.85-.12,1.07-13.22-9.92.89-16-.98.43,1.88-16.43,14.23-7.14-.86-.64,15.1-6.49,13.34,8.85.12-1.07,13.22,9.92-.89,16,.98-.43Z"/><path class="e" d="m345.32,375.92c-1.88,16.43-14.23,7.14.86.64-15.1,6.49-13.34-8.85-.12,1.07-13.22-9.92.89-16-.98.43,1.88-16.43,14.23-7.14-.86-.64,15.1-6.49,13.34,8.85.12-1.07,13.22,9.92-.89,16,.98-.43Z"/><path class="h" d="m345.32,375.92c-1.88,16.43-14.23,7.14.86.64-15.1,6.49-13.34-8.85-.12,1.07-13.22-9.92.89-16-.98.43,1.88-16.43,14.23-7.14-.86-.64,15.1-6.49,13.34,8.85.12-1.07,13.22,9.92-.89,16,.98-.43Z"/><path class="e" d="m353.75,370.93c-1.88,16.43-14.23,7.14.86.64-15.1,6.49-13.34-8.85-.12,1.07-13.22-9.92.89-16-.98.43,1.88-16.43,14.23-7.14-.86-.64,15.1-6.49,13.34,8.85.12-1.07,13.22,9.92-.89,16,.98-.43Z"/><path class="h" d="m353.75,370.93c-1.88,16.43-14.23,7.14.86.64-15.1,6.49-13.34-8.85-.12,1.07-13.22-9.92.89-16-.98.43,1.88-16.43,14.23-7.14-.86-.64,15.1-6.49,13.34,8.85.12-1.07,13.22,9.92-.89,16,.98-.43Z"/><path class="e" d="m362.91,365.5c-1.88,16.43-14.23,7.14.86.64-15.1,6.49-13.34-8.85-.12,1.07-13.22-9.92.89-16-.98.43,1.88-16.43,14.23-7.14-.86-.64,15.1-6.49,13.34,8.85.12-1.07,13.22,9.92-.89,16,.98-.43Z"/><path class="h" d="m362.91,365.5c-1.88,16.43-14.23,7.14.86.64-15.1,6.49-13.34-8.85-.12,1.07-13.22-9.92.89-16-.98.43,1.88-16.43,14.23-7.14-.86-.64,15.1-6.49,13.34,8.85.12-1.07,13.22,9.92-.89,16,.98-.43Z"/><path class="e" d="m373.53,359.93c-1.88,16.43-14.23,7.14.86.64-15.1,6.49-13.34-8.85-.12,1.07-13.22-9.92.89-16-.98.43,1.88-16.43,14.23-7.14-.86-.64,15.1-6.49,13.34,8.85.12-1.07,13.22,9.92-.89,16,.98-.43Z"/><path class="h" d="m373.53,359.93c-1.88,16.43-14.23,7.14.86.64-15.1,6.49-13.34-8.85-.12,1.07-13.22-9.92.89-16-.98.43,1.88-16.43,14.23-7.14-.86-.64,15.1-6.49,13.34,8.85.12-1.07,13.22,9.92-.89,16,.98-.43Z"/><path class="e" d="m383.52,352.7c-1.88,16.43-14.23,7.14.86.64-15.1,6.49-13.34-8.85-.12,1.07-13.22-9.92.89-16-.98.43,1.88-16.43,14.23-7.14-.86-.64,15.1-6.49,13.34,8.85.12-1.07,13.22,9.92-.89,16,.98-.43Z"/><path class="h" d="m383.52,352.7c-1.88,16.43-14.23,7.14.86.64-15.1,6.49-13.34-8.85-.12,1.07-13.22-9.92.89-16-.98.43,1.88-16.43,14.23-7.14-.86-.64,15.1-6.49,13.34,8.85.12-1.07,13.22,9.92-.89,16,.98-.43Z"/><path class="e" d="m393.65,344.49c-1.88,16.43-14.23,7.14.86.64-15.1,6.49-13.34-8.85-.12,1.07-13.22-9.92.89-16-.98.43,1.88-16.43,14.23-7.14-.86-.64,15.1-6.49,13.34,8.85.12-1.07,13.22,9.92-.89,16,.98-.43Z"/><path class="h" d="m393.65,344.49c-1.88,16.43-14.23,7.14.86.64-15.1,6.49-13.34-8.85-.12,1.07-13.22-9.92.89-16-.98.43,1.88-16.43,14.23-7.14-.86-.64,15.1-6.49,13.34,8.85.12-1.07,13.22,9.92-.89,16,.98-.43Z"/><path class="e" d="m403.61,331.5c-1.88,16.43-14.23,7.14.86.64-15.1,6.49-13.34-8.85-.12,1.07-13.22-9.92.89-16-.98.43,1.88-16.43,14.23-7.14-.86-.64,15.1-6.49,13.34,8.85.12-1.07,13.22,9.92-.89,16,.98-.43Z"/><path class="h" d="m403.61,331.5c-1.88,16.43-14.23,7.14.86.64-15.1,6.49-13.34-8.85-.12,1.07-13.22-9.92.89-16-.98.43,1.88-16.43,14.23-7.14-.86-.64,15.1-6.49,13.34,8.85.12-1.07,13.22,9.92-.89,16,.98-.43Z"/><path class="e" d="m413.49,322.08c-1.88,16.43-14.23,7.14.86.64-15.1,6.49-13.34-8.85-.12,1.07-13.22-9.92.89-16-.98.43,1.88-16.43,14.23-7.14-.86-.64,15.1-6.49,13.34,8.85.12-1.07,13.22,9.92-.89,16,.98-.43Z"/><path class="h" d="m413.49,322.08c-1.88,16.43-14.23,7.14.86.64-15.1,6.49-13.34-8.85-.12,1.07-13.22-9.92.89-16-.98.43,1.88-16.43,14.23-7.14-.86-.64,15.1-6.49,13.34,8.85.12-1.07,13.22,9.92-.89,16,.98-.43Z"/><path class="e" d="m419.55,311.91c-1.88,16.43-14.23,7.14.86.64-15.1,6.49-13.34-8.85-.12,1.07-13.22-9.92.89-16-.98.43,1.88-16.43,14.23-7.14-.86-.64,15.1-6.49,13.34,8.85.12-1.07,13.22,9.92-.89,16,.98-.43Z"/><path class="h" d="m419.55,311.91c-1.88,16.43-14.23,7.14.86.64-15.1,6.49-13.34-8.85-.12,1.07-13.22-9.92.89-16-.98.43,1.88-16.43,14.23-7.14-.86-.64,15.1-6.49,13.34,8.85.12-1.07,13.22,9.92-.89,16,.98-.43Z"/><circle class="c" cx="314.07" cy="389.46" r="1.25"/><circle class="c" cx="325.61" cy="386.53" r="1.25"/><circle class="c" cx="334.53" cy="382.69" r="1.25"/><circle class="c" cx="345.2" cy="376.99" r="1.25"/><circle class="c" cx="353.63" cy="372" r="1.25"/><circle class="c" cx="362.78" cy="366.57" r="1.25"/><circle class="c" cx="373.4" cy="361" r="1.25"/><circle class="c" cx="383.4" cy="353.77" r="1.25"/><circle class="c" cx="393.53" cy="345.56" r="1.25"/><circle class="c" cx="403.49" cy="332.57" r="1.25"/><circle class="c" cx="413.36" cy="323.15" r="1.25"/><circle class="c" cx="419.43" cy="312.98" r="1.25"/><circle class="c" cx="424.96" cy="324.58" r="1.25"/><circle class="c" cx="436.96" cy="319.46" r="1.25"/><circle class="c" cx="449.23" cy="312.04" r="1.25"/><circle class="c" cx="471.63" cy="297.9" r="1.25"/><circle class="c" cx="462.63" cy="304.93" r="1.25"/><circle class="c" cx="486.48" cy="292.4" r="1.25"/><circle class="c" cx="498.14" cy="283.14" r="1.25"/><circle class="c" cx="509.04" cy="273.9" r="1.25"/><circle class="c" cx="521.87" cy="264.13" r="1.25"/><circle class="c" cx="532.05" cy="257.56" r="1.25"/><circle class="c" cx="541.26" cy="243.64" r="1.25"/><circle class="c" cx="310.05" cy="383.76" r="1.25"/><circle class="c" cx="314.07" cy="372" r="1.25"/><circle class="c" cx="319.53" cy="364.57" r="1.25"/><circle class="c" cx="323.42" cy="353.42" r="1.25"/><path class="c" d="m335.37,352.71c.69,0,1.25.56,1.25,1.25s-.56,1.25-1.25,1.25-1.25-.56-1.25-1.25.56-1.25,1.25-1.25Z"/><circle class="c" cx="347.86" cy="350.48" r="1.25"/><circle class="c" cx="362.14" cy="347.18" r="1.25"/><circle class="c" cx="375.22" cy="343.09" r="1.25"/><circle class="c" cx="388.43" cy="338.06" r="1.25"/><circle class="c" cx="327.06" cy="344.52" r="1.25"/><circle class="c" cx="329.81" cy="336.03" r="1.25"/><circle class="c" cx="332.64" cy="328.05" r="1.25"/><circle class="c" cx="334.53" cy="320.3" r="1.25"/><circle class="c" cx="336.46" cy="312.5" r="1.25"/><circle class="c" cx="337.83" cy="305.59" r="1.25"/><circle class="c" cx="338.89" cy="297.09" r="1.25"/><circle class="c" cx="337.31" cy="287.91" r="1.25"/><circle class="c" cx="336.43" cy="279.37" r="1.25"/><circle class="c" cx="334.01" cy="268.49" r="1.25"/><circle class="c" cx="330.08" cy="192.16" r="1.25"/><circle class="c" cx="332.39" cy="202.23" r="1.25"/><circle class="c" cx="333.35" cy="210.83" r="1.25"/><circle class="c" cx="334.7" cy="220.54" r="1.25"/><circle class="c" cx="333.68" cy="228.36" r="1.25"/><circle class="c" cx="332.35" cy="235.79" r="1.25"/><circle class="c" cx="330.42" cy="243.64" r="1.25"/><circle class="c" cx="328.36" cy="250.7" r="1.25"/><circle class="c" cx="325.61" cy="258.85" r="1.25"/><circle class="c" cx="322.86" cy="267.34" r="1.25"/><circle class="c" cx="319.22" cy="276.22" r="1.25"/><circle class="c" cx="315.37" cy="287.27" r="1.25"/><circle class="c" cx="309.91" cy="294.63" r="1.25"/><circle class="c" cx="304.44" cy="306.6" r="1.25"/><circle class="c" cx="326.07" cy="307.36" r="1.25"/><circle class="c" cx="315.34" cy="314.57" r="1.25"/><circle class="c" cx="313.92" cy="345.56" r="1.25"/><circle class="c" cx="307.24" cy="362.6" r="1.25"/><circle class="c" cx="300.47" cy="354.49" r="1.25"/><circle class="c" cx="293.46" cy="359.65" r="1.25"/><circle class="c" cx="296.28" cy="336.32" r="1.25"/><circle class="c" cx="292.6" cy="320.72" r="1.25"/><circle class="c" cx="286.78" cy="307.56" r="1.25"/><circle class="c" cx="285.22" cy="292.78" r="1.25"/><circle class="c" cx="281.16" cy="278.99" r="1.25"/><circle class="c" cx="278.47" cy="265.39" r="1.25"/><circle class="c" cx="274.83" cy="248.94" r="1.25"/><circle class="c" cx="267.94" cy="233.63" r="1.25"/><circle class="c" cx="259.75" cy="215.75" r="1.25"/><circle class="c" cx="252.43" cy="199.82" r="1.25"/><circle class="c" cx="243.29" cy="187.78" r="1.25"/><circle class="c" cx="233.79" cy="175.63" r="1.25"/><circle class="c" cx="224.47" cy="166.03" r="1.25"/><circle class="c" cx="210.62" cy="157.12" r="1.25"/><circle class="c" cx="348.8" cy="294.36" r="1.25"/><circle class="c" cx="358.48" cy="289.9" r="1.25"/><circle class="c" cx="368" cy="281.66" r="1.25"/><circle class="c" cx="377.56" cy="275.2" r="1.25"/><circle class="c" cx="387.04" cy="267.34" r="1.25"/><circle class="c" cx="394.28" cy="258.1" r="1.25"/><circle class="c" cx="402.64" cy="252.99" r="1.25"/><circle class="c" cx="414.57" cy="235.79" r="1.25"/><circle class="c" cx="408.89" cy="243.9" r="1.25"/><circle class="c" cx="281.23" cy="350.48" r="1.25"/><circle class="c" cx="267.94" cy="341.36" r="1.25"/><circle class="c" cx="267.94" cy="327.58" r="1.25"/><circle class="c" cx="252.63" cy="332.12" r="1.25"/><circle class="c" cx="241.53" cy="322.86" r="1.25"/><circle class="c" cx="254.87" cy="316.33" r="1.25"/><circle class="c" cx="243.29" cy="299.02" r="1.25"/><circle class="c" cx="224.45" cy="313.63" r="1.25"/><circle class="c" cx="210.54" cy="303.66" r="1.25"/><circle class="c" cx="231.19" cy="285.98" r="1.25"/><circle class="c" cx="195.52" cy="296.4" r="1.25"/><circle class="c" cx="179.31" cy="288.8" r="1.25"/><circle class="c" cx="163.25" cy="279.28" r="1.25"/><circle class="c" cx="142.76" cy="276.08" r="1.25"/><circle class="c" cx="127.2" cy="268.32" r="1.25"/><circle class="c" cx="109.59" cy="263.26" r="1.25"/><circle class="c" cx="92.11" cy="262.5" r="1.25"/><circle class="c" cx="71.31" cy="259.82" r="1.25"/><circle class="c" cx="52.94" cy="264.91" r="1.25"/><circle class="c" cx="33.08" cy="276.08" r="1.25"/><circle class="c" cx="225.89" cy="272.96" r="1.25"/><circle class="c" cx="219.76" cy="257.85" r="1.25"/><circle class="c" cx="218.25" cy="243.44" r="1.25"/><path class="e" d="m303.8,371.02c9.35,8.91-2.26,12.24.81-.23-3.07,12.47-11.81,4.14.61.58-12.42,3.56-9.55-8.1-.2.81-9.35-8.91,2.26-12.24-.81.23,3.07-12.47,11.81-4.14-.61-.58,12.42-3.56,9.55,8.1.2-.81Z"/><path class="h" d="m303.8,371.02c9.35,8.91-2.26,12.24.81-.23-3.07,12.47-11.81,4.14.61.58-12.42,3.56-9.55-8.1-.2.81-9.35-8.91,2.26-12.24-.81.23,3.07-12.47,11.81-4.14-.61-.58,12.42-3.56,9.55,8.1.2-.81Z"/><circle class="c" cx="304.41" cy="371.6" r=".73"/><path class="e" d="m305.16,380.6c9.35,8.91-2.26,12.24.81-.23-3.07,12.47-11.81,4.14.61.58-12.42,3.56-9.55-8.1-.2.81-9.35-8.91,2.26-12.24-.81.23,3.07-12.47,11.81-4.14-.61-.58,12.42-3.56,9.55,8.1.2-.81Z"/><path class="h" d="m305.16,380.6c9.35,8.91-2.26,12.24.81-.23-3.07,12.47-11.81,4.14.61.58-12.42,3.56-9.55-8.1-.2.81-9.35-8.91,2.26-12.24-.81.23,3.07-12.47,11.81-4.14-.61-.58,12.42-3.56,9.55,8.1.2-.81Z"/><circle class="c" cx="305.77" cy="381.18" r=".73"/><path class="e" d="m303.8,387.63c9.35,8.91-2.26,12.24.81-.23-3.07,12.47-11.81,4.14.61.58-12.42,3.56-9.55-8.1-.2.81-9.35-8.91,2.26-12.24-.81.23,3.07-12.47,11.81-4.14-.61-.58,12.42-3.56,9.55,8.1.2-.81Z"/><path class="h" d="m303.8,387.63c9.35,8.91-2.26,12.24.81-.23-3.07,12.47-11.81,4.14.61.58-12.42,3.56-9.55-8.1-.2.81-9.35-8.91,2.26-12.24-.81.23,3.07-12.47,11.81-4.14-.61-.58,12.42-3.56,9.55,8.1.2-.81Z"/><circle class="c" cx="304.41" cy="388.21" r=".73"/><path class="e" d="m304.18,394.92c9.35,8.91-2.26,12.24.81-.23-3.07,12.47-11.81,4.14.61.58-12.42,3.56-9.55-8.1-.2.81-9.35-8.91,2.26-12.24-.81.23,3.07-12.47,11.81-4.14-.61-.58,12.42-3.56,9.55,8.1.2-.81Z"/><path class="h" d="m304.18,394.92c9.35,8.91-2.26,12.24.81-.23-3.07,12.47-11.81,4.14.61.58-12.42,3.56-9.55-8.1-.2.81-9.35-8.91,2.26-12.24-.81.23,3.07-12.47,11.81-4.14-.61-.58,12.42-3.56,9.55,8.1.2-.81Z"/><circle class="c" cx="304.8" cy="395.5" r=".73"/><path class="e" d="m304.9,401.7c9.35,8.91-2.26,12.24.81-.23-3.07,12.47-11.81,4.14.61.58-12.42,3.56-9.55-8.1-.2.81-9.35-8.91,2.26-12.24-.81.23,3.07-12.47,11.81-4.14-.61-.58,12.42-3.56,9.55,8.1.2-.81Z"/><path class="h" d="m304.9,401.7c9.35,8.91-2.26,12.24.81-.23-3.07,12.47-11.81,4.14.61.58-12.42,3.56-9.55-8.1-.2.81-9.35-8.91,2.26-12.24-.81.23,3.07-12.47,11.81-4.14-.61-.58,12.42-3.56,9.55,8.1.2-.81Z"/><circle class="c" cx="305.5" cy="402.28" r=".73"/><path class="b" d="m292.27,462.28s6.34-2.26,6.86-1.86c0,0,5.68-.95,5.96.14s0,1.19,0,1.19c0,0,3.79-.89,5.65.44l-.57.69,6.62,1.3-.78.64,6.36,2.63-.99.24,5.04,3.35-.4.5,4.63,4.13-.73.35,3.09,4.74-.83.43,2.31,5.32-.81.2,1.21,5.94-.78-.28.2,6.14-.78-.28-.81,6.52-1.19-.29-.73,5.16-.64-.23-1.28,4.81-.55-.49-1.94,4.06-3.06-4.45-.17.49-3.88-3.3-.18.61-3.9-2.61-.17.6-3.67-2.25-.03.67-4.05-2.9.05.79-4.43-2.84-.06.63-3.82-2.43v.67l-4.43-3.35-.05.41-3.48-4.17-.12.53-2.38-5.01-.4.47-1.47-6.04-.5.5.49-6.48-.69.44,1.42-6.92-.86.06,4.43-8.94-2.72-.73.4-1.13,3.62,1.15h0Z"/><path class="g" d="m290.32,465.27s13.63,8.34,22.02,21.9,12.41,20.49,13.75,32.12"/><path class="g" d="m299.91,472.65s-.86,23.13,6.69,30.58"/><path class="g" d="m308.03,481.13s1.07,21.37,6.51,25.75"/><path class="g" d="m315.16,493.42s2.06,15.12,5.15,17.11"/><path class="g" d="m320.29,497.8s9.05,6.22,8.88,7.4"/><path class="g" d="m312.33,487.17s16,4.6,20.52,13.31"/><path class="g" d="m303.77,476.35s18.84,2.12,30.45,18.54"/><path class="g" d="m297.15,467.07s11.92-2.52,31.66,10.02"/><path class="g" d="m294.74,469.38s-3.36,24.39,4.25,32.46"/><path class="b" d="m305.12,411.76s6.34-2.26,6.86-1.86c0,0,5.68-.95,5.96.14s0,1.19,0,1.19c0,0,3.79-.89,5.65.44l-.57.69,6.62,1.3-.78.64,6.36,2.63-.99.24,5.04,3.35-.4.5,4.63,4.13-.73.35,3.09,4.74-.83.43,2.31,5.32-.81.2,1.21,5.94-.78-.28.2,6.14-.78-.28-.81,6.52-1.19-.29-.73,5.16-.64-.23-1.28,4.81-.55-.49-1.94,4.06-3.06-4.45-.17.49-3.88-3.3-.18.61-3.9-2.61-.17.6-3.67-2.25-.03.67-4.05-2.9.05.79-4.43-2.84-.06.63-3.82-2.43v.67l-4.43-3.35-.05.41-3.48-4.17-.12.53-2.38-5.01-.4.47-1.47-6.04-.5.5.49-6.48-.69.44,1.42-6.92-.86.06,4.43-8.94-2.72-.73.4-1.13,3.62,1.15h0Z"/><path class="g" d="m303.83,412.49s13.63,8.34,22.02,21.9c8.39,13.55,12.41,20.49,13.75,32.12"/><path class="g" d="m313.89,421.27s-.86,25.93,6.69,34.27"/><path class="g" d="m321.53,428.34s1.07,24.63,6.51,29.67"/><path class="g" d="m328.66,440.64s2.06,18.4,5.15,20.83"/><path class="g" d="m333.8,445.01s9.05,6.22,8.88,7.4"/><path class="g" d="m325.84,434.39s16,4.6,20.52,13.31"/><path class="g" d="m316.01,422.02s18.84,2.12,30.45,18.54"/><path class="g" d="m312.21,417.11s11.92-2.52,31.66,10.02"/><path class="g" d="m308.67,418.16s-3.36,24.39,4.25,32.46"/><path class="b" d="m291.94,413.45s-4.86-3.99-5.44-3.76c0,0-4.69-2.55-5.27-1.6-.58.95-.38,1.12-.38,1.12,0,0-3.04-1.94-5.1-1.22l.28.81-6.22-.69.47.83-6.4.66.79.52-5.47,1.71.2.6-5.36,2.57.53.55-4.2,3.61.6.64-3.7,4.37.66.43-2.93,5.29.76-.03-2.11,5.78.76-.03-1.34,6.43,1.15.08-.98,5.12.63-.03-.38,4.94.63-.31.43,4.42,4.08-3.33v.52l4.43-2-.03.64,4.23-1.36-.03.61,3.93-1.07-.18.64,4.46-1.57-.29.75,4.78-1.41-.15.61,4.13-1.21-.2.64,4.92-1.91-.09.4,4.37-2.95-.06.55,3.67-4.06.2.57,3.18-5.3.28.63,1.6-6.3.47.63.92-6.98.73.31-1.07-9.76,2.63.09v-1.19l-3.53.03.05.03Z"/><path class="g" d="m292.85,414.51s-14.58,3.96-26.19,14.39c-11.61,10.44-17.31,15.85-22.16,26.51"/><path class="g" d="m280.74,419.57s-7.4,24.88-16.64,30.59"/><path class="g" d="m270.96,425.27s-8.68,23.07-15.02,26.28"/><path class="g" d="m260.85,434.86s-7.58,16.87-11.05,18.28"/><path class="g" d="m254.97,437.52s-9.89,3.27-10.12,4.45"/><path class="g" d="m266.65,428.92s-15.49-.28-22.19,6.68"/><path class="g" d="m277.58,421.12s-17.19-3.45-32.55,8.76"/><path class="g" d="m286.14,416.6s-9.66-5.85-30.93.32"/><path class="g" d="m286.31,417.96s-4.71,24.13-13.92,29.58"/><path class="b" d="m270.64,486.19s-3.56-5.18-4.19-5.12c0,0-3.8-3.74-4.61-3.01-.83.75-.67.98-.67.98,0,0-2.38-2.7-4.57-2.58l.05.86-5.79-2.38.23.93-6.33-1.15.63.72-5.73.14v.63l-5.84.98.37.67-5.03,2.31.4.78-4.75,3.18.5.6-4.28,4.26.75.18-3.62,4.97.75.18-3.07,5.82,1.07.38-2.37,4.65.61.15-1.74,4.65.69-.11-.83,4.37,4.84-2.06-.15.49,4.83-.7-.21.61,4.45-.14-.2.58,4.06.06-.35.57,4.74-.28-.49.63,4.98-.03-.31.55h4.29l-.38.55,5.26-.46-.2.35,5.01-1.62-.21.5,4.65-2.9.03.6,4.52-4.2.09.69,3.29-5.61.28.72,2.81-6.46.63.49,1.67-9.69,2.49.83.34-1.15-3.41-.95.05.02Z"/><path class="g" d="m271.21,487.47s-15.11-.23-29.16,6.59c-14.04,6.82-21.03,10.44-28.64,19.33"/><path class="g" d="m259.73,488.54s-13.98,21.85-24.46,24.79"/><path class="g" d="m248.75,491.31s-14.73,19.77-21.71,21.1"/><path class="g" d="m236.37,497.74s-11.96,14.12-15.68,14.5"/><path class="g" d="m229.98,498.67s-10.41.4-10.96,1.47"/><path class="g" d="m242.05,494.04s-14.81-4.55-23.17.26"/><path class="g" d="m254.71,489.58s-15.56-8.08-33.69-.6"/><path class="g" d="m264.18,487.61s-7.66-8.3-29.81-8.25"/><path class="e" d="m434.92,264.01c13.63,11.08,16.44-4.11-.2,1.05,16.64-5.18,3.9-15.53.89.72,3.01-16.26-12.55-11.41,1.08-.34-13.63-11.08-16.44,4.11.2-1.05-16.64,5.18-3.9,15.53-.89-.72-3.01,16.26,12.55,11.41-1.08.34Z"/><path class="h" d="m434.92,264.01c13.63,11.08,16.44-4.11-.2,1.05,16.64-5.18,3.9-15.53.89.72,3.01-16.26-12.55-11.41,1.08-.34-13.63-11.08-16.44,4.11.2-1.05-16.64,5.18-3.9,15.53-.89-.72-3.01,16.26,12.55,11.41-1.08.34Z"/><path class="e" d="m338.73,332.8c14.72,2.51,14.1-8.21.05.75,14.06-8.95.31-11.29.96.17-.64-11.46-13.8-3.1.92-.58-14.72-2.51-14.1,8.21-.05-.75-14.06,8.95-.31,11.29-.96-.17.64,11.46,13.8,3.1-.92.58Z"/><path class="h" d="m338.73,332.8c14.72,2.51,14.1-8.21.05.75,14.06-8.95.31-11.29.96.17-.64-11.46-13.8-3.1.92-.58-14.72-2.51-14.1,8.21-.05-.75-14.06,8.95-.31,11.29-.96-.17.64,11.46,13.8,3.1-.92.58Z"/><path class="e" d="m350.01,330.19c7.76,8.69,16-2.17-.58.76,16.58-2.92,9.32-11.06.5.57,8.82-11.63-6.68-8.89,1.08-.18-7.76-8.69-16,2.17.58-.76-16.58,2.92-9.32,11.06-.5-.57-8.82,11.63,6.68,8.89-1.08.18Z"/><path class="h" d="m350.01,330.19c7.76,8.69,16-2.17-.58.76,16.58-2.92,9.32-11.06.5.57,8.82-11.63-6.68-8.89,1.08-.18-7.76-8.69-16,2.17.58-.76-16.58,2.92-9.32,11.06-.5-.57-8.82,11.63,6.68,8.89-1.08.18Z"/><path class="e" d="m359.33,327.39c8.37,8.34,16.04-2.64-.53.76,16.58-3.41,8.76-11.2.55.55,8.21-11.75-7.29-8.57,1.08-.23-8.37-8.34-16.04,2.64.53-.76-16.58,3.41-8.76,11.2-.55-.55-8.21,11.75,7.29,8.57-1.08.23Z"/><path class="h" d="m359.33,327.39c8.37,8.34,16.04-2.64-.53.76,16.58-3.41,8.76-11.2.55.55,8.21-11.75-7.29-8.57,1.08-.23-8.37-8.34-16.04,2.64.53-.76-16.58,3.41-8.76,11.2-.55-.55-8.21,11.75,7.29,8.57-1.08.23Z"/><path class="e" d="m368.26,325.68c16.56-4.71,7.15-11.45.66.47,6.49-11.92-9-7.52,1.08-.31-10.07-7.21-16.15,3.93.43-.78-16.56,4.71-7.15,11.45-.66-.47-6.49,11.92,9,7.52-1.08.31,10.07,7.21,16.15-3.93-.43.78Z"/><path class="h" d="m368.26,325.68c16.56-4.71,7.15-11.45.66.47,6.49-11.92-9-7.52,1.08-.31-10.07-7.21-16.15,3.93.43-.78-16.56,4.71-7.15,11.45-.66-.47-6.49,11.92,9,7.52-1.08.31,10.07,7.21,16.15-3.93-.43.78Z"/><path class="e" d="m376.52,320.01c.89,11.4,13.91,2.81-.9.6,14.81,2.22,13.98-8.45.06.75,13.92-9.2.09-11.26.96.14-.89-11.4-13.91-2.81.9-.6-14.81-2.22-13.98,8.45-.06-.75-13.92,9.2-.09,11.26-.96-.14Z"/><path class="h" d="m376.52,320.01c.89,11.4,13.91,2.81-.9.6,14.81,2.22,13.98-8.45.06.75,13.92-9.2.09-11.26.96.14-.89-11.4-13.91-2.81.9-.6-14.81-2.22-13.98,8.45-.06-.75-13.92,9.2-.09,11.26-.96-.14Z"/><path class="e" d="m381.96,316.65c14.72,2.51,14.1-8.21.05.75,14.06-8.95.31-11.29.96.17-.64-11.46-13.8-3.1.92-.58-14.72-2.51-14.1,8.21-.05-.75-14.06,8.95-.31,11.29-.96-.17.64,11.46,13.8,3.1-.92.58Z"/><path class="h" d="m381.96,316.65c14.72,2.51,14.1-8.21.05.75,14.06-8.95.31-11.29.96.17-.64-11.46-13.8-3.1.92-.58-14.72-2.51-14.1,8.21-.05-.75-14.06,8.95-.31,11.29-.96-.17.64,11.46,13.8,3.1-.92.58Z"/><path class="e" d="m388.91,311.5c14.72,2.51,14.1-8.21.05.75,14.06-8.95.31-11.29.96.17-.64-11.46-13.8-3.1.92-.58-14.72-2.51-14.1,8.21-.05-.75-14.06,8.95-.31,11.29-.96-.17.64,11.46,13.8,3.1-.92.58Z"/><path class="h" d="m388.91,311.5c14.72,2.51,14.1-8.21.05.75,14.06-8.95.31-11.29.96.17-.64-11.46-13.8-3.1.92-.58-14.72-2.51-14.1,8.21-.05-.75-14.06,8.95-.31,11.29-.96-.17.64,11.46,13.8,3.1-.92.58Z"/><path class="e" d="m395,306.67c14.72,2.51,14.1-8.21.05.75,14.06-8.95.31-11.29.96.17-.64-11.46-13.8-3.1.92-.58-14.72-2.51-14.1,8.21-.05-.75-14.06,8.95-.31,11.29-.96-.17.64,11.46,13.8,3.1-.92.58Z"/><path class="h" d="m395,306.67c14.72,2.51,14.1-8.21.05.75,14.06-8.95.31-11.29.96.17-.64-11.46-13.8-3.1.92-.58-14.72-2.51-14.1,8.21-.05-.75-14.06,8.95-.31,11.29-.96-.17.64,11.46,13.8,3.1-.92.58Z"/><path class="e" d="m401.08,300.99c14.72,2.51,14.1-8.21.05.75,14.06-8.95.31-11.29.96.17-.64-11.46-13.8-3.1.92-.58-14.72-2.51-14.1,8.21-.05-.75-14.06,8.95-.31,11.29-.96-.17.64,11.46,13.8,3.1-.92.58Z"/><path class="h" d="m401.08,300.99c14.72,2.51,14.1-8.21.05.75,14.06-8.95.31-11.29.96.17-.64-11.46-13.8-3.1.92-.58-14.72-2.51-14.1,8.21-.05-.75-14.06,8.95-.31,11.29-.96-.17.64,11.46,13.8,3.1-.92.58Z"/><path class="e" d="m407.97,294.94c14.72,2.51,14.1-8.21.05.75,14.06-8.95.31-11.29.96.17-.64-11.46-13.8-3.1.92-.58-14.72-2.51-14.1,8.21-.05-.75-14.06,8.95-.31,11.29-.96-.17.64,11.46,13.8,3.1-.92.58Z"/><path class="h" d="m407.97,294.94c14.72,2.51,14.1-8.21.05.75,14.06-8.95.31-11.29.96.17-.64-11.46-13.8-3.1.92-.58-14.72-2.51-14.1,8.21-.05-.75-14.06,8.95-.31,11.29-.96-.17.64,11.46,13.8,3.1-.92.58Z"/><path class="e" d="m414.83,287.92c14.72,2.51,14.1-8.21.05.75,14.06-8.95.31-11.29.96.17-.64-11.46-13.8-3.1.92-.58-14.72-2.51-14.1,8.21-.05-.75-14.06,8.95-.31,11.29-.96-.17.64,11.46,13.8,3.1-.92.58Z"/><path class="h" d="m414.83,287.92c14.72,2.51,14.1-8.21.05.75,14.06-8.95.31-11.29.96.17-.64-11.46-13.8-3.1.92-.58-14.72-2.51-14.1,8.21-.05-.75-14.06,8.95-.31,11.29-.96-.17.64,11.46,13.8,3.1-.92.58Z"/><path class="e" d="m423.77,279.72c14.72,2.51,14.1-8.21.05.75,14.06-8.95.31-11.29.96.17-.64-11.46-13.8-3.1.92-.58-14.72-2.51-14.1,8.21-.05-.75-14.06,8.95-.31,11.29-.96-.17.64,11.46,13.8,3.1-.92.58Z"/><path class="h" d="m423.77,279.72c14.72,2.51,14.1-8.21.05.75,14.06-8.95.31-11.29.96.17-.64-11.46-13.8-3.1.92-.58-14.72-2.51-14.1,8.21-.05-.75-14.06,8.95-.31,11.29-.96-.17.64,11.46,13.8,3.1-.92.58Z"/><path class="e" d="m428.34,271.65c14.72,2.51,14.1-8.21.05.75,14.06-8.95.31-11.29.96.17-.64-11.46-13.8-3.1.92-.58-14.72-2.51-14.1,8.21-.05-.75-14.06,8.95-.31,11.29-.96-.17.64,11.46,13.8,3.1-.92.58Z"/><path class="h" d="m428.34,271.65c14.72,2.51,14.1-8.21.05.75,14.06-8.95.31-11.29.96.17-.64-11.46-13.8-3.1.92-.58-14.72-2.51-14.1,8.21-.05-.75-14.06,8.95-.31,11.29-.96-.17.64,11.46,13.8,3.1-.92.58Z"/><ellipse class="c" cx="339.72" cy="333" rx="1.25" ry="1.34" transform="translate(-55.58 597.65) rotate(-78.23)"/><ellipse class="c" cx="389.65" cy="311.88" rx="1.25" ry="1.34" transform="translate(4.84 629.72) rotate(-78.23)"/><ellipse class="c" cx="395.5" cy="307.07" rx="1.25" ry="1.34" transform="translate(14.21 631.61) rotate(-78.23)"/><ellipse class="c" cx="402.08" cy="301.18" rx="1.25" ry="1.34" transform="translate(25.22 633.37) rotate(-78.23)"/><ellipse class="c" cx="408.96" cy="295.13" rx="1.25" ry="1.34" transform="translate(36.61 635.29) rotate(-78.23)"/><ellipse class="c" cx="415.82" cy="288.12" rx="1.25" ry="1.34" transform="translate(48.94 636.43) rotate(-78.23)"/><ellipse class="c" cx="424.66" cy="280" rx="1.25" ry="1.34" transform="translate(63.92 638.61) rotate(-78.23)"/><ellipse class="c" cx="435.85" cy="264.75" rx="1.25" ry="1.34" transform="translate(87.76 637.43) rotate(-78.23)"/><path class="e" d="m438.7,257.45c17.8-.43,8.56-13.6.64.92,7.92-14.52-8.73-14.1,1.16-.03-9.89-14.09-17.28-.52.52-.95-17.8.43-8.56,13.6-.64-.92-7.92,14.52,8.73,14.1-1.16.03,9.89,14.09,17.28.52-.52.95Z"/><path class="h" d="m438.7,257.45c17.8-.43,8.56-13.6.64.92,7.92-14.52-8.73-14.1,1.16-.03-9.89-14.09-17.28-.52.52-.95-17.8.43-8.56,13.6-.64-.92-7.92,14.52,8.73,14.1-1.16.03,9.89,14.09,17.28.52-.52.95Z"/><ellipse class="c" cx="439.88" cy="257.45" rx="1.25" ry="1.34" transform="translate(98.12 635.57) rotate(-78.23)"/><ellipse class="c" cx="382.86" cy="316.75" rx="1.25" ry="1.34" transform="translate(-5.33 626.95) rotate(-78.23)"/><ellipse class="c" cx="376.61" cy="320.79" rx="1.25" ry="1.34" transform="translate(-14.26 624.04) rotate(-78.23)"/><ellipse class="c" cx="369.37" cy="325.4" rx="1.25" ry="1.34" transform="translate(-24.54 620.62) rotate(-78.23)"/><ellipse class="c" cx="359.77" cy="327.99" rx="1.25" ry="1.34" transform="translate(-34.7 613.29) rotate(-78.23)"/><ellipse class="c" cx="350.54" cy="330.79" rx="1.25" ry="1.34" transform="translate(-44.8 606.49) rotate(-78.23)"/></svg>