<?xml version="1.0" encoding="UTF-8"?><svg id="a" xmlns="http://www.w3.org/2000/svg" width="595.28" height="841.89" viewBox="0 0 595.28 841.89"><defs><style>.b{stroke:#447a54;}.b,.c,.d,.e{stroke-miterlimit:10;}.b,.f{opacity:.5;}.b,.d,.e{fill:none;}.c{fill:#e33651;}.c,.d{stroke:#231f20;}.f,.g{fill:#fff;}.f,.g,.h,.i{stroke-width:0px;}.e{stroke:#744c2c;}.g{opacity:.3;}.h{fill:#5f3817;}.i{fill:#046738;}</style></defs><path class="i" d="m304.36,422.3s-11.58-9.6-3-21.81l4.68-2.74-1.96-1.93,2.77-2.12-1.23-2.97,3.11-1.99-.81-3.07,2.36-3.2-1.21-3.23,2.9-3.26-1.11-2.92,2.21-3.38-3.31-2.44,1.31-3.46-2.4-3.15,2.58-4.43-3.56-3.46.83-4.57-3.3-3.49.92-4.13-4.45-2.47-2.59-4.67-4.09.3s-9.72-1.43-9.91-14.81l-3.9,4.2.09,2.8-4.19,1.58.3,3.94-3.03,1.23-.48,3.64-3.92,2.21.43,3.59-3.44,2.66.7,3.56-2.45,1.05.43,3.59-3.14,1.85,2.12,4.89-3.16,1.58,1.47,4.25-1.83,3.13,1.28,5.1-1.11,3.93,3.01,3.9-.39,3.41,4.22,4.1-.97,3.59,4.54,2.24-.48,4.3,3.96.71.75,4.11,4.89-.39,1.76,2.12,2.23-.48s12.73,3.98,16.61,12.7"/><path class="h" d="m304.12,422.59c-6.57-5.85-8.4-15.04-2.92-22.26,0,0,.04-.03.04-.03l4.68-2.74-.04.35s-1.96-1.93-1.96-1.93c0,0-.18-.18-.18-.18,0,0,.2-.16.2-.16,0,0,2.77-2.12,2.77-2.12,0,0-.07.26-.07.26,0,0-1.23-2.97-1.23-2.97l-.07-.17.16-.1s3.11-1.99,3.11-1.99c0,0-.09.24-.09.24l-.81-3.07-.03-.1s.06-.09.06-.09l2.36-3.2s-.03.21-.03.21c0,0-1.21-3.23-1.21-3.23l-.05-.13s.09-.1.09-.1l2.9-3.26s-.04.23-.04.23c0,0-1.11-2.92-1.11-2.92l-.04-.11.06-.09,2.21-3.38.05.3-3.31-2.44s-.14-.1-.14-.1l.06-.16s1.31-3.46,1.31-3.46l.03.21-2.4-3.15s-.09-.12-.09-.12c0,0,.07-.13.07-.13l2.58-4.43.04.27-3.56-3.45s-.09-.08-.09-.08l.02-.12s.83-4.56.83-4.56c0,0,.06.19.06.19,0,0-3.3-3.49-3.3-3.49l-.08-.09.03-.12.92-4.13.11.24-4.45-2.47s-.06-.03-.06-.03c0,0-.03-.06-.03-.06,0,0-2.59-4.67-2.59-4.67l.21.11-4.09.3c-1.66-.29-3.17-1.06-4.51-2.03-4.07-2.94-5.61-8.2-5.63-13.01,0,0,.38.15.38.15l-3.9,4.2s.06-.16.06-.16c0,0,.09,2.8.09,2.8,0,0,0,.16,0,.16l-.15.06s-4.19,1.58-4.19,1.58l.14-.22.3,3.94s.01.16.01.16c0,0-.15.06-.15.06,0,0-3.03,1.23-3.03,1.23l.14-.18s-.48,3.64-.48,3.64v.11s-.11.05-.11.05c0,0-3.92,2.21-3.92,2.21l.11-.22.43,3.59s.02.13.02.13l-.1.08s-3.44,2.66-3.44,2.66l.08-.22s.7,3.56.7,3.56l.03.18s-.16.07-.16.07l-2.45,1.05s.13-.23.13-.23c0,0,.43,3.59.43,3.59l.02.14s-.12.07-.12.07l-3.14,1.85s.09-.28.09-.28l2.12,4.89.08.19s-.19.09-.19.09l-3.16,1.58s.11-.27.11-.27c0,0,1.47,4.25,1.47,4.25l.03.1-.05.09-1.83,3.13.02-.17s1.28,5.1,1.28,5.1c0,0,.01.06.01.06,0,0-.02.06-.02.06l-1.11,3.93s-.04-.19-.04-.19l3.01,3.9s.05.07.05.07v.09s-.4,3.41-.4,3.41c0,0-.07-.18-.07-.18,0,0,4.22,4.1,4.22,4.1,0,0,.09.09.09.09l-.03.13-.97,3.59-.12-.26s4.54,2.24,4.54,2.24c0,0,.14.07.14.07,0,0-.02.15-.02.15l-.48,4.3s-.18-.24-.18-.24c0,0,3.96.71,3.96.71l.15.03s.03.15.03.15l.75,4.11s-.24-.18-.24-.18,4.89-.39,4.89-.39h.11s.07.08.07.08c0,0,1.76,2.12,1.76,2.12l-.22-.07,2.23-.48s.06-.01.06-.01l.05.02c6.64,2.4,13.59,6.2,16.74,12.82,0,0-.4.18-.4.18-2.94-6.45-10.42-10.37-16.36-12.57,0,0-2.23.48-2.23.48l-.13.03s-.09-.1-.09-.1l-1.76-2.12s.19.08.19.08c0,0-4.89.39-4.89.39,0,0-.2.02-.2.02,0,0-.04-.2-.04-.2l-.75-4.11s.18.18.18.18c0,0-3.96-.71-3.96-.71l-.2-.04.02-.21.48-4.3s.12.22.12.22c0,0-4.54-2.24-4.54-2.24,0,0-.16-.08-.16-.08l.05-.18.97-3.59.06.22s-4.22-4.1-4.22-4.1l-.08-.08s.01-.11.01-.11l.39-3.41.04.16s-3.01-3.9-3.01-3.9l-.07-.09s.03-.11.03-.11l1.11-3.93v.11s-1.28-5.1-1.28-5.1c0,0-.02-.09-.02-.09,0,0,.05-.08.05-.08l1.83-3.13s-.02.18-.02.18c0,0-1.47-4.25-1.47-4.25,0,0-.06-.18-.06-.18l.17-.09s3.16-1.58,3.16-1.58c0,0-.1.29-.1.29,0,0-2.12-4.89-2.12-4.89l-.08-.18.17-.1,3.14-1.85-.11.22s-.43-3.59-.43-3.59c0,0-.02-.16-.02-.16l.15-.07,2.45-1.05-.13.25-.7-3.56s-.03-.13-.03-.13l.11-.08s3.44-2.66,3.44-2.66l-.08.2s-.43-3.59-.43-3.59c0,0-.02-.15-.02-.15,0,0,.13-.07.13-.07,0,0,3.92-2.21,3.92-2.21,0,0-.11.16-.11.16l.48-3.64.02-.13.12-.05,3.03-1.23s-.14.22-.14.22c0,0-.3-3.94-.3-3.94,0,0-.01-.17-.01-.17l.16-.06s4.19-1.58,4.19-1.58c0,0-.14.21-.14.21,0,0-.09-2.8-.09-2.8v-.09s.06-.07.06-.07c0,0,3.9-4.2,3.9-4.2l.38-.4v.55c-.12,6.24,3.13,13.28,9.72,14.6-.22-.03,4.07-.28,4.04-.3,0,0,.14-.01.14-.01l.07.12,2.59,4.67s-.09-.09-.09-.09l4.45,2.47s.14.08.14.08c0,0-.04.16-.04.16l-.92,4.13-.06-.2s3.3,3.49,3.3,3.49c0,0,.08.08.08.08l-.02.11-.83,4.56-.06-.2s3.56,3.45,3.56,3.45l.12.12-.09.15s-2.58,4.43-2.58,4.43l-.02-.25,2.4,3.15s.07.1.07.1c0,0-.04.12-.04.12l-1.31,3.46-.08-.26,3.31,2.44.17.12-.11.18-2.21,3.38s.02-.2.02-.2l1.11,2.92s.05.13.05.13l-.09.1s-2.9,3.26-2.9,3.26c0,0,.04-.23.04-.23,0,0,1.21,3.23,1.21,3.23l.04.11-.07.1s-2.36,3.2-2.36,3.2l.04-.19.81,3.07.04.16-.14.09-3.11,1.99.09-.27s1.23,2.97,1.23,2.97c0,0,.07.16.07.16,0,0-.14.1-.14.1,0,0-2.77,2.12-2.77,2.12l.02-.33,1.96,1.93.21.2s-.25.15-.25.15l-4.68,2.74c-2.01,2.85-3.6,7.37-2.79,11.23.69,3.91,2.99,7.49,5.92,10.1,0,0-.48.58-.48.58h0Z"/><path class="b" d="m297.59,409.91s-29.67-41.59-15.44-79.17"/><path class="b" d="m303.01,357.99c.27,1.19.73,3.97-.39,7.18-.76,2.17-1.94,3.66-2.72,4.5-2.8,1.17-5.59,2.34-8.39,3.51-.89.43-3.56,1.85-5.28,5.08-1.81,3.38-1.42,6.55-1.26,7.51"/><path class="b" d="m288.33,392.58s13.22-8.19,14.06-18.71"/><path class="b" d="m300.05,345.33s-.57,12.06-5.96,13.85l-8.63,5.03s-6.61,6.45-3.43,12.73"/><path class="b" d="m286.3,389.13s-22.34-8.18-17.65-19.32"/><path class="i" d="m333.57,472.47s15.61-3.08,13.79-18.71l-2.98-4.89,2.8-.8-1.51-3.36,2.64-2.13-1.89-3.41,2.3-2.44-.59-4.15,2.76-2.38-1.06-4.48,2.5-2.15-.35-4.25,4.31-.6.53-3.87,3.82-1.71-.16-5.4,5.06-1.41,1.53-4.65,4.83-1.58,1.22-4.3,5.39-.06,4.77-3.03,3.65,2.33s9.76,3.56,16.69-8.76l1.51,5.85-1.5,2.55,3.1,3.57-2.27,3.5,2.2,2.66-1.39,3.62,2.53,4.02-2.22,3.11,1.86,4.19-2.45,2.95,1.75,2.21-2.22,3.11,1.99,3.29-4.44,3.47,2.15,3.05-3.51,3.2.12,3.82-3.76,4.08-.96,4.2-4.77,2.11-1.35,3.36-5.99,1.68-.9,3.82-5.35-.2-1.73,4.23-4.05-1.34-2.77,3.43-4.36-2.82-2.71,1.08-1.84-1.56s-13.85-2.7-21.86,3.43"/><path class="h" d="m333.5,472.1c9.01-2.07,14.79-9.21,13.67-18.23,0,0-2.98-4.89-2.98-4.89l-.15-.25.28-.08,2.8-.8s-.14.3-.14.3c0,0-1.51-3.36-1.51-3.36,0,0-.07-.16-.07-.16l.13-.11,2.64-2.13s-.05.28-.05.28l-1.89-3.41-.08-.14.11-.12,2.3-2.44-.06.18s-.59-4.15-.59-4.15c0,0-.02-.12-.02-.12l.09-.08,2.76-2.38s-.07.22-.07.22l-1.06-4.47-.03-.13.1-.09,2.5-2.15-.08.19-.35-4.25s-.02-.21-.02-.21l.21-.03,4.31-.6-.19.19.53-3.87s.02-.12.02-.12l.11-.05,3.82-1.71-.13.21s-.16-5.4-.16-5.4c0,0,0-.17,0-.17,0,0,.17-.05.17-.05,0,0,5.06-1.41,5.06-1.41l-.15.14s1.53-4.65,1.53-4.65l.04-.11.11-.03,4.83-1.58-.14.15,1.22-4.3.05-.16s.17,0,.17,0c0,0,5.39-.06,5.39-.06,0,0-.12.03-.12.03l4.77-3.03.12-.08.12.08,3.65,2.33c1.32.43,3.33.55,4.91.32,5.33-.7,9.32-4.92,11.74-9.48,0,0,.14.53.14.53,0,0,1.51,5.85,1.51,5.85,0,0,.02.09.02.09,0,0-.05.08-.05.08,0,0-1.5,2.55-1.5,2.55,0,0-.02-.26-.02-.26,0,0,3.1,3.57,3.1,3.57,0,0,.11.13.11.13l-.09.14s-2.27,3.5-2.27,3.5l-.02-.26s2.2,2.66,2.2,2.66c0,0,.08.1.08.1,0,0-.05.12-.05.12,0,0-1.39,3.62-1.39,3.62l-.02-.2,2.53,4.02s.08.13.08.13c0,0-.09.12-.09.12l-2.22,3.11s.02-.22.02-.22c0,0,1.86,4.19,1.86,4.19l.06.13-.09.11-2.45,2.95s0-.28,0-.28l1.75,2.21s.1.13.1.13c0,0-.1.14-.1.14l-2.22,3.11v-.24s2,3.29,2,3.29c0,0,.1.17.1.17,0,0-.16.12-.16.12,0,0-4.44,3.47-4.44,3.47l.04-.3,2.15,3.05s.11.16.11.16l-.14.13s-3.51,3.2-3.51,3.2c0,0,.07-.17.07-.17,0,0,.12,3.82.12,3.82,0,0,0,.09,0,.09,0,0-.06.07-.06.07,0,0-3.76,4.08-3.76,4.08l.05-.1s-.96,4.2-.96,4.2l-.02.11-.1.05-4.77,2.11s.12-.12.12-.12l-1.35,3.36-.04.1s-.11.03-.11.03c0,0-5.99,1.68-5.99,1.68,0,0,.16-.16.16-.16l-.9,3.81s-.04.18-.04.18h-.18s-5.35-.21-5.35-.21l.21-.14s-1.73,4.23-1.73,4.23c0,0-.08.19-.08.19l-.2-.06-4.05-1.34.24-.07-2.77,3.43s-.13.16-.13.16l-.17-.11s-4.36-2.82-4.36-2.82c0,0,.2.02.2.02,0,0-2.71,1.08-2.71,1.08,0,0-.12.05-.12.05,0,0-.1-.09-.1-.09,0,0-1.84-1.56-1.84-1.56-6.68-.96-15.57-1.07-21.58,3.44,0,0-.27-.35-.27-.35,6.28-4.55,14.66-4.58,22.03-3.47.05,0,.07.02.1.05,0,0,1.84,1.56,1.84,1.56s-.23-.04-.23-.04l2.71-1.08.11-.04.1.06s4.36,2.82,4.36,2.82c0,0-.29.05-.29.05l2.77-3.43s.1-.12.1-.12l.15.05,4.05,1.34-.27.13s1.73-4.23,1.73-4.23c0,0,.06-.14.06-.14,0,0,.15,0,.15,0l5.35.2-.22.17.9-3.81.03-.13.13-.04s5.99-1.68,5.99-1.68l-.15.13,1.35-3.36c.03-.1.04-.08.12-.12,0,0,4.77-2.11,4.77-2.11,0,0-.13.15-.13.15l.96-4.2v-.06s.05-.04.05-.04c0,0,3.76-4.08,3.76-4.08l-.06.16-.12-3.82v-.1s.07-.07.07-.07c0,0,3.51-3.2,3.51-3.2,0,0-.03.29-.03.29l-2.15-3.05s-.12-.17-.12-.17l.17-.13,4.44-3.47s-.05.29-.05.29c0,0-1.99-3.29-1.99-3.29,0,0-.08-.12-.08-.12l.08-.12,2.22-3.11s0,.27,0,.27c0,0-1.75-2.21-1.75-2.21l-.11-.14s.11-.14.11-.14c0,0,2.45-2.95,2.45-2.95,0,0-.03.23-.03.23,0,0-1.86-4.19-1.86-4.19,0,0-.05-.12-.05-.12,0,0,.07-.1.07-.1l2.22-3.11s0,.25,0,.25c0,0-2.53-4.02-2.53-4.02l-.06-.09.04-.1,1.39-3.62s.04.22.04.22c0,0-2.2-2.66-2.2-2.66,0,0-.1-.13-.1-.13,0,0,.09-.14.09-.14l2.27-3.5.02.27s-3.1-3.57-3.1-3.57c0,0-.1-.12-.1-.12l.08-.14,1.5-2.55s-.02.17-.02.17-1.51-5.85-1.51-5.85l.41.05c-2.45,4.45-6.53,8.54-11.79,9.22-1.73.22-3.52.17-5.21-.39,0,0-3.65-2.33-3.65-2.33,0,0,.24,0,.24,0,0,0-4.77,3.03-4.77,3.03,0,0-.05.03-.05.03,0,0-.06,0-.06,0,0,0-5.39.06-5.39.06l.21-.16-1.22,4.3-.03.11s-.11.04-.11.04c0,0-4.83,1.58-4.83,1.58l.14-.14-1.53,4.65s-.04.11-.04.11l-.11.03-5.06,1.41.16-.22s.16,5.4.16,5.4c0,0,0,.15,0,.15,0,0-.14.06-.14.06l-3.82,1.71s.13-.17.13-.17c0,0-.53,3.87-.53,3.87l-.02.17s-.17.02-.17.02l-4.31.6s.19-.24.19-.24c0,0,.35,4.25.35,4.25,0,0,0,.11,0,.11l-.09.07-2.5,2.15s.07-.22.07-.22c0,0,1.06,4.47,1.06,4.47,0,0,.03.13.03.13l-.1.09-2.76,2.38s.07-.2.07-.2l.59,4.15v.11s-.06.08-.06.08l-2.3,2.44.03-.26,1.89,3.41s.09.16.09.16c0,0-.14.12-.14.12l-2.64,2.13s.06-.26.06-.26c0,0,1.51,3.36,1.51,3.36l.11.23s-.25.07-.25.07l-2.8.8s.13-.33.13-.33c0,0,2.98,4.89,2.98,4.89.64,4.29-.25,8.97-2.98,12.44-2.71,3.45-6.69,5.7-10.93,6.76,0,0-.15-.74-.15-.74h0Z"/><path class="b" d="m346.12,464.38s48.59-23.65,54.29-65.63"/><path class="b" d="m387.22,438.71s.72-18.65-6.12-21.69"/><path class="b" d="m367.26,413.53c-.85.96-2.69,3.31-3.26,6.86-.39,2.39-.04,4.37.26,5.54,2.01,2.49,4.02,4.98,6.04,7.46.61.84,2.38,3.5,2.36,7.36-.02,4.04-1.98,6.79-2.61,7.59"/><path class="b" d="m363.47,452.97s-8.17-14.23-3.64-24.41"/><path class="b" d="m376.4,403.28s-5.55,11.46-1.44,15.83l5.49,9s2.9,9.3-3.23,13.52"/><path class="b" d="m387.72,427.86s-5.28-15-2.27-23.24"/><path class="b" d="m393.28,419.53s-3.15-9.78-1.26-15.18"/><path class="b" d="m355.9,458.92s13.3-9.27,24.07-1.18"/><path class="b" d="m367.11,450.79s24.91,3.64,26.16-9.04"/><path class="b" d="m400.84,431.01c0,1.14-.15,3.73-1.91,6.02-1.19,1.54-3.78,2.26-4.7,2.66-2.92-.18-4.69-.29-7.61-.47-.94,0-3.79.08-6.13,2.13-2.45,2.14-3.25.1-3.31.99"/><path class="b" d="m383.9,434.88s21.93-11.31,17.91-20.49"/><path class="i" d="m367.23,503.1s9.68,12.63,22.88,4.07l3.07-4.83,1.96,2.15,2.34-2.84,3.08,1.42,2.22-3.2,3.21.98,3.46-2.37,3.36,1.42,3.54-2.93,3.04,1.29,3.65-2.2,2.44,3.6,3.7-1.24,3.23,2.67,4.77-2.54,3.51,3.91,4.84-.69,3.55,3.63,4.39-.81,2.44,4.81,4.83,2.93-.47,4.31s1.13,10.33,15.24,11.08l-4.58,3.95-2.95-.21-1.83,4.36-4.14-.48-1.41,3.15-3.86.36-2.48,4.05-3.77-.61-2.93,3.53-3.73-.89-1.2,2.55-3.77-.61-2.07,3.24-5.07-2.45-1.78,3.28-4.42-1.73-3.37,1.8-5.33-1.56-4.19,1-4-3.34-3.61.27-4.16-4.63-3.82.88-2.19-4.89-4.56.32-.59-4.22-4.3-.97.6-5.16-2.16-1.95.59-2.34s-3.71-13.62-12.76-18.08"/><path class="h" d="m367.52,502.88c5.85,7.16,14.81,9.18,22.4,4.18,0,0,3.07-4.83,3.07-4.83,0,0,.16-.25.16-.25,0,0,.2.22.2.22l1.96,2.15s-.33,0-.33,0c0,0,2.34-2.84,2.34-2.84,0,0,.11-.13.11-.13,0,0,.16.07.16.07l3.08,1.42-.27.08,2.22-3.2.09-.13.15.05,3.21.98s-.19.03-.19.03l3.46-2.37.1-.07.11.05,3.36,1.42s-.23.03-.23.03l3.54-2.93s.1-.09.1-.09c0,0,.12.05.12.05,0,0,3.04,1.29,3.04,1.29h-.2s3.65-2.18,3.65-2.18c0,0,.18-.11.18-.11,0,0,.12.17.12.17,0,0,2.44,3.6,2.44,3.6l-.25-.09s3.7-1.24,3.7-1.24l.12-.04s.09.08.09.08l3.23,2.67-.24-.02,4.77-2.54.15-.08s.12.13.12.13l3.51,3.91s-.2-.07-.2-.07l4.84-.69.11-.02s.08.08.08.08c0,0,3.55,3.63,3.55,3.63l-.2-.06,4.39-.81s.16-.03.16-.03c0,0,.07.15.07.15l2.44,4.81s-.08-.09-.08-.09c0,0,4.83,2.93,4.83,2.93,0,0,.12.07.12.07,0,0-.02.14-.02.14,0,0-.47,4.31-.47,4.31.2,1.38.98,3.23,1.89,4.54,2.99,4.46,8.54,6.17,13.7,6.33,0,0-.42.36-.42.36,0,0-4.58,3.95-4.58,3.95l-.07.06h-.09s-2.95-.22-2.95-.22l.22-.14s-1.83,4.36-1.83,4.36l-.06.15-.17-.02-4.14-.48s.23-.13.23-.13l-1.41,3.15s-.05.12-.05.12h-.13s-3.86.37-3.86.37l.17-.1-2.48,4.05-.08.13s-.15-.02-.15-.02c0,0-3.77-.61-3.77-.61l.21-.08s-2.93,3.53-2.93,3.53c0,0-.09.11-.09.11,0,0-.13-.03-.13-.03l-3.73-.89.25-.12-1.2,2.55-.07.15s-.16-.03-.16-.03l-3.77-.61.22-.1s-2.07,3.24-2.07,3.24c0,0-.11.17-.11.17,0,0-.18-.09-.18-.09l-5.07-2.45s.29-.09.29-.09l-1.78,3.28s-.09.17-.09.17l-.18-.07-4.42-1.73s.18-.01.18-.01l-3.37,1.8s-.08.04-.08.04c0,0-.09-.03-.09-.03,0,0-5.32-1.56-5.32-1.56h.11s-4.19,1.01-4.19,1.01c0,0-.11.03-.11.03,0,0-.09-.07-.09-.07,0,0-4-3.34-4-3.34,0,0,.16.05.16.05l-3.61.27s-.11,0-.11,0c0,0-.07-.08-.07-.08l-4.16-4.63s.21.07.21.07c0,0-3.82.88-3.82.88l-.18.04-.07-.17s-2.19-4.89-2.19-4.89c0,0,.22.13.22.13,0,0-4.56.32-4.56.32,0,0-.21.01-.21.01l-.03-.2-.59-4.22.17.19-4.3-.97-.19-.04.02-.2.6-5.16.07.19-2.16-1.95-.1-.09s.03-.13.03-.13c0,0,.59-2.34.59-2.34-2.1-6.41-5.94-14.43-12.64-17.83,0,0,.2-.4.2-.4,5.18,2.63,8.51,7.75,10.87,12.88.76,1.77,1.55,3.58,2,5.45,0,0-.59,2.34-.59,2.34,0,0-.07-.22-.07-.22l2.16,1.95s.09.08.09.08c0,0-.01.11-.01.11l-.6,5.16-.17-.24s4.3.97,4.3.97l.15.03.02.15s.59,4.22.59,4.22l-.23-.19,4.56-.32h.15s.06.13.06.13c0,0,2.19,4.89,2.19,4.89,0,0-.25-.13-.25-.13l3.82-.88s.13-.03.13-.03l.09.1s4.16,4.63,4.16,4.63c0,0-.18-.07-.18-.07l3.61-.27c.1-.02.09,0,.16.05,0,0,4,3.34,4,3.34,0,0-.19-.05-.19-.05l4.19-1h.06s.06,0,.06,0c0,0,5.32,1.56,5.32,1.56l-.17.02,3.37-1.8s.09-.05.09-.05c0,0,.1.04.1.04l4.42,1.73-.28.1,1.78-3.28.1-.19.19.09,5.07,2.45s-.28.08-.28.08l2.07-3.24.08-.12s.14.02.14.02l3.77.61s-.24.12-.24.12l1.2-2.55.08-.16s.17.04.17.04,3.73.89,3.73.89l-.22.07s2.93-3.53,2.93-3.53c0,0,.08-.1.08-.1,0,0,.12.02.12.02l3.77.61s-.22.1-.22.1l2.48-4.05s.06-.09.06-.09c0,0,.11-.01.11-.01l3.86-.36-.18.13s1.41-3.15,1.41-3.15c0,0,.07-.15.07-.15l.16.02,4.14.48-.23.13,1.83-4.36s.06-.15.06-.15c0,0,.16.01.16.01l2.95.21s-.16.05-.16.05c0,0,4.58-3.95,4.58-3.95l.13.39c-5.08-.22-10.55-2.08-13.49-6.49-.96-1.45-1.71-3.08-1.96-4.84,0,0,.47-4.31.47-4.31l.11.21-4.83-2.93-.05-.03s-.03-.06-.03-.06c0,0-2.44-4.81-2.44-4.81l.24.12-4.39.81-.12.02s-.08-.08-.08-.08c0,0-3.55-3.63-3.55-3.63l.19.06s-4.84.69-4.84.69l-.12.02-.08-.09-3.51-3.91s.27.05.27.05c0,0-4.77,2.54-4.77,2.54,0,0-.13.07-.13.07,0,0-.11-.09-.11-.09l-3.23-2.67.21.04-3.7,1.24-.16.05-.09-.14s-2.44-3.6-2.44-3.6l.3.07s-3.65,2.2-3.65,2.2c0,0-.1.06-.1.06l-.1-.04-3.04-1.29.23-.03s-3.54,2.93-3.54,2.93c0,0-.1.09-.1.09l-.12-.05s-3.36-1.42-3.36-1.42c0,0,.21-.02.21-.02,0,0-3.46,2.37-3.46,2.37,0,0-.09.06-.09.06l-.1-.03-3.21-.98.25-.09-2.22,3.2s-.11.15-.11.15c0,0-.17-.08-.17-.08l-3.08-1.42.26-.06-2.34,2.84s-.16.2-.16.2c0,0-.17-.19-.17-.19l-1.96-2.15s.35-.03.35-.03l-3.07,4.83c-3.57,2.48-8.15,3.75-12.47,2.84-4.3-.9-8.08-3.47-10.9-6.8,0,0,.6-.46.6-.46h0Z"/><path class="b" d="m380.03,510.78s42.73,33.08,82.89,19.61"/><path class="b" d="m421.25,536.26s17.04-7.61,16.73-15.09"/><path class="b" d="m434.98,507.2c-1.24-.33-4.16-.94-7.59.12-2.31.71-3.93,1.89-4.85,2.68-1.34,2.91-2.68,5.81-4.02,8.72-.48.92-2.09,3.68-5.56,5.37-3.63,1.77-6.96,1.23-7.96,1.02"/><path class="b" d="m397.95,521.28s9.14-13.63,20.27-14.08"/><path class="b" d="m448.22,510.86s-12.73.1-14.83,5.72l-5.63,8.91s-7.05,6.71-13.55,3.09"/><path class="b" d="m431.2,531.9s11.11-11.38,19.83-12.33"/><path class="b" d="m441.14,533.18s7.37-7.15,13.05-7.85"/><path class="b" d="m389.27,517.12s14.2,7.81,11.72,21.06"/><path class="b" d="m401.52,523.57s7.77,23.95,19.69,19.45"/><path class="b" d="m434.19,545.05c-1.02.51-3.41,1.52-6.25.95-1.91-.38-3.7-2.39-4.47-3.04-1.13-2.7-1.82-4.33-2.95-7.03-.41-.85-1.75-3.36-4.63-4.55-3-1.24-1.53-2.87-2.35-2.53"/><path class="b" d="m423.22,531.58s19.85,14.66,26.31,6.98"/><path class="i" d="m256.57,519.26s-14.92-10.75-27.12-.82l-2.53,5.14-2.18-1.93-2.02,3.08-3.22-1.08-1.86,3.42-3.3-.63-3.18,2.73-3.49-1.05-3.21,3.3-3.16-.96-3.39,2.58-2.82-3.31-3.54,1.63-3.5-2.3-4.47,3.04-3.91-3.51-4.74,1.21-3.92-3.22-4.28,1.27-2.94-4.51-5.11-2.39v-4.34s-2.24-10.15-16.34-9.37l4.12-4.42,2.96-.11,1.35-4.53,4.17.03,1.06-3.29,3.8-.77,2.03-4.29,3.81.2,2.53-3.82,3.8.48.92-2.66,3.81.2,1.71-3.44,5.31,1.89,1.42-3.45,4.58,1.24,3.16-2.16,5.46.98,4.06-1.45,4.34,2.89,3.56-.66,4.64,4.15,3.7-1.29,2.7,4.62,4.49-.81,1.04,4.13,4.38.5-.04,5.19,2.36,1.71-.33,2.39s8.58,12.3,18.05,15.76"/><path class="h" d="m256.35,519.56c-7.9-5.48-19.12-7.32-26.7-1.02,0,0-2.53,5.14-2.53,5.14-.18.3-.03.34-.35.07,0,0-2.18-1.93-2.18-1.93,0,0,.33-.04.33-.04,0,0-2.02,3.08-2.02,3.08l-.09.14-.16-.05-3.22-1.08s.27-.1.27-.1l-1.86,3.42s-.08.14-.08.14c0,0-.16-.03-.16-.03l-3.3-.63.19-.05s-3.18,2.72-3.18,2.72c0,0-.09.08-.09.08l-.12-.03s-3.49-1.05-3.49-1.05l.22-.06-3.21,3.29s-.09.1-.09.1l-.13-.04-3.16-.96.2-.04-3.39,2.58-.17.13s-.14-.16-.14-.16l-2.82-3.31.26.06-3.54,1.63-.11.05s-.1-.07-.1-.07c0,0-3.5-2.3-3.5-2.3h.25s-4.47,3.04-4.47,3.04l-.14.1s-.13-.12-.13-.12l-3.91-3.51.2.05s-4.74,1.21-4.74,1.21l-.11.03s-.09-.07-.09-.07c0,0-3.92-3.22-3.92-3.22,0,0,.2.04.2.04,0,0-4.28,1.27-4.28,1.27l-.16.05s-.09-.14-.09-.14l-2.94-4.51s.09.08.09.08c0,0-5.11-2.39-5.11-2.39,0,0-.13-.06-.13-.06,0,0,0-.14,0-.14v-4.34c-1.86-6.72-9.45-9.76-16.11-9.15,0,0-.55.03-.55.03l.38-.4s4.12-4.42,4.12-4.42c0,0,.06-.07.06-.07h.09s2.96-.11,2.96-.11c0,0-.2.16-.2.16l1.35-4.53.05-.16h.17s4.17.04,4.17.04c0,0-.21.15-.21.15,0,0,1.06-3.29,1.06-3.29l.04-.12.13-.03,3.8-.77-.16.12s2.03-4.29,2.03-4.29l.06-.13s.15,0,.15,0,3.81.2,3.81.2l-.2.1,2.53-3.82.08-.11.14.02,3.8.48-.24.15s.92-2.66.92-2.66c0,0,.05-.16.05-.16,0,0,.17,0,.17,0,0,0,3.81.2,3.81.2,0,0-.21.12-.21.12l1.71-3.44s.09-.18.09-.18c0,0,.19.07.19.07,0,0,5.31,1.89,5.31,1.89l-.28.12,1.42-3.45.07-.18.19.05s4.58,1.24,4.58,1.24c0,0-.18.03-.18.03l3.16-2.16.07-.05.09.02s5.46.98,5.46.98h-.11s4.06-1.44,4.06-1.44c0,0,.1-.04.1-.04l.09.06,4.34,2.89s-.16-.03-.16-.03c0,0,3.56-.66,3.56-.66,0,0,.11-.02.11-.02l.08.07,4.63,4.15s-.22-.04-.22-.04l3.7-1.29.17-.06.09.16,2.7,4.62-.23-.11,4.49-.81s.2-.04.2-.04c0,0,.05.2.05.2l1.04,4.13s-.19-.17-.19-.17l4.38.5s.2.02.2.02c0,0,0,.2,0,.2,0,0-.04,5.19-.04,5.19l-.09-.18,2.36,1.71s.11.08.11.08l-.02.13s-.33,2.39-.33,2.39c4.38,5.58,10.53,12.72,17.91,15.52,0,0-.15.42-.15.42-7.65-3.09-13.35-9.47-18.21-15.91,0,0,.01-.09.01-.09,0,0,.33-2.39.33-2.39l.09.21s-2.36-1.71-2.36-1.71c0,0-.09-.07-.09-.07,0,0,0-.11,0-.11l.04-5.19.2.22s-4.38-.5-4.38-.5-.15-.02-.15-.02l-.04-.15-1.04-4.13.25.16-4.49.81s-.15.03-.15.03c0,0-.08-.13-.08-.13l-2.7-4.62s.26.1.26.1l-3.7,1.29-.12.04s-.1-.09-.1-.09l-4.63-4.15s.19.05.19.05l-3.56.66-.09.02s-.07-.05-.07-.05l-4.34-2.89.2.02s-4.06,1.45-4.06,1.45c0,0-.06.02-.06.02,0,0-.06-.01-.06-.01,0,0-5.46-.98-5.46-.98l.16-.04-3.16,2.16s-.08.06-.08.06l-.1-.03s-4.58-1.24-4.58-1.24l.26-.13-1.42,3.45s-.08.2-.08.2c0,0-.2-.07-.2-.07l-5.31-1.89s.27-.11.27-.11c0,0-1.71,3.44-1.71,3.44l-.06.13s-.15,0-.15,0l-3.81-.2.22-.15-.92,2.66s-.06.17-.06.17l-.18-.02-3.8-.48.21-.1s-2.53,3.82-2.53,3.82l-.07.11s-.13,0-.13,0c0,0-3.81-.2-3.81-.2,0,0,.21-.13.21-.13l-2.03,4.29s-.05.1-.05.1c0,0-.11.02-.11.02,0,0-3.8.77-3.8.77l.17-.15-1.06,3.29-.05.15s-.16,0-.16,0l-4.17-.03.21-.16s-1.35,4.53-1.35,4.53c0,0-.05.15-.05.15h-.16s-2.96.11-2.96.11c0,0,.15-.07.15-.07l-4.12,4.42-.17-.37c6.76-.62,14.71,2.47,16.58,9.6,0,0,0,4.34,0,4.34,0,0-.13-.2-.13-.2,0,0,5.11,2.39,5.11,2.39,0,0,.06.03.06.03,0,0,.03.05.03.05,0,0,2.94,4.51,2.94,4.51l-.25-.09s4.28-1.27,4.28-1.27l.11-.03s.09.07.09.07c0,0,3.92,3.22,3.92,3.22l-.2-.04,4.74-1.21.11-.03s.09.08.09.08,3.91,3.51,3.91,3.51c0,0-.27-.02-.27-.02,0,0,4.47-3.04,4.47-3.04l.12-.08s.12.08.12.08l3.5,2.3s-.21-.02-.21-.02l3.54-1.63s.15-.07.15-.07l.11.13,2.82,3.31-.3-.03s3.39-2.58,3.39-2.58l.09-.07s.11.03.11.03l3.16.96s-.22.06-.22.06,3.21-3.29,3.21-3.29l.09-.1.13.04s3.49,1.05,3.49,1.05c0,0-.21.04-.21.04l3.18-2.73s.08-.07.08-.07l.1.02s3.3.63,3.3.63l-.24.11s1.86-3.42,1.86-3.42c0,0,.09-.16.09-.16,0,0,.18.06.18.06l3.22,1.08-.26.09s2.02-3.08,2.02-3.08l.14-.21s.19.17.19.17l2.18,1.93-.35.07,2.53-5.14c3.74-3.24,8.88-4.78,13.8-4.33,4.92.41,9.62,2.24,13.73,4.94,0,0-.44.61-.44.61h0Z"/><path class="b" d="m239.07,513.77s-46.05-28.28-84.52-10.55"/><path class="b" d="m195.35,492.89s-16.12,9.41-15,16.81"/><path class="b" d="m184.83,523.26c1.27.2,4.24.49,7.53-.93,2.22-.96,3.71-2.31,4.53-3.19,1.02-3.03,2.04-6.07,3.05-9.1.38-.97,1.68-3.89,4.94-5.94,3.42-2.15,6.79-1.97,7.81-1.88"/><path class="b" d="m220.12,505.27s-7.62,14.54-18.63,16.18"/><path class="b" d="m171.27,521.05s12.65-1.48,14.12-7.29l4.64-9.47s6.29-7.44,13.14-4.54"/><path class="b" d="m185.93,498.3s-9.82,12.51-18.38,14.39"/><path class="b" d="m229.21,508.46s-14.96-6.24-13.93-19.67"/><path class="b" d="m216.33,503.37s-10.31-22.97-21.68-17.22"/><path class="b" d="m181.53,485.54c.96-.61,3.23-1.88,6.11-1.62,1.94.17,3.94,1.97,4.77,2.54,1.41,2.56,2.27,4.11,3.69,6.67.5.8,2.11,3.15,5.09,4.02,3.12.91,1.83,2.69,2.61,2.26"/><path class="b" d="m193.9,497.75s-21.32-12.43-26.91-4.1"/><path class="e" d="m310.72,445.27s-7.81,73.4-79.04,110.88"/><path class="c" d="m260.36,538.27c13.27,2,23.85,12.25,26.25,25.38,2.36,12.91-3.67,26.04-15.05,32.71-20.3,16.98-48.51,15.01-62.89-.87-10.52-11.62-12.82-29.78-6.15-46.1,1.51-14.32,12.51-25.75,26.31-27.66,12.7-1.77,25.41,4.85,31.53,16.54Z"/><path class="f" d="m213.63,539.21c-1.65-1.19,2.51-14.27,14.38-15.3,4.76-.41,11.18,1.08,11.75,2.43.37.89-1.78,1.72-3.82,2.31-5.3,2.29-10.6,4.58-15.9,6.87-4.44,3.65-5.9,4.05-6.4,3.69Z"/><path class="d" d="m246.77,535.35s4.9,8.99,18.61,10.87"/><path class="g" d="m204.21,558.85c-2.48,13.68-4.17,47.32,40.1,44.32,5.2-.35,7.52-6.71,3.71-10.27l-38.38-35.83c-1.88-1.76-4.97-.75-5.43,1.78Z"/><path class="e" d="m302.62,419.6c5.24,5.73,7.93,72.82,82.33,109.64"/><path class="c" d="m374.74,520.54c8.99-9.97,23.37-13.14,35.65-7.9,12.07,5.15,19.7,17.42,18.99,30.59,2.97,26.29-14.23,48.74-35.41,51.98-15.49,2.37-31.91-5.73-41.85-20.29-11.11-9.16-14.58-24.63-8.57-37.2,5.53-11.57,18.06-18.52,31.18-17.18Z"/><path class="f" d="m414.06,521.15c.42-1.16-10.59-8.92-19.53-6.94-3.58.8-7.14,3.23-6.7,4.26.29.67,2.3.74,4.1.67,5.12.33,10.25.66,15.37.99,5.36,1.43,6.63,1.36,6.76,1.01Z"/><path class="d" d="m365.99,529.84s10.2.87,19.33-9.54"/><path class="g" d="m360.24,578.39c10.05,9.61,37.17,29.57,59.08-9.01,2.57-4.53-1.45-9.97-6.52-8.75l-51.05,12.26c-2.51.6-3.37,3.73-1.51,5.51Z"/><path class="e" d="m333.09,488.03s-3.78-11.32,1.23-15.75"/><path class="e" d="m346.14,501.51s16.17-5.74,21.03,1.65"/><path class="e" d="m256.57,519.26c-3.42-.16,12.25.13,16.6,5.87"/><path class="i" d="m292.13,481.81s-15.55-3.08-13.73-18.71l2.96-4.89-2.79-.8,1.51-3.36-2.63-2.13,1.88-3.41-2.29-2.44.59-4.15-2.75-2.38,1.05-4.48-2.49-2.15.35-4.25-4.29-.6-.52-3.87-3.8-1.71.16-5.4-5.04-1.41-1.52-4.65-4.81-1.58-1.22-4.3-5.37-.06-4.75-3.03-3.64,2.33s-9.72,3.56-16.62-8.76l-1.5,5.85,1.49,2.55-3.09,3.57,2.26,3.5-2.19,2.66,1.38,3.62-2.52,4.02,2.21,3.11-1.86,4.19,2.44,2.95-1.74,2.21,2.21,3.11-1.98,3.29,4.42,3.47-2.14,3.05,3.49,3.2-.12,3.82,3.74,4.08.95,4.2,4.75,2.11,1.35,3.36,5.97,1.68.9,3.82,5.33-.2,1.72,4.23,4.03-1.34,2.76,3.43,4.34-2.82,2.7,1.08,1.83-1.56s13.8-2.7,21.77,3.43"/><path class="h" d="m292.05,482.18c-9.03-2.14-15.39-9.73-13.85-19.19,0,0,2.96-4.89,2.96-4.89l.13.33-2.79-.8-.25-.07.1-.23,1.51-3.36s.06.26.06.26c0,0-2.63-2.13-2.63-2.13,0,0-.14-.12-.14-.12l.09-.16s1.88-3.41,1.88-3.41l.03.26s-2.29-2.44-2.29-2.44l-.07-.08v-.11s.6-4.15.6-4.15l.07.2-2.75-2.38s-.1-.09-.1-.09l.03-.13,1.05-4.47.07.22-2.49-2.15-.09-.07s0-.11,0-.11c0,0,.35-4.25.35-4.25,0,0,.19.24.19.24,0,0-4.29-.6-4.29-.6,0,0-.17-.02-.17-.02l-.02-.17s-.52-3.87-.52-3.87c0,0,.13.17.13.17l-3.8-1.71s-.14-.06-.14-.06v-.15s.17-5.4.17-5.4l.16.22-5.04-1.41-.11-.03-.04-.11s-1.52-4.65-1.52-4.65l.14.14-4.81-1.58-.11-.04-.03-.11s-1.22-4.3-1.22-4.3c0,0,.21.16.21.16l-5.37-.06s-.06,0-.06,0l-.05-.03s-4.75-3.03-4.75-3.03c0,0,.24,0,.24,0l-3.64,2.33c-1.69.56-3.47.61-5.19.39-5.25-.69-9.31-4.78-11.74-9.22,0,0,.41-.05.41-.05,0,0-1.5,5.85-1.5,5.85l-.02-.17,1.49,2.55.08.14s-.1.12-.1.12l-3.09,3.57.02-.26,2.26,3.5.09.14-.1.13-2.19,2.66s.04-.22.04-.22l1.38,3.62s.04.1.04.1c0,0-.06.09-.06.09,0,0-2.52,4.02-2.52,4.02v-.25s2.2,3.11,2.2,3.11l.07.1-.05.12s-1.86,4.19-1.86,4.19c0,0-.03-.23-.03-.23,0,0,2.44,2.95,2.44,2.95l.11.14-.11.14s-1.74,2.21-1.74,2.21v-.27s2.21,3.11,2.21,3.11l.08.12-.07.12s-1.98,3.29-1.98,3.29c0,0-.05-.29-.05-.29l4.42,3.47.17.13-.12.17-2.14,3.05-.03-.29s3.49,3.2,3.49,3.2c0,0,.08.07.08.07v.1s-.12,3.82-.12,3.82c0,0-.06-.16-.06-.16,0,0,3.74,4.08,3.74,4.08,0,0,.04.04.04.04,0,0,.01.06.01.06l.95,4.2s-.13-.15-.13-.15c0,0,4.75,2.11,4.75,2.11l.08.04s.03.08.03.08c0,0,1.35,3.36,1.35,3.36,0,0-.15-.13-.15-.13,0,0,5.97,1.68,5.97,1.68,0,0,.13.04.13.04l.03.13s.9,3.81.9,3.81l-.22-.17,5.33-.2h.16s.06.14.06.14l1.72,4.23-.27-.13,4.03-1.34s.15-.05.15-.05l.1.12,2.76,3.43-.29-.05s4.34-2.82,4.34-2.82l.1-.06s.11.04.11.04c0,0,2.7,1.08,2.7,1.08l-.23.04,1.83-1.56.05-.04h.06c7.35-1.12,15.7-1.09,21.95,3.46,0,0-.27.35-.27.35-5.98-4.5-14.84-4.39-21.49-3.44,0,0-1.83,1.56-1.83,1.56,0,0-.1.09-.1.09l-.12-.05-2.7-1.08s.2-.02.2-.02l-4.34,2.82-.17.11-.13-.16s-2.76-3.43-2.76-3.43l.24.07s-4.03,1.34-4.03,1.34l-.2.07-.08-.19-1.72-4.23.21.14-5.33.2h-.18s-.04-.17-.04-.17l-.9-3.81.16.16s-5.97-1.68-5.97-1.68l-.11-.03-.04-.1-1.35-3.36s.12.12.12.12c0,0-4.75-2.11-4.75-2.11l-.1-.05-.02-.11-.95-4.2s.05.1.05.1c0,0-3.74-4.08-3.74-4.08,0,0-.06-.07-.06-.07v-.09s.12-3.82.12-3.82c0,0,.07.17.07.17l-3.49-3.2s-.14-.13-.14-.13l.11-.16,2.14-3.05s.04.3.04.3c0,0-4.42-3.47-4.42-3.47l-.15-.12.1-.17,1.98-3.29v.24s-2.2-3.11-2.2-3.11l-.1-.14.1-.13s1.74-2.21,1.74-2.21c0,0,0,.28,0,.28,0,0-2.44-2.95-2.44-2.95l-.09-.11.06-.13,1.86-4.19s.02.22.02.22l-2.21-3.11s-.09-.12-.09-.12l.08-.13s2.52-4.02,2.52-4.02c0,0-.02.2-.02.2,0,0-1.38-3.62-1.38-3.62,0,0-.05-.12-.05-.12,0,0,.08-.1.08-.1,0,0,2.19-2.66,2.19-2.66,0,0-.02.26-.02.26,0,0-2.26-3.5-2.26-3.5l-.09-.14.11-.13s3.09-3.57,3.09-3.57l-.02.26s-1.49-2.55-1.49-2.55c0,0-.05-.08-.05-.08l.02-.09,1.5-5.85.14-.53s.27.48.27.48c3.01,5.85,9.57,10.75,16.35,8.66-.21.09,3.64-2.32,3.6-2.31,0,0,.12-.08.12-.08,0,0,.12.08.12.08l4.75,3.03-.12-.03s5.37.06,5.37.06c0,0,.17,0,.17,0l.05.16s1.22,4.3,1.22,4.3-.14-.15-.14-.15c0,0,4.81,1.58,4.81,1.58,0,0,.11.04.11.04,0,0,.03.11.03.11,0,0,1.52,4.65,1.52,4.65l-.15-.14,5.04,1.41.17.05v.17s-.17,5.4-.17,5.4l-.13-.21,3.8,1.71.11.05.02.12.52,3.87-.19-.19s4.29.6,4.29.6c0,0,.21.03.21.03l-.02.21-.35,4.25s-.08-.19-.08-.19l2.49,2.15.1.09-.03.13s-1.05,4.47-1.05,4.47l-.07-.22,2.75,2.38s.09.08.09.08c0,0-.02.12-.02.12,0,0-.59,4.15-.59,4.15l-.06-.18s2.29,2.44,2.29,2.44c0,0,.11.12.11.12,0,0-.08.14-.08.14l-1.88,3.41s-.05-.28-.05-.28c0,0,2.63,2.13,2.63,2.13l.13.11s-.07.16-.07.16l-1.51,3.36s-.14-.3-.14-.3l2.79.8.28.08s-.15.25-.15.25l-2.96,4.89c-.44,3.68.36,8.64,3.05,11.83,2.61,3.28,6.54,5.45,10.57,6.4,0,0-.15.74-.15.74h0Z"/><path class="b" d="m279.62,473.73s-48.39-23.65-54.07-65.63"/><path class="b" d="m258.58,422.88c.85.96,2.67,3.31,3.25,6.86.38,2.39.04,4.37-.25,5.54-2,2.49-4.01,4.98-6.01,7.46-.61.84-2.37,3.5-2.35,7.36.02,4.04,1.98,6.79,2.6,7.59"/><path class="b" d="m262.34,462.31s8.14-14.23,3.63-24.41"/><path class="b" d="m249.47,412.63s5.53,11.46,1.43,15.83l-5.47,9s-2.88,9.3,3.22,13.52"/><path class="b" d="m269.89,468.26s-13.24-9.27-23.98-1.18"/><path class="b" d="m258.72,460.13s-24.81,3.64-26.06-9.04"/><path class="e" d="m292.6,497.38s3.76-11.32-1.23-15.75"/><path class="b" d="m292.89,390.86s-8.52-13.74-21.57-10.54"/></svg>