<?xml version="1.0" encoding="UTF-8"?><svg id="a" xmlns="http://www.w3.org/2000/svg" width="595.28" height="841.89" viewBox="0 0 595.28 841.89"><defs><style>.b{fill:#68815c;}.b,.c{stroke:#231f20;stroke-miterlimit:10;}.c{fill:#8b6646;}</style></defs><path class="b" d="m310.93,605.4s16.23-54.67,28.64-50.53c0,0-1.76,31.91-28.64,50.53Z"/><path class="b" d="m310.4,604.87s30.73-30.51,37.5-23.23c0,0-12.8,20.62-37.5,23.23Z"/><path class="b" d="m313.95,600.22s-28.14-46.77-40.85-38.42c0,0,8.04,30.02,40.85,38.42Z"/><path class="b" d="m313.53,605.37s-33.32-27.67-40-19.01c0,0,14.25,19.87,40,19.01Z"/><path class="b" d="m316.68,549.49s16.23-54.67,28.64-50.53c0,0-1.76,31.91-28.64,50.53Z"/><path class="b" d="m316.15,548.97s30.73-30.51,37.5-23.23c0,0-12.8,20.62-37.5,23.23Z"/><path class="b" d="m316.68,506.24s16.23-54.67,28.64-50.53c0,0-1.76,31.91-28.64,50.53Z"/><path class="b" d="m316.15,505.71s30.73-30.51,37.5-23.23c0,0-12.8,20.62-37.5,23.23Z"/><path class="b" d="m316.68,462.46s16.23-54.67,28.64-50.53c0,0-1.76,31.91-28.64,50.53Z"/><path class="b" d="m316.15,461.93s30.73-30.51,37.5-23.23c0,0-12.8,20.62-37.5,23.23Z"/><path class="b" d="m318.11,415.49s13.19-55.48,25.81-52.04c0,0,0,31.96-25.81,52.04Z"/><path class="b" d="m317.55,414.99s29-32.16,36.16-25.27c0,0-11.64,21.3-36.16,25.27Z"/><path class="b" d="m318.61,359.4s14.88-41.98,24.16-38.17c0,0-2.8,24.87-24.16,38.17Z"/><path class="b" d="m318.23,358.96s24.84-22.42,29.67-16.41c0,0-10.71,15.52-29.67,16.41Z"/><path class="b" d="m310.4,544.32s-28.14-46.77-40.85-38.42c0,0,8.04,30.02,40.85,38.42Z"/><path class="b" d="m309.97,549.47s-33.32-27.67-40-19.01c0,0,14.25,19.87,40,19.01Z"/><path class="b" d="m308.64,497.98s-28.14-46.77-40.85-38.42c0,0,8.04,30.02,40.85,38.42Z"/><path class="b" d="m308.22,503.13s-33.32-27.67-40-19.01c0,0,14.25,19.87,40,19.01Z"/><path class="b" d="m310.4,452.54s-28.14-46.77-40.85-38.42c0,0,8.04,30.02,40.85,38.42Z"/><path class="b" d="m309.97,457.69s-33.32-27.67-40-19.01c0,0,14.25,19.87,40,19.01Z"/><path class="b" d="m313.95,406.51s-28.14-46.77-40.85-38.42c0,0,8.04,30.02,40.85,38.42Z"/><path class="b" d="m313.53,411.66s-33.32-27.67-40-19.01c0,0,14.25,19.87,40,19.01Z"/><path class="b" d="m322.13,359.4s-14.32-41.98-23.25-38.17c0,0,2.69,24.87,23.25,38.17Z"/><path class="b" d="m322.49,358.96s-23.9-22.42-28.55-16.41c0,0,10.3,15.52,28.55,16.41Z"/><path class="c" d="m315.95,619.43c.05,2.07-2.35,2.28-2.51.22-5.66-71.18-12.92-226.77,21.46-315.47,0,0-24.52,60.96-18.95,315.25Z"/><path class="b" d="m304.54,607.59s-7.52-56.53,5.49-57.83c0,0,11.43,29.85-5.49,57.83Z"/><path class="b" d="m303.85,607.32s15.58-40.4,24.73-36.53c0,0-3.26,24.05-24.73,36.53Z"/><path class="b" d="m305.19,601.63s-44.8-31.18-52.98-18.37c0,0,19.61,24.11,52.98,18.37Z"/><path class="b" d="m306.9,606.5s-41.72-11.64-44.27-1.01c0,0,21.12,12.31,44.27,1.01Z"/><path class="b" d="m286.95,554.22s-7.52-56.53,5.49-57.83c0,0,11.43,29.85-5.49,57.83Z"/><path class="b" d="m286.25,553.95s15.58-40.4,24.73-36.53c0,0-3.26,24.05-24.73,36.53Z"/><path class="b" d="m269.27,514.74s-7.52-56.53,5.49-57.83c0,0,11.43,29.85-5.49,57.83Z"/><path class="b" d="m268.58,514.47s15.58-40.4,24.73-36.53c0,0-3.26,24.05-24.73,36.53Z"/><path class="b" d="m251.38,474.78s-7.52-56.53,5.49-57.83c0,0,11.43,29.85-5.49,57.83Z"/><path class="b" d="m250.69,474.52s15.58-40.4,24.73-36.53c0,0-3.26,24.05-24.73,36.53Z"/><path class="b" d="m233.49,431.33s-10.63-56.03,2.29-58.04c0,0,13.06,29.17-2.29,58.04Z"/><path class="b" d="m232.78,431.1s13.33-41.2,22.67-37.84c0,0-1.92,24.19-22.67,37.84Z"/><path class="b" d="m211.02,379.93s-3.58-44.4,6.45-44.71c0,0,7.61,23.84-6.45,44.71Z"/><path class="b" d="m210.5,379.69s13.51-30.61,20.37-27.1c0,0-3.43,18.54-20.37,27.1Z"/><path class="b" d="m279.1,552.06s-44.8-31.18-52.98-18.37c0,0,19.61,24.11,52.98,18.37Z"/><path class="b" d="m280.82,556.93s-41.72-11.64-44.27-1.01c0,0,21.12,12.31,44.27,1.01Z"/><path class="b" d="m258.56,510.49s-44.8-31.18-52.98-18.37c0,0,19.61,24.11,52.98,18.37Z"/><path class="b" d="m260.28,515.36s-41.72-11.64-44.27-1.01c0,0,21.12,12.31,44.27,1.01Z"/><path class="b" d="m241.59,468.29s-44.8-31.18-52.98-18.37c0,0,19.61,24.11,52.98,18.37Z"/><path class="b" d="m243.31,473.16s-41.72-11.64-44.27-1.01c0,0,21.12,12.31,44.27,1.01Z"/><path class="b" d="m226.03,424.83s-44.8-31.18-52.98-18.37c0,0,19.61,24.11,52.98,18.37Z"/><path class="b" d="m227.74,429.71s-41.72-11.64-44.27-1.01c0,0,21.12,12.31,44.27,1.01Z"/><path class="b" d="m214.24,378.49s-30.22-32.47-36.81-25.34c0,0,12.62,21.59,36.81,25.34Z"/><path class="b" d="m214.39,377.94s-30.97-10.69-32.76-3.31c0,0,15.75,9.96,32.76,3.31Z"/><path class="c" d="m314.86,618.34c.89,1.87-1.21,3.04-2.2,1.23-34.25-62.66-104.47-201.69-109.33-296.7,0,0,2.53,65.66,111.53,295.47Z"/><path class="b" d="m318.12,604.62s36.46-43.85,46.24-35.16c0,0-14.19,28.63-46.24,35.16Z"/><path class="b" d="m317.85,603.93s40.27-15.93,43.62-6.58c0,0-19.89,13.91-43.62,6.58Z"/><path class="b" d="m322.94,601.06s-7.44-54.07-22.4-51.4c0,0-4.44,30.76,22.4,51.4Z"/><path class="b" d="m320.52,605.62s-19.72-38.56-29.27-33.23c0,0,5.27,23.87,29.27,33.23Z"/><path class="b" d="m345.44,555.51s36.46-43.85,46.24-35.16c0,0-14.19,28.63-46.24,35.16Z"/><path class="b" d="m345.16,554.81s40.27-15.93,43.62-6.58c0,0-19.89,13.91-43.62,6.58Z"/><path class="b" d="m362.48,515.75s36.46-43.85,46.24-35.16c0,0-14.19,28.63-46.24,35.16Z"/><path class="b" d="m362.21,515.06s40.27-15.93,43.62-6.58c0,0-19.89,13.91-43.62,6.58Z"/><path class="b" d="m379.73,475.51s36.46-43.85,46.24-35.16c0,0-14.19,28.63-46.24,35.16Z"/><path class="b" d="m379.46,474.82s40.27-15.93,43.62-6.58c0,0-19.89,13.91-43.62,6.58Z"/><path class="b" d="m399.55,432.91s33.98-45.8,44.23-37.66c0,0-12.59,29.38-44.23,37.66Z"/><path class="b" d="m399.24,432.23s39.33-18.13,43.19-8.98c0,0-19.09,14.99-43.19,8.98Z"/><path class="b" d="m422.11,381.55s30.22-32.72,37.24-25.56c0,0-12.37,21.75-37.24,25.56Z"/><path class="b" d="m421.93,381s31.66-10.82,33.73-3.4c0,0-15.96,10.05-33.73,3.4Z"/><path class="b" d="m341.71,548.28s-7.44-54.07-22.4-51.4c0,0-4.44,30.76,22.4,51.4Z"/><path class="b" d="m339.29,552.84s-19.72-38.56-29.27-33.23c0,0,5.27,23.87,29.27,33.23Z"/><path class="b" d="m358.35,505s-7.44-54.07-22.4-51.4c0,0-4.44,30.76,22.4,51.4Z"/><path class="b" d="m355.93,509.56s-19.72-38.56-29.27-33.23c0,0,5.27,23.87,29.27,33.23Z"/><path class="b" d="m377.87,463.92s-7.44-54.07-22.4-51.4c0,0-4.44,30.76,22.4,51.4Z"/><path class="b" d="m375.45,468.48s-19.72-38.56-29.27-33.23c0,0,5.27,23.87,29.27,33.23Z"/><path class="b" d="m399.27,423.02s-7.44-54.07-22.4-51.4c0,0-4.44,30.76,22.4,51.4Z"/><path class="b" d="m396.85,427.58s-19.72-38.56-29.27-33.23c0,0,5.27,23.87,29.27,33.23Z"/><path class="b" d="m425.35,382.94s3.38-44.23-6.32-44.24c0,0-7.32,23.92,6.32,44.24Z"/><path class="b" d="m425.86,382.68s-13.13-30.02-19.77-26.33c0,0,3.35,18.33,19.77,26.33Z"/><path class="c" d="m317.21,619.5c-.77,1.92-3.06,1.17-2.4-.79,22.85-67.65,77.47-213.52,144.03-281.5,0,0-46.56,46.37-141.63,282.28Z"/><path class="b" d="m451.08,348.24s16.31-17.66,20.1-13.8c0,0-6.68,11.74-20.1,13.8Z"/><path class="b" d="m450.98,347.94s17.09-5.84,18.21-1.83c0,0-8.61,5.42-18.21,1.83Z"/><path class="b" d="m449.36,348.01s.36-22.89-4.72-22.14c0,0-3.07,12.81,4.72,22.14Z"/><path class="b" d="m449.62,347.84s-7.83-14.34-11.19-11.93c0,0,2.34,9.12,11.19,11.93Z"/><path class="b" d="m456.47,338.62s17.62-16.31,13.9-19.82c0,0-11.64,6.84-13.9,19.82Z"/><path class="b" d="m456.76,338.7s6.03-16.63,2.12-17.56c0,0-5.48,8.47-2.12,17.56Z"/><path class="b" d="m324.89,333.95s.36-22.89-4.72-22.14c0,0-3.07,12.81,4.72,22.14"/><path class="b" d="m325.14,333.78s-7.83-14.34-11.19-11.93c0,0,2.34,9.12,11.19,11.93"/><path class="b" d="m331.53,315.83s1.86-23.97,7.23-23.29c0,0,2.03,13.35-7.23,23.29"/><path class="b" d="m331.28,315.65s9.8-15.17,13.16-12.72c0,0-3.4,9.59-13.16,12.72"/><path class="b" d="m206.29,351.69s-8.34-25.55-13.7-22.78c0,0,1.48,15.39,13.7,22.78"/><path class="b" d="m206.5,351.4s-14.18-12.92-16.98-8.97c0,0,6.08,9.23,16.98,8.97"/><path class="b" d="m203.48,325.85s10.38-21.65,5.63-23.54c0,0-8.3,10.65-5.63,23.54Z"/><path class="b" d="m203.78,325.81s-.51-17.69-4.49-17.11c0,0-1.97,9.89,4.49,17.11Z"/></svg>