<?xml version="1.0" encoding="UTF-8"?><svg id="a" xmlns="http://www.w3.org/2000/svg" width="595.28" height="841.89" viewBox="0 0 595.28 841.89"><defs><style>.b{fill:#219b4c;}.b,.c,.d{stroke:#231f20;stroke-miterlimit:10;stroke-width:2px;}.c{fill:#4a548c;}.d{fill:none;}</style></defs><path class="b" d="m290.97,422.16s-62.65-19.27-93.97,12.77c0,0-77.3-20.56-81.89-111.7,0,0,73.93-.83,98.7,17.19,0,0,27.8,7.74,44.11,26.06,0,0-.99,23.12,33.05,55.68Z"/><path class="d" d="m219.26,394.17c-23.24-12.1-39.03-20.17-47.65-24.28-1.93-.92-6.29-2.97-11.67-6.5-3.85-2.53-6.37-4.6-11.64-8.96-10.43-8.65-15.64-12.97-16.82-14.04-4.43-4.01-10.13-9.47-16.43-16.4"/><path class="b" d="m374.03,414.47s33.88-56.11,10.39-94.27c0,0,38.7-70.01,128.23-52.36,0,0-17.12,71.92-40.61,91.59,0,0-14.25,25.09-35.98,36.48,0,0-22.19-6.57-62.03,18.56Z"/><path class="d" d="m418.57,351.68c17.37-19.61,29.03-32.98,35.11-40.34,1.36-1.65,4.4-5.38,9.13-9.75,3.39-3.12,6-5.07,11.52-9.12,10.92-8.02,16.38-12.03,17.7-12.92,4.96-3.33,11.64-7.53,19.89-11.97"/><path class="b" d="m333.07,370.25s13.66-64.11-21.02-92.48c0,0,13.66-78.82,104.04-91.43,0,0,7.36,73.56-8.41,99.84,0,0-5.25,28.37-22.07,46.24,0,0-23.12,1.05-52.55,37.83Z"/><circle class="c" cx="259.49" cy="322.06" r="78.4"/><path class="d" d="m245.27,278.29s-.59,20.96-18.03,17.56"/><path class="d" d="m247.17,272.39s-27.47-13.89-31.16,23.96"/><path class="d" d="m210.48,282.7c7.52-22.02,29.83-19.16,36.49-17.77.45.09.72-.48.36-.77-5.69-4.65-7.28-7.29-7.64-8.64-.16-.58-.76-.9-1.31-.67-3.72,1.57-13.86,6.98-14.54,12.07"/><path class="d" d="m210.32,293.08c41.03,28.66,42.88-22.22,42.88-22.22,7.85-.76,12.34,9.75,12.34,9.75,0,0-16.51,6.39-16.6,10.68"/><path class="d" d="m207.89,286.33s-4.78-1.4-2.16,16.05c0,0,2.96,1.47,12.24-.56"/><path class="d" d="m247.73,292.74c.8.95-.49,3.46-.49,3.46-.35,2.88-5.91,7.94-5.91,7.94-2.33,1.16-2.14,5.56-1.98,7.23.03.27-.26.45-.49.31-2.49-1.46-12.38-7.4-15.23-11.28"/><circle class="c" cx="364.93" cy="400.47" r="78.4"/><path class="d" d="m399.41,370s-19.46,7.8-23.29-9.56"/><path class="d" d="m405.59,369.4s1.81-30.73-34.38-19.05"/><path class="d" d="m381.52,339.84c23.19-1.86,29.45,19.74,30.82,26.4.09.45.73.46.85.02,2-7.07,3.79-9.58,4.89-10.45.47-.37.53-1.06.09-1.47-2.92-2.78-11.92-9.93-16.86-8.54"/><path class="d" d="m371.93,343.83c-9.96,49.05,37.45,30.5,37.45,30.5,3.82,6.9-4.04,15.2-4.04,15.2,0,0-12.43-12.6-16.41-10.98"/><path class="d" d="m377.16,338.91s-.61-4.94-15.59,4.4c0,0-.17,3.3,5.39,11"/><path class="d" d="m387.14,378.01c-.55,1.12-3.37.93-3.37.93-2.78.82-9.64-2.26-9.64-2.26-1.99-1.68-5.96.25-7.42,1.06-.24.13-.52-.06-.49-.33.35-2.86,1.86-14.31,4.28-18.46"/><circle class="c" cx="263.33" cy="461.04" r="78.4"/><path class="d" d="m239.24,421.83s4.34,20.51-13.41,21.3"/><path class="d" d="m239.71,415.64s-29.97-7.06-24.67,30.6"/><path class="d" d="m206.46,434.28c2.14-23.17,24.5-25.62,31.3-25.83.46-.01.58-.63.17-.83-6.62-3.19-8.78-5.38-9.46-6.61-.29-.53-.95-.7-1.43-.34-3.24,2.4-11.83,10.04-11.31,15.14"/><path class="d" d="m208.73,444.41c46.61,18.24,36.47-31.66,36.47-31.66,7.45-2.58,14.28,6.59,14.28,6.59,0,0-14.55,10.09-13.64,14.28"/><path class="d" d="m204.79,438.41s-4.97-.24,1.66,16.11c0,0,3.22.73,11.76-3.42"/><path class="d" d="m245.02,435.29c1,.74.33,3.48.33,3.48.33,2.88-3.89,9.11-3.89,9.11-2,1.67-.78,5.91-.23,7.49.09.25-.15.5-.41.42-2.76-.84-13.77-4.29-17.45-7.39"/><path class="d" d="m354.62,296.35c10-24.21,16.65-40.66,19.98-49.61.75-2,2.4-6.53,5.44-12.2,2.18-4.06,4.02-6.75,7.9-12.39,7.69-11.15,11.54-16.73,12.5-18,3.6-4.77,8.54-10.92,14.88-17.82"/></svg>