<?xml version="1.0" encoding="UTF-8"?><svg id="a" xmlns="http://www.w3.org/2000/svg" width="595.28" height="841.89" viewBox="0 0 595.28 841.89"><defs><style>.b{fill:#d6b783;}.b,.c,.d{stroke:#231f20;stroke-miterlimit:10;}.c{fill:#cf4e30;}.d{fill:#230d0d;}.e{fill:#231f20;}.e,.f{stroke-width:0px;}.f{fill:#edd6b3;}</style></defs><path class="b" d="m257.99,295.97s39.63,107.8-41.22,245.71c0,0,85.6,36.46,136.33,0,0,0-42.8-209.25-15.85-264.74,0,0-60.24-12.68-79.26,19.02Z"/><path class="d" d="m257.05,296.75s-174.38,8.84-82.52-29.05c0,0,196.18-36.63,272.47-10.1,0,0,10.9,34.1-113.66,32.84"/><path class="c" d="m145.87,288.16c-.4-8.13,1.53-19.33,8.61-34.44.22-.47.48-.92.79-1.35,6.06-8.48,71.46-97.58,142.92-95.8.22,0,.44,0,.66-.01,4.92-.3,67.14-2.82,115.54,57.09.58.71,1.26,1.34,2.04,1.83,5.84,3.69,32.32,21.46,33.03,40.61.22,5.98-5.77,10.24-11.39,8.18-42.22-15.53-90.98-14.62-150.69-3.62-12.13,2.23-21.52,5.48-40.28,11.97-27.4,9.48-55.14,21.88-86.43,20.78-5.24-.18-14.54.09-14.8-5.25Z"/><circle class="f" cx="330.3" cy="206.69" r="7.02"/><circle class="f" cx="380.96" cy="232.15" r="8.25"/><circle class="f" cx="273.24" cy="178.06" r="8.25"/><circle class="f" cx="241.79" cy="251.54" r="8.25"/><circle class="f" cx="216.77" cy="223.89" r="7.02"/><circle class="f" cx="250.04" cy="196.74" r="7.02"/><circle class="f" cx="312.78" cy="171.04" r="7.02"/><circle class="f" cx="277.92" cy="226.36" r="7.02"/><circle class="f" cx="213.14" cy="254.97" r="7.02"/><circle class="f" cx="191.66" cy="230.91" r="7.02"/><circle class="f" cx="183.26" cy="260.4" r="7.02"/><circle class="f" cx="160.21" cy="274.44" r="7.02"/><circle class="f" cx="276.69" cy="251.54" r="7.02"/><circle class="f" cx="293.54" cy="201.74" r="7.02"/><circle class="f" cx="341.11" cy="180.55" r="7.02"/><circle class="f" cx="372.71" cy="205.46" r="7.02"/><circle class="f" cx="312.78" cy="240.4" r="7.02"/><circle class="f" cx="348.13" cy="237.93" r="7.02"/><circle class="f" cx="410.54" cy="243.29" r="7.02"/><circle class="f" cx="432.34" cy="250.31" r="7.02"/><circle class="f" cx="356.75" cy="218.82" r="7.02"/><circle class="f" cx="250.04" cy="226.91" r="7.02"/><path class="e" d="m280.53,314.69s-7.5,17.81,0,32.47c0,0,11.78-17.48,0-32.47Z"/><path class="e" d="m311.82,358.02s-7.5,17.81,0,32.47c0,0,11.78-17.48,0-32.47Z"/><path class="e" d="m275.73,416.16s-7.5,17.81,0,32.47c0,0,11.78-17.48,0-32.47Z"/><path class="e" d="m316.11,450.88s-7.5,17.81,0,32.47c0,0,11.78-17.48,0-32.47Z"/><path class="e" d="m256.11,495.58s-7.5,17.81,0,32.47c0,0,11.78-17.48,0-32.47Z"/><path class="e" d="m304.81,511.82s-7.5,17.81,0,32.47c0,0,11.78-17.48,0-32.47Z"/><path class="e" d="m311.82,298.23s-7.5,17.81,0,32.47c0,0,11.78-17.48,0-32.47Z"/><path class="e" d="m292.59,383.69s-7.5,17.81,0,32.47c0,0,11.78-17.48,0-32.47Z"/><path class="e" d="m280.02,467.11s-7.5,17.81,0,32.47c0,0,11.78-17.48,0-32.47Z"/></svg>